<svg xmlns="http://www.w3.org/2000/svg" viewBox="0 0 43.91 33.4"><defs><style>.cls-2{fill:#263d90;}.cls-3{fill:#f5eb29;}.cls-4{fill:#eb2329;}.cls-5{fill:#828486;}.cls-6{fill:#8dc641;}.cls-7{fill:#ed1b7d;}.cls-8{fill:#0d713d;}</style></defs><title>Asset 1114</title><g id="Layer_2" data-name="Layer 2"><g id="Layer_1-2" data-name="Layer 1"><rect class="cls-2" x="5.4" y="15.24" width="1.3" height="4.05"/><rect class="cls-2" x="11.93" y="9.54" width="4.72" height="1.3"/><rect class="cls-2" x="22.71" y="14.03" width="1.3" height="2.48"/><path class="cls-2" d="M22.71,25.57v1.3H13.82v1.27H24V25.57Z"/><path class="cls-3" d="M12.64,15.8H2.39V5.55H12.64ZM3.69,14.5h7.68V6.82H3.69Z"/><path class="cls-4" d="M27.2,13.52H17V1.3H29.27V7.41h1.3V0H15.77V14.8H27.2Z"/><path class="cls-5" d="M14.62,33.4H0V18.78H14.62ZM1.3,32.1h12v-12H1.3Z"/><path class="cls-6" d="M28.94,23.12v1.27h3.43v4.7H27.7V25.4H26.4v5h7.24V23.12Z"/><path class="cls-7" d="M28.41,18.34v6.56h-7.8v-7.8h6.91V15.83H19.31V26.19H29.71V18.34Z"/><path class="cls-8" d="M39.39,19.28H26.61V6.53H39.36V19.28ZM27.91,18H38.09V7.83H27.91Z"/></g></g></svg>