<svg xmlns="http://www.w3.org/2000/svg" viewBox="-6676.808 4060.335 92.988 24.124"><defs><style>.a{fill:#888;}</style></defs><path class="a" d="M2.038,23.292a13.217,13.217,0,0,1-1.145-.819.813.813,0,0,1-.162-.168.3.3,0,0,1,.009-.435c.416-.453.838-.9,1.26-1.347.136-.143.258-.14.463-.022.325.186.648.388.983.559a3.089,3.089,0,0,0,1.527.4,2.246,2.246,0,0,0,1.971-1.145,5.077,5.077,0,0,0,.614-1.983c.025-.2.041-.391.059-.587a.26.26,0,0,0-.447-.239,2.912,2.912,0,0,1-1.648.72,5.9,5.9,0,0,1-1.5-.031A4.69,4.69,0,0,1,.774,16.2,4.319,4.319,0,0,1,0,13.661q-.01-2.421,0-4.842A4.531,4.531,0,0,1,3.639,4.356a5.609,5.609,0,0,1,2.34-.034A2.292,2.292,0,0,1,7.1,4.893a.267.267,0,0,0,.3.071A.244.244,0,0,0,7.541,4.7V4.651c.016-.3.1-.379.4-.379l1.769,0c.084,0,.165-.006.249,0,.264.006.354.09.36.357.006.2-.01.4-.01.605V11.38l0,0c0,2.024.006,4.044,0,6.068a9.011,9.011,0,0,1-.574,3.312,4.949,4.949,0,0,1-3.4,3.166,5.354,5.354,0,0,1-1.417.195A5.639,5.639,0,0,1,2.038,23.292ZM2.649,9.086c.05,1.446.013,2.9.013,4.345A2.332,2.332,0,0,0,4.347,15.67a2.634,2.634,0,0,0,2.483-.49A1.8,1.8,0,0,0,7.538,13.7c-.009-.816,0-1.626,0-2.44,0-.863,0-1.729-.007-2.592a1.706,1.706,0,0,0-.577-1.26,2.705,2.705,0,0,0-1.925-.7H5.005A2.456,2.456,0,0,0,2.649,9.086ZM71.52,18.829a2.008,2.008,0,0,1-.261-.3,3.275,3.275,0,0,1-.512-1.85,3.17,3.17,0,0,1,.633-1.918,1.162,1.162,0,0,1,.081-.093.176.176,0,0,1,.273-.022c.091.081.066.171-.009.257a2.8,2.8,0,0,0-.608,2.027,2.7,2.7,0,0,0,.418,1.362c.069.1.152.2.23.292a.148.148,0,0,1,0,.22.214.214,0,0,1-.145.074A.139.139,0,0,1,71.52,18.829Zm7.566-.019a.155.155,0,0,1,0-.245,3.024,3.024,0,0,0,.3-3.29,2.659,2.659,0,0,0-.27-.376c-.069-.084-.1-.165-.016-.245a.168.168,0,0,1,.271,0,3.009,3.009,0,0,1,.307.407,3.5,3.5,0,0,1,.409,1.747,3.128,3.128,0,0,1-.558,1.785,1.641,1.641,0,0,1-.192.22.165.165,0,0,1-.116.055A.191.191,0,0,1,79.086,18.81Zm-26.552-.58a.725.725,0,0,1-.4-.686c0-.273,0-.546,0-.823a.809.809,0,0,1,1.617.006c0,.118,0,.239,0,.357,0,.155-.062.214-.218.217-.329,0-.661,0-.993.006,0,0-.006,0-.034.016v.2a.418.418,0,0,0,.3.422.449.449,0,0,0,.528-.2c.034-.049.071-.121.118-.13a.238.238,0,0,1,.193.043.226.226,0,0,1,.031.208,1.065,1.065,0,0,1-.3.345.773.773,0,0,1-.422.128A.885.885,0,0,1,52.534,18.23Zm.173-1.862c-.227.13-.214.351-.2.581h.86c.016-.23.034-.45-.2-.584a.46.46,0,0,0-.233-.067A.447.447,0,0,0,52.707,16.368Zm32.075,1.782c0-.673,0-1.344,0-2.017a.221.221,0,0,1,.112-.174.712.712,0,0,1,.272.049.906.906,0,0,1,1.053.2.848.848,0,0,1,.862-.245.656.656,0,0,1,.556.636c.016.506.01,1.012.013,1.521,0,.127-.047.214-.187.214s-.186-.087-.189-.214V16.75c0-.323-.152-.462-.472-.444a.416.416,0,0,0-.4.459c0,.444,0,.888,0,1.335,0,.1-.012.189-.124.223-.14.043-.248-.043-.248-.208,0-.357,0-.714,0-1.071,0-.118,0-.239,0-.357a.4.4,0,0,0-.457-.382.385.385,0,0,0-.416.4c0,.465,0,.931-.006,1.4a.284.284,0,0,1-.112.211.168.168,0,0,1-.088.026A.18.18,0,0,1,84.782,18.149ZM39.674,17.91c-.064-.093-.1-.2,0-.292a.214.214,0,0,1,.31.053.668.668,0,0,0,.605.279.39.39,0,0,0,.375-.289c.028-.177-.052-.295-.276-.369-.154-.053-.319-.081-.478-.127a.6.6,0,0,1-.5-.689.535.535,0,0,1,.251-.391,1.09,1.09,0,0,1,1.157.022c.093.068.152.149.087.261s-.162.093-.271.059a3.11,3.11,0,0,0-.5-.121.428.428,0,0,0-.246.074.218.218,0,0,0,.022.4,4.218,4.218,0,0,0,.441.14c.093.028.188.05.279.087a.661.661,0,0,1,.012,1.217,1.856,1.856,0,0,1-.375.115A1.03,1.03,0,0,1,39.674,17.91Zm-1.927.385a.64.64,0,0,1-.512-.608c-.016-.521-.009-1.043-.013-1.564a.169.169,0,0,1,.183-.186c.137,0,.189.09.189.214v1.366a.438.438,0,1,0,.875,0c0-.444,0-.888,0-1.334,0-.171.06-.248.184-.248s.186.081.186.248v1.893c0,.1,0,.205-.12.242a.191.191,0,0,1-.251-.112.75.75,0,0,1-.431.13A1.177,1.177,0,0,1,37.747,18.3ZM64,17.547C64,17.274,64,17,64,16.725a.784.784,0,0,1,.8-.792.776.776,0,0,1,.823.782c.006.124,0,.248,0,.373-.007.155-.065.214-.221.214h-1.03c0,.1,0,.177,0,.254a.414.414,0,0,0,.285.385.447.447,0,0,0,.513-.158.743.743,0,0,0,.049-.078.167.167,0,0,1,.248-.081.176.176,0,0,1,.078.251.693.693,0,0,1-.41.4.987.987,0,0,1-.33.058A.779.779,0,0,1,64,17.547Zm.55-1.167a.505.505,0,0,0-.155.574h.844c.022-.245.028-.466-.208-.6a.455.455,0,0,0-.223-.062A.448.448,0,0,0,64.551,16.38Zm24.377,1.831a.2.2,0,0,1-.26.106c-.112-.034-.118-.13-.118-.226V15.176a.5.5,0,0,1,.006-.093.173.173,0,0,1,.189-.165.164.164,0,0,1,.174.177c0,.254,0,.506,0,.76v.174a2.607,2.607,0,0,1,.437-.093.766.766,0,0,1,.813.77c.01.282.006.568,0,.854a.786.786,0,0,1-.805.774A.852.852,0,0,1,88.928,18.211Zm.4-1.909a.384.384,0,0,0-.4.4c0,.14,0,.279,0,.419s-.006.289,0,.434a.378.378,0,0,0,.4.4.4.4,0,0,0,.474-.36,7.741,7.741,0,0,0,0-.928.406.406,0,0,0-.448-.367Zm-31.895,1.98a.654.654,0,0,1-.491-.639.6.6,0,0,1,.453-.655c.187-.062.382-.084.571-.137.078-.022.208-.081.205-.115a.563.563,0,0,0-.105-.335.464.464,0,0,0-.64.053c-.022.028-.04.059-.062.09a.184.184,0,0,1-.267.071c-.109-.062-.1-.155-.056-.255a.811.811,0,0,1,.888-.416.735.735,0,0,1,.627.7c.009.366.006.736,0,1.1,0,.118.028.2.155.23a.161.161,0,0,1,.118.217.157.157,0,0,1-.2.124c-.115-.037-.229-.093-.366-.149a.806.806,0,0,1-.5.159A1.206,1.206,0,0,1,57.431,18.283Zm.127-.981c-.124.037-.24.1-.249.261a.333.333,0,0,0,.338.388c.3.025.509-.115.528-.366a3.866,3.866,0,0,0,.006-.425C57.958,17.209,57.757,17.243,57.559,17.3Zm2.014.829c.006-.335.006-.664.006-.993v-.959c0-.223.121-.295.319-.2a.2.2,0,0,0,.121,0,.685.685,0,0,1,.687.105c.127.1.158.236.086.323s-.189.087-.326-.025a.345.345,0,0,0-.378-.04c-.125.053-.143.168-.143.285V18.1c0,.106-.019.2-.143.226a.244.244,0,0,1-.056.007C59.644,18.333,59.575,18.258,59.573,18.131Zm2.384.078a.2.2,0,0,1-.261.106c-.111-.034-.117-.13-.117-.227V15.173a.69.69,0,0,1,0-.078.174.174,0,0,1,.192-.18.168.168,0,0,1,.177.19v.925a2.488,2.488,0,0,1,.419-.1.768.768,0,0,1,.832.77c.009.282.006.568,0,.854a.785.785,0,0,1-.807.776A.825.825,0,0,1,61.957,18.208Zm.407-1.909a.39.39,0,0,0-.41.422c0,.267,0,.537,0,.8a.4.4,0,0,0,.438.429.41.41,0,0,0,.443-.429c0-.127,0-.254,0-.385,0-.146.006-.289,0-.435a.417.417,0,0,0-.453-.407ZM49.817,18.32c-.112-.034-.124-.127-.124-.223v-.9c0-.149,0-.3,0-.45a.432.432,0,0,0-.584-.425.369.369,0,0,0-.294.385c0,.459,0,.922,0,1.381,0,.174-.056.242-.19.242s-.186-.068-.186-.245V16.206c0-.106-.006-.23.121-.251a.734.734,0,0,1,.273.056.9.9,0,0,1,1.052.186.846.846,0,0,1,.661-.267.719.719,0,0,1,.767.726c.019.49.006.984.006,1.474a.172.172,0,0,1-.189.2c-.131,0-.183-.071-.183-.2,0-.459,0-.922,0-1.381a.407.407,0,0,0-.525-.441.426.426,0,0,0-.357.456c0,.45,0,.9,0,1.35,0,.138-.069.219-.174.219A.246.246,0,0,1,49.817,18.32Zm-7.132,0a.7.7,0,0,1-.634-.621.63.63,0,0,1,.494-.72c.177-.056.363-.077.543-.124.071-.018.2-.074.192-.109a.563.563,0,0,0-.1-.335.463.463,0,0,0-.648.059c-.028.037-.046.1-.081.109a.354.354,0,0,1-.233.034c-.049-.022-.08-.134-.077-.2a.381.381,0,0,1,.1-.189.846.846,0,0,1,.916-.245.733.733,0,0,1,.509.689c.01.357.006.714,0,1.071,0,.124.021.22.167.254a.142.142,0,0,1,.1.205c-.028.059-.121.133-.174.127a2.358,2.358,0,0,1-.4-.143.74.74,0,0,1-.488.152A1.565,1.565,0,0,1,42.685,18.317Zm-.075-.984a.3.3,0,0,0-.137.462.482.482,0,0,0,.506.149.39.39,0,0,0,.3-.313,4.747,4.747,0,0,0,.005-.478C43.048,17.215,42.821,17.255,42.61,17.333Zm2.266,1a.16.16,0,0,1-.17-.177c0-.233,0-.465,0-.7V16.213c0-.106-.012-.23.118-.254a.685.685,0,0,1,.276.049.909.909,0,0,1,1.052.193.851.851,0,0,1,.838-.245.68.68,0,0,1,.586.7c.006.49,0,.984,0,1.474,0,.124-.047.2-.177.205s-.193-.081-.193-.208v-.947c0-.149,0-.3,0-.45a.375.375,0,0,0-.422-.419.409.409,0,0,0-.45.425c-.006.425,0,.847,0,1.273,0,.251-.04.323-.183.326s-.192-.078-.192-.335V16.753a.436.436,0,0,0-.58-.435.365.365,0,0,0-.3.382c0,.441,0,.878,0,1.319a1.11,1.11,0,0,1,0,.14.171.171,0,0,1-.19.171Zm37.119-.851c-.016-.568-.013-1.139,0-1.707a.906.906,0,0,1,.881-.857.942.942,0,0,1,1.006.72c.024.121.018.23-.127.273-.118.034-.2-.022-.239-.174a.583.583,0,0,0-1.152.149q-.005.745,0,1.49a.578.578,0,1,0,1.155-.009c0-.171,0-.338,0-.524h-.478c-.121,0-.205-.043-.211-.171s.075-.2.205-.2c.217,0,.434,0,.652,0a.192.192,0,0,1,.208.217c0,.258.006.518,0,.776a.906.906,0,0,1-.931.866h-.014A.9.9,0,0,1,81.995,17.479Zm-6.549.847c-.152-.006-.183-.105-.183-.233V15.16c0-.192.127-.3.264-.22a.279.279,0,0,1,.1.2c.01.49,0,.984,0,1.474v1.474c0,.173-.05.239-.177.239Zm-9-.223c0-.646,0-1.294,0-1.94,0-.155.071-.236.189-.23.146.009.184.106.18.236,0,.32,0,.639,0,.962s0,.643,0,.962c0,.13-.025.23-.18.233h-.009C66.51,18.326,66.447,18.258,66.447,18.1Zm-11.887-.062V16.225c0-.109-.022-.242.114-.27A1.08,1.08,0,0,1,55,16.02a.774.774,0,0,1,1.148.481,1.1,1.1,0,0,1,.021.245c0,.444,0,.891,0,1.334,0,.18-.049.245-.18.245s-.189-.071-.189-.242v-1.3c0-.307-.162-.481-.44-.478a.418.418,0,0,0-.432.472v1.257c0,.223-.044.292-.183.295H54.74C54.6,18.326,54.561,18.253,54.561,18.041Zm14,.282a.629.629,0,0,1-.593-.652c0-.444,0-.888,0-1.341-.136-.05-.369.034-.344-.223.019-.208.2-.149.344-.177v-.692a1.05,1.05,0,0,1,0-.171.172.172,0,0,1,.2-.152.165.165,0,0,1,.167.168c0,.217,0,.434,0,.652v.214c.108,0,.189,0,.271,0a.169.169,0,0,1,.177.193.164.164,0,0,1-.18.171h-.254a1.112,1.112,0,0,0-.013.133v1.161c0,.226.053.295.271.344.121.028.2.09.183.223-.017.117-.1.15-.2.15Zm4.758,0a.883.883,0,0,1-.916-.795,8.881,8.881,0,0,1-.006-.912.058.058,0,0,1-.019,0c0-.264-.009-.528,0-.791a.915.915,0,0,1,.816-.906.948.948,0,0,1,1.049.612.258.258,0,0,1,.016.043c.053.192.018.295-.115.332s-.192-.025-.251-.22a.583.583,0,0,0-1.136.118c-.013.543-.016,1.086,0,1.626a.538.538,0,0,0,.593.521.549.549,0,0,0,.562-.543c.007-.155,0-.31,0-.466,0-.081-.028-.112-.109-.109-.13,0-.257,0-.388,0a.172.172,0,0,1-.2-.183.181.181,0,0,1,.2-.189c.224,0,.444,0,.667,0a.186.186,0,0,1,.2.192,6.618,6.618,0,0,1-.018.9.889.889,0,0,1-.938.77Zm17.953,0c-.137,0-.183-.074-.183-.279V15.111a.177.177,0,0,1,.189-.2c.122,0,.183.074.183.2,0,.357,0,.714,0,1.071v.183h1.146c0-.053.009-.109.009-.161V15.151c0-.127.038-.226.183-.239.125-.009.19.074.19.242v2.93c0,.127-.022.23-.177.236-.134.006-.2-.065-.2-.236,0-.382,0-.764,0-1.148v-.177c-.388.006-.764.006-1.155.006v1.288c0,.2-.044.27-.181.27Zm-14.52-.012a.224.224,0,0,1-.205-.338c.019-.043.041-.084.062-.124.409-.788.823-1.577,1.232-2.362.028-.053.05-.1.087-.174H76.836c-.17,0-.248-.059-.248-.183s.078-.183.251-.183H78.1c.276,0,.366.146.239.388-.419.807-.842,1.611-1.261,2.418-.027.053-.056.109-.1.189h1.213a.171.171,0,0,1,.2.174.175.175,0,0,1-.193.2c-.276,0-.552,0-.828,0Q77.06,18.314,76.752,18.311ZM34.838,18.3a.219.219,0,0,1-.2-.3,1.066,1.066,0,0,1,.065-.14c.413-.791.829-1.583,1.241-2.374.024-.05.049-.1.084-.174H34.876a.168.168,0,0,1-.177-.177.17.17,0,0,1,.165-.189c.038,0,.071,0,.108,0H36.2c.286,0,.376.146.246.4q-.629,1.21-1.26,2.418c-.028.047-.053.1-.093.177h1.22a.169.169,0,0,1,.186.183.163.163,0,0,1-.168.183c-.284,0-.57,0-.854,0Q35.156,18.308,34.838,18.3Zm-10.431-.068H19.8a1.507,1.507,0,0,1-.264-.015.23.23,0,0,1-.2-.32,1.634,1.634,0,0,1,.115-.254q2.737-5.1,5.478-10.2a1.411,1.411,0,0,0,.138-.326.213.213,0,0,0-.2-.286,1.668,1.668,0,0,0-.248-.012H20.009c-.276-.009-.345-.078-.345-.357V4.713c0-.276.078-.354.348-.354H29.06a.724.724,0,0,1,.183.022.226.226,0,0,1,.186.323,1.712,1.712,0,0,1-.1.227q-2.729,5.13-5.453,10.264c-.013.022-.025.046-.038.068-.189.357-.1.515.3.515h4.919a1.108,1.108,0,0,1,.2.012.241.241,0,0,1,.217.245q0,.978,0,1.955c0,.158-.083.23-.245.242-.072.006-.146.006-.218.006Q26.71,18.235,24.407,18.236Zm-9.619,0h-.729c-.313,0-.384-.074-.388-.382v-.078q0-3.236,0-6.471h0V4.819c0-.056,0-.115,0-.171a.281.281,0,0,1,.3-.295c.692,0,1.387,0,2.08,0,.18,0,.26.084.285.264a1.427,1.427,0,0,1,.007.171v13c0,.047,0,.093,0,.14a.286.286,0,0,1-.32.3c-.208,0-.417,0-.625,0Zm51.659-3.088c0-.149.069-.233.187-.233s.189.081.187.245-.062.233-.183.233S66.447,15.306,66.447,15.148Zm2.893-2.924c-.009-.273-.009-.549,0-.823a.81.81,0,0,1,1.62-.006c.006.118,0,.239,0,.357,0,.171-.068.233-.236.233-.319,0-.639,0-.962,0L69.71,12c0,.078,0,.149,0,.22a.422.422,0,0,0,.3.4.442.442,0,0,0,.5-.165.711.711,0,0,0,.049-.081.163.163,0,0,1,.245-.078.178.178,0,0,1,.078.251.736.736,0,0,1-.437.413.863.863,0,0,1-.3.054A.805.805,0,0,1,69.34,12.224Zm.55-1.164c-.205.146-.193.357-.174.577h.863c.038-.323-.015-.481-.189-.59a.447.447,0,0,0-.236-.061A.477.477,0,0,0,69.89,11.06Zm-14.669,1.9a.655.655,0,0,1-.462-.646.583.583,0,0,1,.429-.627c.192-.068.4-.093.6-.152.081-.025.211-.09.208-.127a.542.542,0,0,0-.121-.329.466.466,0,0,0-.646.09.345.345,0,0,0-.034.053.183.183,0,0,1-.276.078c-.115-.065-.093-.171-.043-.273a.817.817,0,0,1,.916-.391.754.754,0,0,1,.593.723c.009.357.006.714,0,1.071,0,.124.024.208.158.242a.155.155,0,0,1,.115.205.162.162,0,0,1-.208.137c-.115-.034-.223-.09-.367-.149a.83.83,0,0,1-.5.161A1.111,1.111,0,0,1,55.221,12.957Zm.078-.934a.306.306,0,0,0-.083.493.482.482,0,0,0,.506.1A.378.378,0,0,0,56,12.261c.012-.124,0-.254,0-.428A6.681,6.681,0,0,0,55.3,12.023ZM52.5,13a.248.248,0,0,1-.1-.18c-.006-.661-.009-1.322,0-1.986a.245.245,0,0,1,.112-.189.655.655,0,0,1,.273.05,3.077,3.077,0,0,1,.518-.065.693.693,0,0,1,.7.717c.009.487,0,.971,0,1.459,0,.13-.049.214-.186.211s-.187-.087-.187-.214v-1.35a.435.435,0,1,0-.869,0V12.8a.2.2,0,0,1-.176.22A.169.169,0,0,1,52.5,13Zm-16.018-.515a1.085,1.085,0,0,1-.028-.245c0-.459,0-.919,0-1.381,0-.127.027-.23.177-.239.127-.009.2.074.2.239,0,.456,0,.909,0,1.366a.4.4,0,0,0,.282.4.428.428,0,0,0,.5-.146.61.61,0,0,0,.09-.3c.009-.438.006-.878,0-1.319,0-.13.031-.226.18-.236.125-.009.193.077.193.239v1.906c0,.106-.013.214-.13.233a.747.747,0,0,1-.261-.056.093.093,0,0,0,0-.043.922.922,0,0,1-.459.125A.741.741,0,0,1,36.478,12.482Zm6.167.5a.28.28,0,0,1-.081-.2c-.01-.286,0-.568,0-.854v-2c0-.047,0-.093,0-.14.006-.118.068-.186.183-.183a.166.166,0,0,1,.18.186v1.521c0,.5,0,.993,0,1.49a.2.2,0,0,1-.175.221A.171.171,0,0,1,42.645,12.978Zm24.253.034c-.121-.037-.232-.1-.375-.155a.867.867,0,0,1-.745.13.692.692,0,0,1-.571-.835.54.54,0,0,1,.366-.444c.211-.078.438-.118.655-.177.084-.022.2,0,.215-.13a.337.337,0,0,0-.134-.341.493.493,0,0,0-.64.1c-.021.028-.037.062-.062.09a.183.183,0,0,1-.251.043.164.164,0,0,1-.065-.227.8.8,0,0,1,.9-.441.737.737,0,0,1,.622.677c.008.366.006.732,0,1.1,0,.13.019.233.171.267.1.025.127.115.105.211a.159.159,0,0,1-.151.136A.179.179,0,0,1,66.9,13.013Zm-.931-1.071A.9.9,0,0,0,65.79,12a.292.292,0,0,0-.217.27.352.352,0,0,0,.351.376.431.431,0,0,0,.519-.348c.009-.143,0-.282,0-.441C66.271,11.886,66.119,11.911,65.966,11.942Zm-7.917,1.071A.624.624,0,0,1,57.5,12.4c-.006-.4,0-.807,0-1.207v-.177c-.146-.034-.369.031-.356-.214.012-.208.2-.161.356-.18,0-.267,0-.528,0-.791a.25.25,0,0,1,.059-.18.23.23,0,0,1,.2-.028.237.237,0,0,1,.109.165c.012.2.006.413.006.621,0,.065,0,.13,0,.2a.507.507,0,0,0,.181.018c.128,0,.249,0,.253.184s-.116.193-.245.189a.434.434,0,0,0-.189.022v1.3a.27.27,0,0,0,.251.313c.136.025.211.087.189.23a.161.161,0,0,1-.186.15A.734.734,0,0,1,58.049,13.013Zm9.795-.612c-.009-.863,0-1.726,0-2.589,0-.13.059-.211.193-.211s.183.09.18.22c0,.416,0,.835,0,1.254v1.211c0,.242.055.31.292.357a.178.178,0,0,1,.162.208.172.172,0,0,1-.189.164h-.017A.63.63,0,0,1,67.844,12.4Zm-20.692.612a.636.636,0,0,1-.571-.627c-.006-.4,0-.8,0-1.195v-.18c-.3-.031-.354-.065-.351-.2s.065-.168.351-.189V9.868c0-.046-.013-.112.012-.137a.377.377,0,0,1,.2-.124c.1-.009.155.068.159.174v.847c.1,0,.18,0,.261,0a.169.169,0,0,1,.183.186.164.164,0,0,1-.183.183h-.258c0,.478-.006.944,0,1.406,0,.146.122.211.251.233s.211.09.19.23a.168.168,0,0,1-.192.149A.529.529,0,0,1,47.151,13.013Zm-12.213-.254V11.191c0-.059,0-.115,0-.189-.149,0-.279-.012-.283-.183s.134-.2.283-.192c0-.14-.006-.27,0-.4a.627.627,0,0,1,.6-.63c.125,0,.205.05.214.171a.173.173,0,0,1-.183.2.25.25,0,0,0-.255.242c-.012.13,0,.267,0,.4a.491.491,0,0,0,.163.017c.125,0,.244,0,.244.188S35.6,11,35.474,11a.5.5,0,0,0-.164.014v1.751c0,.174-.053.248-.18.251h-.007C35,13.016,34.938,12.932,34.938,12.758Zm13.846.251a.737.737,0,0,1-.68-.6,6.772,6.772,0,0,1,0-1.173.81.81,0,0,1,1.583.037,4.146,4.146,0,0,1,.016.481c0,.171-.069.233-.236.233-.335,0-.665,0-1.018,0v.19a.431.431,0,0,0,.3.45.455.455,0,0,0,.531-.214.3.3,0,0,1,.187-.127c.13-.009.2.137.148.27a.763.763,0,0,1-.742.457C48.846,13.014,48.815,13.012,48.784,13.01Zm-.177-1.931a.511.511,0,0,0-.134.562c.279,0,.556,0,.832,0,.049-.31-.006-.493-.187-.6a.433.433,0,0,0-.22-.055A.478.478,0,0,0,48.607,11.079Zm15.639,1.934c-.127,0-.183-.084-.183-.2,0-.456,0-.909,0-1.366a.438.438,0,1,0-.875,0c0,.456,0,.909,0,1.366,0,.143-.084.223-.208.205a.177.177,0,0,1-.165-.193c0-.667,0-1.335.007-2a.231.231,0,0,1,.124-.183.95.95,0,0,1,.314.074.787.787,0,0,1,.531-.084.675.675,0,0,1,.642.661c.02.512.01,1.024.013,1.536a.17.17,0,0,1-.185.193Zm-19.082-.2v-.14c0-.419,0-.838,0-1.257a.428.428,0,0,0-.611-.4.409.409,0,0,0-.263.416v1.335c0,.174-.06.245-.187.245s-.183-.074-.183-.248V10.871c0-.1.006-.205.121-.242a.2.2,0,0,1,.258.112.8.8,0,0,1,1.2.4.745.745,0,0,1,.028.183c0,.5,0,.993.006,1.49,0,.124-.059.2-.183.2S45.168,12.932,45.165,12.811Zm-6.229,0c0-.326,0-.655,0-.987v-.962c0-.223.121-.295.32-.2a.185.185,0,0,0,.122-.006.7.7,0,0,1,.71.127c.114.106.136.239.052.314-.1.1-.208.062-.3-.025a.334.334,0,0,0-.388-.05c-.13.056-.143.177-.143.3v1.456c0,.115-.031.205-.158.23a.2.2,0,0,1-.04,0A.187.187,0,0,1,38.936,12.808Zm22.214.2a.772.772,0,0,1-.792-.729c-.009-.155,0-.314,0-.475s-.006-.3,0-.45a.811.811,0,0,1,1.614-.022q.019.479,0,.959a.775.775,0,0,1-.812.717Zm.009-2.021a.4.4,0,0,0-.428.41c0,.279,0,.559,0,.835a.4.4,0,0,0,.431.407.408.408,0,0,0,.438-.4c0-.137,0-.276,0-.416s.007-.289,0-.434a.4.4,0,0,0-.434-.4ZM50.488,12.8V10.862c0-.223.121-.295.32-.2a.179.179,0,0,0,.121,0,.716.716,0,0,1,.543.019.465.465,0,0,1,.211.171.288.288,0,0,1,.006.248c-.059.1-.167.071-.261.009A.619.619,0,0,0,51.246,11a.286.286,0,0,0-.385.31c0,.453,0,.909,0,1.362v.124c0,.127-.05.217-.184.217S50.488,12.923,50.488,12.8Zm8.626,0c0-.323,0-.649,0-.975v-.978c0-.124.038-.214.177-.226.125-.009.2.071.2.22,0,.652,0,1.3,0,1.955,0,.127-.053.214-.187.214S59.11,12.926,59.114,12.8ZM7.538,11.259ZM59.11,9.822c-.009-.118.035-.214.18-.22.125-.006.2.081.2.239s-.062.23-.187.23h-.007C59.167,10.07,59.11,10,59.11,9.822ZM37.7,10.07c-.124,0-.183-.074-.183-.23s.062-.245.189-.239.183.078.183.23-.059.239-.182.239Zm-1.08-.239c0-.152.062-.23.183-.233s.189.081.189.242-.059.226-.183.23S36.614,9.993,36.617,9.831ZM68.67,7.289c-.1-.14-.1-.248,0-.313.125-.084.218-.031.307.071a.644.644,0,0,0,.7.254.363.363,0,0,0,.276-.3.3.3,0,0,0-.218-.32c-.139-.053-.285-.084-.428-.127a2.264,2.264,0,0,1-.292-.1.536.536,0,0,1-.329-.5.542.542,0,0,1,.28-.518,1.063,1.063,0,0,1,1.1.015c.109.059.189.149.118.279S70,5.84,69.9,5.778a.8.8,0,0,0-.553-.1c-.165.028-.273.121-.279.245-.009.152.093.223.22.261.152.046.308.084.463.124a.662.662,0,0,1,.581.723.616.616,0,0,1-.45.584,2.8,2.8,0,0,1-.36.087A1.034,1.034,0,0,1,68.67,7.289Zm-7.918,0c-.1-.137-.1-.245,0-.314.125-.087.217-.037.308.065a.645.645,0,0,0,.695.258.358.358,0,0,0,.279-.295.3.3,0,0,0-.227-.326c-.146-.05-.3-.087-.447-.124a.8.8,0,0,1-.506-.3.583.583,0,0,1,.177-.8,1.108,1.108,0,0,1,1.146.019c.1.071.155.161.09.276s-.174.1-.273.043a.828.828,0,0,0-.58-.1c-.137.028-.252.087-.268.239s.09.223.214.264c.158.05.32.084.479.127a.66.66,0,0,1,.57.729.548.548,0,0,1-.3.493,2.768,2.768,0,0,1-.465.165A1.063,1.063,0,0,1,60.752,7.292ZM59.083,7.7a.745.745,0,0,1-.7-.63,7.215,7.215,0,0,1,0-1.13.755.755,0,0,1,.779-.639.765.765,0,0,1,.8.612,2.858,2.858,0,0,1,.021.571c0,.136-.1.2-.232.192H58.716a1.7,1.7,0,0,0,.05.4.444.444,0,0,0,.753.087.882.882,0,0,0,.056-.093.163.163,0,0,1,.245-.078.181.181,0,0,1,.081.251.774.774,0,0,1-.73.461A.87.87,0,0,1,59.083,7.7Zm-.205-1.931a.515.515,0,0,0-.146.493.109.109,0,0,0,.081.065c.26,0,.515,0,.794,0v-.2a.41.41,0,0,0-.248-.425.507.507,0,0,0-.2-.043A.457.457,0,0,0,58.877,5.768ZM44.292,7.3a.647.647,0,0,1-.049-.081.172.172,0,0,1,.044-.248A.193.193,0,0,1,44.553,7a2.238,2.238,0,0,0,.292.251.482.482,0,0,0,.543,0,.492.492,0,0,0,.177-.282.236.236,0,0,0-.17-.264c-.156-.056-.314-.1-.472-.149a2.316,2.316,0,0,1-.292-.1.535.535,0,0,1-.326-.472.523.523,0,0,1,.279-.543,4.109,4.109,0,0,1,.543-.186c.2.071.391.13.577.211a.181.181,0,0,1,.106.267c-.068.124-.177.109-.282.053a.829.829,0,0,0-.569-.1c-.133.025-.251.081-.276.23s.084.236.214.276c.158.05.32.084.479.127a.66.66,0,0,1,.546.841.741.741,0,0,1-.245.36.908.908,0,0,1-.564.184A1.015,1.015,0,0,1,44.292,7.3Zm33.223.385c-.112-.04-.217-.1-.345-.152a.9.9,0,0,1-.838.109.66.66,0,0,1-.484-.615.592.592,0,0,1,.434-.667c.19-.068.392-.093.583-.149.081-.025.19-.065.217-.127a.312.312,0,0,0-.146-.36.486.486,0,0,0-.633.137.46.46,0,0,0-.034.053.185.185,0,0,1-.258.065c-.108-.056-.105-.155-.062-.254a.776.776,0,0,1,.763-.428.747.747,0,0,1,.754.763c.006.351,0,.7,0,1.055,0,.115.022.2.156.23a.163.163,0,0,1,.115.233.154.154,0,0,1-.151.122A.23.23,0,0,1,77.516,7.69ZM76.6,6.625a.669.669,0,0,0-.133.04c-.134.053-.249.121-.252.295a.361.361,0,0,0,.388.369.425.425,0,0,0,.481-.357,4.111,4.111,0,0,0,0-.434ZM63.719,7.668a.765.765,0,0,1-.562-.7c-.009-.3-.009-.608,0-.915a.781.781,0,0,1,.8-.754.767.767,0,0,1,.807.761c0,.118,0,.239,0,.357,0,.2-.059.258-.257.261h-.987c0,.093,0,.158,0,.226a.411.411,0,0,0,.3.407.433.433,0,0,0,.506-.168c.131-.186.205-.22.311-.143s.1.2-.013.372a.8.8,0,0,1-.664.332A.9.9,0,0,1,63.719,7.668Zm-.034-1.909c-.192.146-.174.351-.149.562h.854c.021-.245.037-.472-.208-.6a.485.485,0,0,0-.224-.058A.454.454,0,0,0,63.685,5.759Zm-25.6,1.862a.731.731,0,0,1-.45-.686q-.009-.442,0-.884a.809.809,0,0,1,1.614-.012c.006.13,0,.258,0,.388,0,.18-.062.242-.242.245-.329,0-.655,0-1,0a2.028,2.028,0,0,0,0,.31.372.372,0,0,0,.279.32.423.423,0,0,0,.468-.112.513.513,0,0,0,.081-.115c.056-.109.139-.155.254-.093s.121.155.074.267a.785.785,0,0,1-.729.449A.814.814,0,0,1,38.088,7.621Zm.081-1.865c-.2.146-.168.354-.152.568h.854c.021-.242.031-.469-.205-.6a.479.479,0,0,0-.228-.061A.459.459,0,0,0,38.169,5.756Zm2.5,1.928a.688.688,0,0,1-.633-.7c-.013-.49,0-.984,0-1.474,0-.124.057-.2.18-.2s.192.074.192.208c0,.459,0,.922,0,1.381a.4.4,0,0,0,.249.4.441.441,0,0,0,.481-.062.419.419,0,0,0,.149-.357c0-.441,0-.878,0-1.319a.305.305,0,0,1,.071-.2.217.217,0,0,1,.2-.019.222.222,0,0,1,.093.174c.01.4,0,.807.006,1.211v.714c0,.1.019.223-.1.245a.8.8,0,0,1-.288-.043,1.082,1.082,0,0,1-.4.075A1.214,1.214,0,0,1,40.665,7.684ZM73.658,7.7a.162.162,0,0,1-.177-.174c0-.177,0-.351,0-.528V4.471a.183.183,0,0,1,.367,0c0,.248,0,.5,0,.745v.155a2.752,2.752,0,0,1,.537-.062.755.755,0,0,1,.711.76c.009.469,0,.941,0,1.412,0,.13-.056.214-.187.214s-.187-.077-.187-.211c0-.456,0-.909,0-1.366a.435.435,0,0,0-.651-.4.382.382,0,0,0-.227.388c0,.428,0,.857,0,1.288,0,.046,0,.093,0,.14a.165.165,0,0,1-.178.165Zm4.92-.233V5.694c-.146-.006-.289-.015-.286-.2s.127-.189.289-.186c0-.14,0-.276,0-.413a.609.609,0,0,1,.609-.615c.115,0,.192.043.2.165a.18.18,0,0,1-.165.205c-.221.046-.27.112-.273.335v.3a.508.508,0,0,0,.164.017c.13,0,.254,0,.243.2-.011.176-.131.176-.261.176a.7.7,0,0,0-.149.01V7.469c0,.155-.065.23-.189.23S78.578,7.621,78.578,7.466Zm-35.253.226a.626.626,0,0,1-.562-.636c-.006-.45,0-.9,0-1.359-.282-.028-.354-.071-.354-.2s.072-.174.354-.189V4.477c0-.124.068-.2.192-.189a.17.17,0,0,1,.18.189v.838h.258a.185.185,0,1,1,0,.369c-.081,0-.161,0-.255,0,0,.481-.006.944,0,1.409,0,.146.127.208.255.23s.2.1.18.233a.161.161,0,0,1-.18.142A.537.537,0,0,1,43.325,7.693ZM71.73,7.684a.766.766,0,0,1-.652-.739c-.009-.149,0-.3,0-.45h-.015a4.779,4.779,0,0,1,.031-.556.776.776,0,0,1,.826-.643A.79.79,0,0,1,72.693,6c.015.127-.009.23-.152.258-.118.022-.189-.046-.218-.2a.434.434,0,0,0-.617-.36.41.41,0,0,0-.258.407c0,.257,0,.518,0,.776a.422.422,0,0,0,.4.444.427.427,0,0,0,.469-.376.333.333,0,0,1,.074-.177.214.214,0,0,1,.184-.028.2.2,0,0,1,.111.143.929.929,0,0,1-.056.332.775.775,0,0,1-.739.477A.958.958,0,0,1,71.73,7.684Zm-19.486,0a.752.752,0,0,1-.667-.67c-.016-.313-.013-.63-.006-.947a.771.771,0,0,1,.8-.773.78.78,0,0,1,.819.773c0,.118,0,.239,0,.357,0,.177-.065.245-.242.245-.28,0-.559,0-.838,0l-.18.012a1.615,1.615,0,0,0,.034.373.44.44,0,0,0,.718.149.541.541,0,0,0,.093-.124c.059-.109.14-.155.254-.1a.18.18,0,0,1,.075.264.77.77,0,0,1-.72.449A.9.9,0,0,1,52.245,7.687Zm-.127-1.94c-.217.14-.186.354-.17.577.289,0,.568,0,.857,0,.021-.23.034-.45-.19-.584a.457.457,0,0,0-.24-.072A.467.467,0,0,0,52.117,5.747ZM49.144,7.534c0-.031,0-.062,0-.093v-2.9c0-.059,0-.143.034-.174a.247.247,0,0,1,.2-.062.252.252,0,0,1,.13.177c.016.236.006.475.006.714.006.065.006.13.006.174a3.025,3.025,0,0,1,.531-.062.75.75,0,0,1,.711.76c.009.472,0,.94,0,1.412,0,.13-.056.214-.186.214s-.187-.078-.187-.211c0-.456,0-.909,0-1.366a.434.434,0,0,0-.64-.4.375.375,0,0,0-.235.366c0,.459,0,.922,0,1.381,0,.105-.019.2-.14.23a.23.23,0,0,1-.058.008A.171.171,0,0,1,49.144,7.534Zm-1.832.143A.759.759,0,0,1,46.7,6.92c-.006-.14-.006-.279,0-.419s0-.3,0-.45A.775.775,0,0,1,47.49,5.3a.8.8,0,0,1,.826.7c.016.168-.038.261-.165.264-.143.006-.2-.078-.211-.211a.435.435,0,0,0-.866.05q-.005.4,0,.791a.416.416,0,0,0,.395.435.43.43,0,0,0,.475-.369c.006-.04,0-.1.024-.118a.365.365,0,0,1,.2-.1.211.211,0,0,1,.143.146.887.887,0,0,1-.062.36.774.774,0,0,1-.736.454A1.017,1.017,0,0,1,47.313,7.677ZM66.2,7.7a.629.629,0,0,1-.6-.633c0-.425,0-.847,0-1.273V4.505c0-.155.081-.236.211-.217s.161.106.161.22c0,.506,0,1.012,0,1.518V7a.274.274,0,0,0,.276.323.175.175,0,0,1,.171.211c-.012.121-.093.159-.2.159Zm14.532,0a.635.635,0,0,1-.565-.649c0-.4,0-.795,0-1.195V5.7c-.3-.043-.356-.084-.347-.22s.062-.158.344-.174V4.493c0-.121.05-.2.177-.208s.192.065.192.205c0,.267,0,.534,0,.823h.255a.167.167,0,0,1,.192.177.175.175,0,0,1-.189.2c-.078,0-.155,0-.242,0,0,.047-.013.084-.013.124V6.988c0,.211.059.292.267.335.127.028.2.087.186.217-.008.1-.082.156-.2.156A.456.456,0,0,1,80.731,7.693ZM55.609,6.814c-.013-.552-.013-1.108,0-1.66a.893.893,0,0,1,.813-.869.949.949,0,0,1,1.074.726c.025.121.006.22-.124.261-.114.037-.2-.025-.242-.171a.528.528,0,0,0-.44-.441.558.558,0,0,0-.621.248.65.65,0,0,0-.087.323c-.009.5-.006,1,0,1.506a.58.58,0,1,0,1.158-.019c-.006-.165-.006-.326-.006-.509-.165,0-.313,0-.459,0s-.236-.068-.236-.186.078-.183.233-.186c.2,0,.4,0,.6,0,.168,0,.23.068.233.239,0,.242.006.487,0,.729a.918.918,0,0,1-.947.891h-.007A.9.9,0,0,1,55.609,6.814Zm11.543.376A1.258,1.258,0,0,1,67.137,7V4.539c0-.106,0-.214.127-.251s.242.043.242.211c.006.428,0,.851,0,1.276V6.982c0,.229.062.307.289.344a.174.174,0,0,1,.162.205c-.009.121-.09.164-.205.164A.623.623,0,0,1,67.152,7.19Zm-32.046.481c-.165,0-.23-.068-.23-.239,0-.484,0-.968,0-1.456V4.58c0-.214.053-.27.261-.27.258,0,.518-.006.776.006a.9.9,0,0,1,.856.891q.01.782,0,1.564a.914.914,0,0,1-.9.9c-.106,0-.212,0-.318,0C35.4,7.675,35.253,7.673,35.106,7.671Zm.152-2.98c0,.872,0,1.729,0,2.61h.518a.868.868,0,0,0,.155-.006.544.544,0,0,0,.472-.518q.01-.791,0-1.583a.513.513,0,0,0-.416-.5,2.768,2.768,0,0,0-.288-.013C35.551,4.685,35.4,4.691,35.258,4.691ZM14.031,2.9c-.239,0-.335-.121-.354-.36a.75.75,0,0,1,.211-.605c.531-.577,1.052-1.167,1.58-1.75a.64.64,0,0,1,.714-.127A.339.339,0,0,1,16.35.4c0,.363,0,.726,0,1.086v1.04c0,.254-.1.372-.348.376q-.491,0-.984,0T14.031,2.9Z" transform="translate(-6676.808 4060.335)"/></svg>