<svg xmlns="http://www.w3.org/2000/svg" xmlns:xlink="http://www.w3.org/1999/xlink" viewBox="6112.805 2984 226.189 142.072">
  <defs>
    <style>
      .cls-1 {
        fill: #ddd;
      }

      .cls-2 {
        fill: #709d91;
      }

      .cls-3 {
        clip-path: url(#clip-path);
      }

      .cls-4 {
        fill: #efefef;
      }

      .cls-5 {
        fill: #75914d;
        fill-rule: evenodd;
      }

      .cls-6 {
        fill: #afa38c;
      }

      .cls-7 {
        fill: url(#linear-gradient);
      }

      .cls-8 {
        fill: #792a00;
      }

      .cls-9 {
        fill: #edc232;
      }

      .cls-10 {
        fill: #9b3f23;
      }

      .cls-11 {
        fill: #c9b266;
      }

      .cls-12 {
        fill: #af7a00;
      }

      .cls-13, .cls-15 {
        fill: none;
      }

      .cls-13 {
        stroke: #89c966;
        stroke-width: 2px;
      }

      .cls-14 {
        stroke: none;
      }
    </style>
    <clipPath id="clip-path">
      <rect id="Rectangle_4608" data-name="Rectangle 4608" class="cls-1" width="225.994" height="141.821" rx="5" transform="translate(1193.805 2165.251)"/>
    </clipPath>
    <linearGradient id="linear-gradient" x1="0.5" x2="0.5" y2="1" gradientUnits="objectBoundingBox">
      <stop offset="0" stop-color="#f4e9be"/>
      <stop offset="1" stop-color="#836b29"/>
    </linearGradient>
  </defs>
  <g id="Group_3752" data-name="Group 3752" transform="translate(0 -619)">
    <rect id="Rectangle_4605" data-name="Rectangle 4605" class="cls-1" width="225.994" height="141.821" rx="5" transform="translate(6112.805 3603)"/>
    <rect id="Rectangle_4622" data-name="Rectangle 4622" class="cls-2" width="225.994" height="36.821" rx="5" transform="translate(6113 3708)"/>
    <g id="Mask_Group_209" data-name="Mask Group 209" class="cls-3" transform="translate(4919 1438)">
      <path id="Path_10669" data-name="Path 10669" class="cls-4" d="M291.272,90.923a3.531,3.531,0,0,1,.514-1.413,3.614,3.614,0,0,0,.6-1.841,7.025,7.025,0,0,0-.171-1.884c-.128-.557-.043-1.113-.128-1.713a3.414,3.414,0,0,1-.128-.642,2.239,2.239,0,0,0-.128-.771,5.005,5.005,0,0,0-.257-.856,4.674,4.674,0,0,0-.557-.728c-.514-.557-1.2-.942-1.713-1.5a11.444,11.444,0,0,0-1.927-1.884,3.447,3.447,0,0,0-1.841-.557,1.8,1.8,0,0,1-.685-.171,12.355,12.355,0,0,1-1.242-.171,4.535,4.535,0,0,0-1.541-.385,6.937,6.937,0,0,0-.942.043c-.428.086-.856.214-1.242.257-.514.043-.985,0-1.5,0a2.273,2.273,0,0,1-.771-.043,3.354,3.354,0,0,1-.856-.685,3.721,3.721,0,0,1-.685-.728c-.128-.171-.257-.428-.471-.514-.3-.128-.728,0-1.07-.043a3.856,3.856,0,0,0-.685-.128c-.514,0-1.028.171-1.542.171a1.9,1.9,0,0,1-.985-.086,5.135,5.135,0,0,1-.514-.471,2.209,2.209,0,0,1-.214-2.441,5.348,5.348,0,0,0,.771-1.67c.043-.642-.771-1.113-1.156-1.5-1.156-1.2-.385-3.169.043-4.5a1.236,1.236,0,0,0-.128-1.156c-.171-.257-.343-.471-.514-.728-.128-.214-.214-.6-.471-.685a3.492,3.492,0,0,0-1.156,0h-.728c-.428,0-1.07.128-1.285-.385a5.735,5.735,0,0,1-.043-.856,5.248,5.248,0,0,0-.343-1.413,3.6,3.6,0,0,0-.642-1.113,4.609,4.609,0,0,0-1.028-.771c-.257-.214-.385-.128-.685-.171a.639.639,0,0,1-.3-.128,4.918,4.918,0,0,0-.814-.043c-.428,0-.771-.171-1.2-.171h-.856a7.262,7.262,0,0,1-.942-.171c-.214-.043-.471.043-.685,0a4.009,4.009,0,0,1-.685-.171c-.257-.043-.428-.043-.685-.086-.514-.128-1.071-.171-1.584-.257a3.059,3.059,0,0,1-1.927-1.242,2.008,2.008,0,0,1-.343-1.413c.086-.428.343-.385.728-.514.3-.128.514-.128.385-.557a2.354,2.354,0,0,0-.557-.728c-.214-.257-1.37-1.028-.557-1.242a1.428,1.428,0,0,1,.428,0c.171-.043.3-.128.514-.171a12.967,12.967,0,0,1,1.327-.086c.171-.043.343,0,.514-.043a2.875,2.875,0,0,0,.642-.257c.343-.128.685-.128,1.028-.257a2.758,2.758,0,0,0,.856-.471,3.209,3.209,0,0,0,.428-.856c.214-.642.771-1.927-.128-2.312a2.01,2.01,0,0,0,.128-1.028c0-.257-.043-.728.171-.942.171-.171.385-.171.6-.257a1.243,1.243,0,0,1,.6-.128,7.109,7.109,0,0,0,.942-.128c.257-.043.557-.3.814-.3-.128-.3-.385-.3-.171-.685.257-.514.856-.728,1.327-.985a10.8,10.8,0,0,0,2.1-1.584c.385-.3,1.2-.642.942-1.156-.171-.3-.3-.428-.043-.771a11.566,11.566,0,0,1,2.526-2.269c-.043-.214-.257-.343-.385-.514a1.917,1.917,0,0,1-.171-.856c-.086-.514-.3-.985-.385-1.5-.043-.343-.043-1.028-.385-1.285-.214-.171-.6-.171-.856-.257a11.148,11.148,0,0,0-1.07-.428c-.428-.128-1.113-.343-1.285-.814,0-.043.128.214.128.171-.214,0-.343-.171-.514-.343-.257-.257-.471-.343-.471-.685-.043-.642.128-1.2-.257-1.713a1.328,1.328,0,0,0-1.413-.557c-.428.086-1.113.557-1.5-.043-.086-.128-.043-.257-.086-.385a.724.724,0,0,0-.128-.257,5.182,5.182,0,0,1-.043-.814c0-.171.086-.685-.043-.814-.171-.257-.685-.3-.985-.3a3.933,3.933,0,0,0-1.584.171,5.038,5.038,0,0,1-.856.3,2.761,2.761,0,0,1-.856.128,3.249,3.249,0,0,1-1.285-.043c-.257-.128-.343-.385-.514-.557a7.107,7.107,0,0,0-.771-.814.916.916,0,0,1-.3-.771v-1.37c0-.385.171-1.113-.3-1.285a3.49,3.49,0,0,0-1.156,0,1.1,1.1,0,0,0-.814.171c-.257.214-.128.385-.171.685a.833.833,0,0,1-.385.6c-.128.086-.171.043-.343.086a1.119,1.119,0,0,0-.343.128,6.938,6.938,0,0,1-.942.043c-.385,0-.514-.171-.856-.257a4.757,4.757,0,0,0-1.113-.043c-.557,0-.728.3-1.028.728a2.1,2.1,0,0,0-.3.814,5.931,5.931,0,0,1-1.113,1.884c-.3.343-.728.514-.985.9-.3.343-.6.642-.856.985a3.721,3.721,0,0,1-.685.728c-.343.343-.642.642-1.028.985a3.794,3.794,0,0,1-2.184.985c-.3,0-1.07.128-1.242-.171a1.414,1.414,0,0,1,.086-1.028c.128-.171.471-.171.557-.385.043-.086.086-.343.128-.428.043-.171.128-.685,0-.814-.385-.557-1.627.086-2.141-.214-.343-.214-.428-1.156-.428-1.542a2.882,2.882,0,0,1,.043-.856,2.538,2.538,0,0,1,.3-.685,1.425,1.425,0,0,1,.257-.428c.214-.257.343-.214.557-.3.3-.128.514-.557.856-.685a6.5,6.5,0,0,0,.856-.257c.257-.128.471-.214.685-.3a5.7,5.7,0,0,0,.814-.6c.557-.428.514-1.113.642-1.8a3.131,3.131,0,0,0,0-1.542,1.853,1.853,0,0,0-.771-.942,1.613,1.613,0,0,1-.557-1.542c.043-.343.428-.557.6-.856a1.9,1.9,0,0,0,.128-.856,2.374,2.374,0,0,0-.985-1.884,4.585,4.585,0,0,1-.642-.942,1.9,1.9,0,0,1-.086-.985,6.6,6.6,0,0,0-.043-1.841,3.057,3.057,0,0,0-.343-.642c-.128-.128-.171-.086-.343-.086a5.911,5.911,0,0,1-.856-.128c-.428-.086-1.2.128-1.584-.043-.6-.343-.942-1.2-1.327-1.713-.128-.171-.3-.257-.428-.428a1.452,1.452,0,0,0-.257-.856,10.388,10.388,0,0,0-.6-.856,2.939,2.939,0,0,0-.728-.728,9.4,9.4,0,0,0-1.07-.728,3.04,3.04,0,0,1-.6-.428,3.207,3.207,0,0,0-1.5-.685,5.717,5.717,0,0,0-.856,0c-.3,0-.514-.043-.728.128-.214.214-.043.557-.257.771s-.642.086-.9.086a3.5,3.5,0,0,1-1.156-.043c-.685-.171-1.327-.856-2.184-.942a.858.858,0,0,0-.814.343c-.171.3.128.514-.257.728a2.077,2.077,0,0,1-2.1-.3c-.171-.3-.043-.385-.385-.557a1.544,1.544,0,0,0-.856-.171c-.385.043-.214.257-.471.6-.086.128-.214.128-.257.257-.086.257.043.257-.128.471-.557.771-1.8.428-2.569.471l-.642.257a16.994,16.994,0,0,0-1.67.985,1,1,0,0,0-.3.3,10.72,10.72,0,0,0-1.028.942c-.343.428-.171,1.5,0,2.055a2.121,2.121,0,0,1,.128,1.756c-.171.3-.428.514-.6.771-.257.343-.514.343-.814.557-.942.728-1.67,1.8-2.869,2.055a7.42,7.42,0,0,1-1.37.128,4.264,4.264,0,0,0-1.285.043c-.856.3-1.242,1.2-1.756,1.841a5.793,5.793,0,0,0-.728,1.456,10.407,10.407,0,0,0-.557,1.627,10.832,10.832,0,0,0-.043,2.355,7.551,7.551,0,0,1,0,.985,1.913,1.913,0,0,1-.514,1.156,8.643,8.643,0,0,1-1.028,1.156c-.257.257-.471.557-.728.814s-.471.514-.728.728c-.171.171-.428.257-.6.471a2.878,2.878,0,0,0-.257.514c-.128.214-.171.471-.3.728a2.9,2.9,0,0,0-.514.942,5.248,5.248,0,0,0-.3,1.37,1.853,1.853,0,0,0,.043.685c.128.385.385.471.642.728.514.428.3,1.156.3,1.756a5.473,5.473,0,0,1-1.113,3,1.968,1.968,0,0,1-1.627.985c-.385,0-.685.086-.942-.3a1.854,1.854,0,0,1-.471-1.113v-.9a2.964,2.964,0,0,0-.043-1.07,1.677,1.677,0,0,0-.343-.428c-.043-.043-.471-.3-.514-.343-.3-.086-.471.214-.685.385a3.307,3.307,0,0,0-.514,1.028,2.126,2.126,0,0,1-1.627,1.07,7.877,7.877,0,0,1-2.013.043,2.356,2.356,0,0,1-1.285-.471c-.171-.128-.428-.3-.6-.428-.128-.128-.128-.3-.257-.385a1.313,1.313,0,0,0-.9-.257,4.09,4.09,0,0,1-1.627-.086c-.685-.343-.9-1.67-.771-2.355a3.666,3.666,0,0,1,.471-1.028c.086-.171.257-.171.385-.3a4.038,4.038,0,0,0,.128-.385,2.423,2.423,0,0,0,.171-1.456c-.257-.471-.942-.471-1.37-.428-.214,0-.257.043-.471-.086a1.788,1.788,0,0,1-.471-.642c-.086-.385.214-.814.257-1.156.086-.428.043-.856.128-1.327a4.189,4.189,0,0,0-.086-2.184c-.086-.214-.3-.3-.428-.471a4.81,4.81,0,0,0-.771-.856,9.57,9.57,0,0,0-1.756-1.156,3,3,0,0,0-1.37-.128c-.771,0-1.5.128-2.227.128-.214,0-.557.086-.771-.043-.171-.128-.214-.471-.3-.642s-.214-.3-.3-.471c-.086-.128-.171-.471-.3-.557a4.235,4.235,0,0,0-1.113-.3.954.954,0,0,0-.6,0,.752.752,0,0,0-.428.385.461.461,0,0,1-.086.343,6.261,6.261,0,0,0-.385.557c-.343.6-.428,1.028-1.113,1.242a6.862,6.862,0,0,1-2.1.214,1.6,1.6,0,0,1-1.37-.728A4.169,4.169,0,0,1,165,16.846c-.086-.728.086-1.156-.471-1.713a2.3,2.3,0,0,0-1.37-.557c-.514-.043-.428.257-.9.428a3.91,3.91,0,0,1-1.413,0c-.128-.128-.128-.642-.171-.771a1.511,1.511,0,0,1-.128-.6c-.471-.171-.985-.471-1.113.171-.086.428.128.856-.3,1.113a1.055,1.055,0,0,1-1.07-.086,2.9,2.9,0,0,1-.6-.985,4.48,4.48,0,0,0-.171-.728,2.945,2.945,0,0,0-2.826-1.413c-.642,0-1.37-.3-1.97-.043a15.487,15.487,0,0,0-1.37.942c-.557.343-1.456.471-1.8,1.113a2.767,2.767,0,0,0-.214,1.156,4.254,4.254,0,0,1-1.413,2.055c-.685.471-1.97.214-2.441.985a6.792,6.792,0,0,0-.685,1.756c-.086.343.086.771,0,1.113a1.989,1.989,0,0,1-.557.856,2.4,2.4,0,0,1-1.113.3,2.584,2.584,0,0,1-.814.985c-.214.128-.471.128-.685.3-.257.171-.257.428-.385.685a1.455,1.455,0,0,0-.128.856c.043.557.514,1.242-.214,1.584a2.957,2.957,0,0,1-1.07.171.963.963,0,0,0-.856.385,2.371,2.371,0,0,0-.514.814,1.109,1.109,0,0,1-.814.685,2.3,2.3,0,0,1-1.327.214.985.985,0,0,1-.685-.728c0-.128.128-.3.171-.428a4.326,4.326,0,0,0,.128-.728c.043-.3.171-.3.043-.557a3.5,3.5,0,0,0-1.2-.6,11.042,11.042,0,0,0-1.67-.171c-.856-.043-2.441-.557-3.083.3-.6.814-.428,1.884-.9,2.74a1.25,1.25,0,0,1-1.07.685,6.839,6.839,0,0,0-1.627.043c-.128.043-.214.214-.3.257a6.262,6.262,0,0,1-.814.685,7.014,7.014,0,0,0-1.113.856,3.025,3.025,0,0,0-.814,1.97,6,6,0,0,1-.257,1.2,3.718,3.718,0,0,0-.043.985,1.946,1.946,0,0,1-.814,1.841c-.171.128-.3.171-.471.3a2.185,2.185,0,0,0-.514.856,8.077,8.077,0,0,0-.771,2.227,12.183,12.183,0,0,0-.171,1.756,3.081,3.081,0,0,1-.128,1.242c-.471,1.413-2.055,2.441-3.3,3.083a4.753,4.753,0,0,1-1.67.685c-.471.043-.985,0-1.5,0s-.856.086-1.242-.257c-.214-.214-.471-.385-.728-.6-.214-.171-.471-.257-.685-.428-.257-.171-.471-.642-.856-.642-.514,0-.985.942-1.242,1.285-.771.985-1.67,1.841-2.526,2.783-.557.6-.471.343-.557.771a9.314,9.314,0,0,1-.043,1.07c-.043.514-.086.985-.128,1.5a5.738,5.738,0,0,0,.128,2.7c.214.514.428.985.642,1.5a2.137,2.137,0,0,1,.086,1.456,3.591,3.591,0,0,1-1.242,1.413,8.044,8.044,0,0,0-1.07,1.028c-.685.728-1.37,1.413-2.013,2.141a2.228,2.228,0,0,1-1.841,1.028,7.132,7.132,0,0,1-2.7-.171c-.9-.343-.514-1.156-.514-1.927-.043-.814-.557-.985-1.285-1.07a1.942,1.942,0,0,0-1.8.557,3.266,3.266,0,0,1-.728.557,4.236,4.236,0,0,1-1.8.171,1.477,1.477,0,0,1-1.5-.685c-.257-.514.428-1.2.6-1.67A4.928,4.928,0,0,1,91,58.552c.171-.257.257-.257.3-.6a.91.91,0,0,0-.086-.685c-.214-.257-.771-.171-1.028-.428a3.092,3.092,0,0,1-.557-1.627,1.479,1.479,0,0,0-.814-1.413,8.655,8.655,0,0,0-1.37-.471c-.642-.171-.814-.428-.685-1.07a3.875,3.875,0,0,0,.257-1.97c-.171-.428-1.07-.814-1.456-.942-.685-.257-1.242-.3-1.37-1.156a2.4,2.4,0,0,0-.043-.771c-.214-.385-.856-.3-1.156-.257-.9.171-.728.985-.942,1.67a2.2,2.2,0,0,1-.814,1.242,3.336,3.336,0,0,1-2.013.557,5.792,5.792,0,0,0-2.1.128,2.323,2.323,0,0,0-.9,1.113A1.83,1.83,0,0,1,74.947,53.2a12.034,12.034,0,0,1-2.484,0,5.315,5.315,0,0,0-1.156.128c-.471.128-.343.3-.471.685a5.214,5.214,0,0,1-1.07,1.327,3.253,3.253,0,0,1-2.184.685,1.513,1.513,0,0,0-.728.171,2.228,2.228,0,0,0-.3,1.37,7.259,7.259,0,0,0-.043.942c.086.257.514.343.728.385-.428-.086-.214.3-.557.385a1.033,1.033,0,0,1-1.156-.257c-.214-.385-.043-.728-.128-1.156-.128-.557-.642-.557-1.07-.557a11.337,11.337,0,0,1-2.7-.043c-.257-.043-.471-.214-.685-.257a4.125,4.125,0,0,0-.728,0,1.116,1.116,0,0,0-.856.3,4.263,4.263,0,0,0-.642.6c-.128.171-.086.428-.128.642a4.8,4.8,0,0,0-.214.557,1.447,1.447,0,0,1-.385.814c-.214.171-.385.385-.642.557a1.967,1.967,0,0,1-.685.3,1.557,1.557,0,0,0-.771,1.242c-.043.343.086.685-.043.985-.043.128-.214.214-.3.343a1.181,1.181,0,0,1-.6.514c-.557.3-1.2.343-1.756.685a1,1,0,0,0-.471.471c-.128.257-.043.471-.086.728a2.268,2.268,0,0,1-.257.428c-.086.128-.128.3-.214.428-.171.3-.385.343-.642.471a7.449,7.449,0,0,0-.771.471c-.557.385-1.113.728-1.627,1.156a5.051,5.051,0,0,0-.771.557,5.514,5.514,0,0,1-.685.728,2.178,2.178,0,0,1-1.285.257c-.642,0-.514-.557-.6-1.07a2.47,2.47,0,0,1-.128-.6V66.131c0-.428.214-1.456-.257-1.713-.171-.086-.428-.086-.642-.171-.385-.171-.942-.257-1.242-.6a1.882,1.882,0,0,1-.3-.942,12,12,0,0,1,0-1.242,12.013,12.013,0,0,0,0-1.756,3.461,3.461,0,0,0-.471-1.156,3.167,3.167,0,0,0-.985-.856c-.257-.171-.385-.471-.728-.557a6.5,6.5,0,0,1-.856-.257.875.875,0,0,1-.557-.343c-.343-.3-1.028-.6-1.156-1.07-.128-.428.086-.942,0-1.37-.171-.814-1.37-.728-2.013-.728a5.2,5.2,0,0,1-1.413,0c-.642-.214-.471-.9-.471-1.456,0-.685.128-1.327-.428-1.8A4.539,4.539,0,0,0,31.871,49a5.739,5.739,0,0,0-.856-.043,5.219,5.219,0,0,0-1.156,0c-.257.086-.471.3-.685.385a3.371,3.371,0,0,1-1.584.428h-.856a3.23,3.23,0,0,1-1.242-.385,3.539,3.539,0,0,1-.942-.343c-.128-.128-.043-.171-.128-.3a5.683,5.683,0,0,1-.385-.9,2.285,2.285,0,0,0-2.227-1.413,4.477,4.477,0,0,0-1.07,0,1.8,1.8,0,0,0-.814.685,4.445,4.445,0,0,0-.514.728c-.086.171-.086.385-.171.6a2.151,2.151,0,0,0-.214.557c-.043.171.043.385,0,.557a2.817,2.817,0,0,1-.171.642c-.043.385.043.471-.3.771a1.192,1.192,0,0,1-.985.3c-.557,0-1.113-.171-1.5.3a2.638,2.638,0,0,0-.771,1.713c0,.428.214.728.043,1.156a2.189,2.189,0,0,0-.171,1.156c0,.642-.557.942-1.07,1.327a1.35,1.35,0,0,0-.514,1.242c0,.257-.043.428.128.6.257.257.728.428.985.685a1.614,1.614,0,0,1-.343,2.484c-.514.343-1.07.642-1.584,1.028-.471.343-.385.942-.385,1.5.043.6.557.685.685,1.2.171.514.043,1.156-.557,1.242a5.717,5.717,0,0,1-.856,0H10.118c-.856,0-1.67-.128-2.484-.128a1.463,1.463,0,0,0-.728.128c-.385.214-.6.557-1.07.6a2.581,2.581,0,0,0-.985.257c-.685.3-.9.771-1.37,1.327-.257.3-.6.428-.814.685s-.385.6-.6.856A3.8,3.8,0,0,0,1.555,73.2v1.627a11.435,11.435,0,0,0,0,1.713,3.377,3.377,0,0,0,.385.985,2.107,2.107,0,0,0,.771.557,2.161,2.161,0,0,0,.985.385,3.359,3.359,0,0,1,.942.086c.856.3.814,1.2.642,1.884a3.362,3.362,0,0,0,0,1.841c.385.685,1.627.6,2.269.6a1.754,1.754,0,0,1,1.8,2.141,1.494,1.494,0,0,1-.6.985c-.171.086-.343,0-.514.043a1.522,1.522,0,0,0-.685.471c-.214.385-.043.985-.086,1.413-.086.856-1.156,1.5-1.927,1.627a18.915,18.915,0,0,1-2.7.043c-.685-.043-1.327-.3-2.013-.3-.428,0-.6-.043-.9.214a.746.746,0,0,1-.514.257c-.343.086-.257.086-.514-.214Z" transform="translate(1188.058 2177.521)"/>
      <path id="Path_10644" data-name="Path 10644" class="cls-5" d="M20.964,1.148c-.116-.349-.349-.466-.582-.7l.233-.233L20.731.1l.116.116c0,.116.116.349.116.466h.349v.582C21.313,1.148,21.2,1.148,20.964,1.148ZM15.723,7.9a.114.114,0,0,0-.116-.116c.349-.233.7,0,1.048.116a1.982,1.982,0,0,1,.116-.815.7.7,0,0,1-.7-.349c.349-.466.582-.233,1.048-.116A.957.957,0,0,1,17.7,6.04c.349,0,.582.116.932.116,0,.233.116.466.116.7-.116,0-.233.116-.349.116l.233.466h.116a1.608,1.608,0,0,0,.349-.466l.116-.116a1.163,1.163,0,0,0,.466.582c.116.116.349,0,.815,0v.116c-.233.349-.582.349-.7.815a.428.428,0,0,1,.349.116c0-.233,0-.233.116-.349a2.415,2.415,0,0,1,.7.233l.7-.349V7.9l-.116-.116-.7.349c-.116-.116-.116-.116-.233-.466.116-.116.349-.116.466-.233.815-.466-.466-.932-1.514-.815,0-.116,0-.233-.116-.233V6.273c.582-.116.932.116,1.4.116.116,0,.116-.116.233-.116V5.923A1.968,1.968,0,0,0,20.5,5.69c0-.116.116-.233.116-.349-.349.116-.815.233-1.165.349h-.116c0-.116,0-.233-.116-.233h.116c.233-.116.466-.116.7-.233h.116c-.233-.349-.349-.582-.582-.932h-.815a.114.114,0,0,1-.116-.116V3.943a1.477,1.477,0,0,0,.7-.116c.349-.233.233-.116.116-.582.116,0,.233-.116.349-.116,0-.116.116-.116.116-.233s-.116-.233-.116-.349a2.657,2.657,0,0,0-1.4.7h-.349c.116-.466.233-.466.466-.7-.116-.116-.233-.116-.349-.233.815-.582,2.329.233,3.494.116a.114.114,0,0,0,.116.116h-.233c.116.233.466.233.7.233.116.116.116.233.233.466a.715.715,0,0,1,.7-.116c.116-.349.116-.7.233-1.048a2.045,2.045,0,0,1-.582-.466c0-.233.116-.466.116-.7A.428.428,0,0,0,23.293.8c.233.233.349.582.932.582V1.5a.748.748,0,0,0-.582.582c.233,0,.233,0,.349.116a4.138,4.138,0,0,0-.233,1.165h.466c0,.233.116.349.116.582h.233a1.477,1.477,0,0,1,.116-.7c.582.116.815-.466,1.281-.815a.407.407,0,0,0,.116.233c-.349.582-.582.815-.815,1.281v.233c.233,0,.466-.116.7-.116a2.985,2.985,0,0,1,.466,1.048c.466,0,.582,0,.7.349a4.188,4.188,0,0,1,1.4-.932V3.943c.116-.233,0-.116.233-.233a1.163,1.163,0,0,1,.582.466c.116,0,.116,0,.466-.233v.466c.233-.116.466-.116.7-.233a.114.114,0,0,0,.116.116c-.116.233-.116.233-.349.349,0,.233.116.466.116.7a5.6,5.6,0,0,0,1.281-1.048,2.159,2.159,0,0,0,.815.233V3.71h.233a1.092,1.092,0,0,0,1.048.582.407.407,0,0,1-.116.233v.233c.7-.116.582,0,1.281.116,0-.349-.116-.582-.116-.932-.116-.116-.349-.116-.7-.116a.909.909,0,0,0-.466-.466V3.245c.116,0,.7.116.7.116.233-.233,0-.233.466-.349a.7.7,0,0,1-.116.466c.349.116.7.349,1.048.466v.582a.114.114,0,0,1,.116.116c.233-.116.233-.233.466-.466a1.311,1.311,0,0,1,.932.582c.349-.116.349-.116.349-.466.233-.116.582.116,1.165.116v.116c-.116.233-.116.466-.233.7.582-.233,1.165-.582,1.747-.815h.116c.116.233.116.466.233.7.233-.116.116,0,.233-.233.349-.116.116-.116.466.116l.233-.233c.349-.349-.116-.7.349-1.048.116-.116.116-.116.233,0,.466.116.349.582.466.932a1.683,1.683,0,0,0,.815.233c0,.233-.116.582-.116.815-.349.116-.349.116-.233-.116h.582c.233.233.349.466.582.582l.116.116c.116-.349.116-.466.582-.582-.116-.233-.582-.116-.7-.349-.116-.116-.116-.233-.233-.466.233-.233.7-.233,1.281-.466a1.608,1.608,0,0,1,.349.466c.116,0,.233,0,.233-.116V4.176a.883.883,0,0,0-.466-.233c.349-.466.7-.815,1.048-1.281h.582v.116c-.116.116-.116.233-.233.466.349.233.582-.116,1.048-.233a1.608,1.608,0,0,0,.466.349l.349-.349a3.4,3.4,0,0,1-.233-1.048c.233.116.349.233.582.233a2.54,2.54,0,0,1,.466-.582h.582a.618.618,0,0,1-.7.7v.466c.116.116.349.233.466.466a1.608,1.608,0,0,1,.466-.349c.116.116.116.233.233.233a.114.114,0,0,1,.116.116c-.349.116-.349,0-.466.466-.466-.116-.466-.116-.7-.349-.349.349-.932.582-1.048,1.048h.233c0,.582-.116.582.116.932a2.055,2.055,0,0,1-.932,1.048c.116.233.582.349.7.466-.233.349-.116.349-.582.233l.233.233c-.233.116-2.213.582-2.679.815.233.233.466.349.582.7v.349c-.233,0-.582-.116-.815-.116V8.719c-.116,0-.116-.116-.233-.116a3.088,3.088,0,0,0-.582.7c0,.233-.116.582-.116.815h-.815l.349.7a1.655,1.655,0,0,1,.7-.233c.233.233.349.116.466.466h.116a.873.873,0,0,0,.116-.582c.349-.233.582-.233.932-.466.349,0,.349,0,.466.233a1.339,1.339,0,0,0,.7-1.048,7.422,7.422,0,0,0,.815.233c0,.466.116.466.233.815a.7.7,0,0,0,.466-.116c-.116-.349,0-.233-.233-.466l.233-.233a.83.83,0,0,1,.7-.349c.116.233.116.233.466.349v.116c-.116.116-.116.116-.466.233,0,.233.116.349.116.582H50.78a.88.88,0,0,0-.116-.466.114.114,0,0,0,.116-.116A.407.407,0,0,0,50.9,10c.349.116.233,0,.7-.116h.116v.466c.349.7.815.116,1.281-.116.116.466.233.349.233.815.466-.116.233-.466.582-.7l.116-.116c.116.116.116.349.116.7.233-.116.116-.233.466-.233-.116.349,0,.233-.233.349.116.233.116.233.349.349v.233a11.95,11.95,0,0,1-1.631-.466l-.233.233c-.116,0-.116,0-.233.116a.605.605,0,0,0,.466.233v.233c-.349.116-.815.116-.932.466-.582-.466-.466-.349-1.165-.116.116.349.116.7.349.932,1.165-1.4.815.466,1.863,0,.116-.116.116-.233.233-.466a2.731,2.731,0,0,1,1.4-.233,5.045,5.045,0,0,0-.116-.582v-.116c.349.233.466.582,1.048.466l.116.116c-.233.233-.349.466-.7.582v.349c.466,0,.466,0,.7.233a.883.883,0,0,0,.233-.466,21.985,21.985,0,0,1,3.727.233c.233.233.233.466.582.582,0,.349-.116.349-.233.582,0,.116,0,.116.116.233.349-.116.233-.116.7,0,0-.233-.116-.349-.116-.582a2.27,2.27,0,0,1,.932-.116h.116c0,.233-.116.349-.116.582.116,0,.233,0,.233.116-.116.116-.116.233-.233.233.233.233.466.233.932.233,0,.233-.116.349-.116.582.116.116.233.116.233.233a.88.88,0,0,0,.466-.116,1.894,1.894,0,0,0,.582-1.281h.233a9.128,9.128,0,0,0,.582,1.631c-.233.349-.466.233-.233.7-.349.116-.466,0-.815.116-.116.116-.116.116-.116.466a1.8,1.8,0,0,0-.932-.233.428.428,0,0,1-.116.349.873.873,0,0,0,.582-.116c0,.116,0,.116.116.233-.349.233-.349,0-.466.466-.116,0-.233-.116-.349-.116-.233.349-.116.466-.466.582a5.044,5.044,0,0,0-.116-.582c-.349.116-.349.233-.815.116.116.466.116.233-.116.582.349.466,1.048.815,1.048,1.747.582,0,.7.116.932-.233.349.349.815.116,1.048.466.116.233.116.466.233.7a1.477,1.477,0,0,0-.7.116V22h.815l.116.116a3.79,3.79,0,0,1-3.028.349h-.116a1.968,1.968,0,0,1,.582-.233c-.116-.349-.116-.582-.349-.7a2.485,2.485,0,0,0-1.4-.116c.116-.466-.233-.582-.116-.932-.582.116-.7.349-1.281.466v.116c.116.116.349.116.466.233v.466H59.4c0,.116.116.116.116.233-.233.233-1.048.233-1.4.582.233.233.233.116.233.7.349-.116.582-.116.932-.233.116.233.349.582.466.815.233.233.7.116.932.233a7.19,7.19,0,0,1,2.1,2.1c.349-.116.349-.233.815-.233,0-.466,0-.466.233-.582.116.116.116.116.116.466a1.968,1.968,0,0,1,.582-.233c0,.466,0,.233.116.7h.466v.466c.349-.116.7-.233.932.116.233-.116.233-.116.233-.466a1.566,1.566,0,0,0,.932-.233,2.877,2.877,0,0,0,1.048.466c0,1.048-.466,1.4-.582,2.213.116.233.116.233.349.349.233.233,1.165.233,1.514.7.349-.116.233-.116.116-.349A2.585,2.585,0,0,1,70.7,29.45a1.036,1.036,0,0,1,.7-.7c.233.233.466.7.7.932.7,0,1.514-.233,1.747-.7a.873.873,0,0,0,.582-.116c.116.349.349.582.466.932-.233.349-.349.466-.932.466.116.233,0,.233.466.233.116.7.349.349.932.466.116.116.233.116.349.233-.116.233,0,.116-.116.233.116.349.233.233.466.116.349.349.233.932.466,1.281-.233.116-.349.116-.582.233.233.466.466.815.7,1.281.815.116,1.747.349,2.562.466.582-.233,2.213-1.165,2.912-.116a.114.114,0,0,1,.116.116,1.675,1.675,0,0,1-1.631.233,2.8,2.8,0,0,0-.932.7,12.37,12.37,0,0,0-.466,2.213h-.233V37.6c-.349.116-.582.233-.7-.233h-.7V38.3c-.349.233-.582.233-.932.466V39c.116,0,.233,0,.233.116.233.116.116.116.349-.116h.116a6.569,6.569,0,0,1-.582,2.1c0,.116-.349,0-.7-.116-.349.349-.116.582-.116,1.048-.582-.233-.815-.466-.7-1.4l-.466.233a3.088,3.088,0,0,0-.7-.582c.116-.233.233-.233.116-.582a.7.7,0,0,0-.466-.116l-.233-.466a1.314,1.314,0,0,0,.116.932h-.233a4.367,4.367,0,0,1-.116-1.281h-.116c-.116,0-.116,0-.233.116a.715.715,0,0,1,.116.7V39.7a.7.7,0,0,1-.466-.116v.7c.815.233.582,1.4,1.281,1.514.116-.116.116-.233.233-.233a.114.114,0,0,1,.116-.116c.116.116.116.233.233.466a1.7,1.7,0,0,0-.466,1.4H73.84c-.116-.233-.116-.466-.233-.7l-.116-.116a2.877,2.877,0,0,1-1.048.466,2.1,2.1,0,0,1-.7-1.048,5.221,5.221,0,0,0-1.4-.116v-.582c-.466.116-.349.349-1.048.466v-.466a5.44,5.44,0,0,0-1.165-.582c-.349.349-.233.582-.932.7v.582c-.233.116-.582.116-.815.233,0,1.048-.7,2.446-.233,3.843.233.932.7,1.4.932,2.446a1.968,1.968,0,0,0,.582.233c.233-.116.116,0,.233-.233.932,0,3.028.815,4.309.466a25.022,25.022,0,0,1,7.8,0,18.266,18.266,0,0,0,2.562,0c1.631-.116,3.261-.233,4.892-.233.466.233.116.7.932.932.233.466.116.815.466,1.048-.349.582-.7-1.281-.815-.582a6.734,6.734,0,0,1,1.631.582,1.8,1.8,0,0,1-.233.932c-.582.582-3.145.116-4.076.349-2.562.7-5.94-.815-8.851.116-3.028.932-6.173-.7-9.783-.116-2.679.233-5.357-.349-8.036-.233-3.145.932-8.386.116-12.229.815H43.908a92.316,92.316,0,0,1-9.434,1.4c-2.562.233-5.823,1.4-8.269,1.048-2.329-.116-4.542.466-6.872.349-1.281-.582-3.378.932-4.892.582H13.277c-.815-.349-2.213.116-3.028,0,0-.116-.116-.116-.116-.233a2.155,2.155,0,0,1,1.631-2.1c.233-.7.116.7.116-.466-.116-.233-.116-.233-.466-.233a1.625,1.625,0,0,1,0-1.281c1.048-.466,2.8-.582,3.378,0,1.281-1.4,4.542-.815,7.221-.815,0-.233.116-.349.116-.582a18.7,18.7,0,0,0,5.241-.466c.233-.116.7.116.932.233.7,0,1.4-.116,2.1-.116a10.194,10.194,0,0,0,1.863.233h.116a11.991,11.991,0,0,1,4.076-.116c.116-1.514-1.4-1.747-2.213-2.562-.116-.349-.349-.582-.466-.932a4.137,4.137,0,0,1-1.048-.466c-.349-.466-.233-.932-.582-1.631-.815-1.4-3.261-2.679-5.59-2.8A8.172,8.172,0,0,1,25.39,39.7a3.026,3.026,0,0,1-1.863-1.048c-1.048-.7-1.747,1.048-2.912-.233a.88.88,0,0,1-.116.466h-.466a1.616,1.616,0,0,1,0-1.048,1.477,1.477,0,0,0-.7.116.428.428,0,0,0,.116.349v.116c-.466,0-.349,0-.582-.349a7.563,7.563,0,0,1-2.562.582.9.9,0,0,1-.233-.349c-.116.116-.349.116-.466.233h-.233a1.05,1.05,0,0,1,.116-.582c-.932.116-2.213.349-3.261.582-.116-.116-.116-.116-.116-.349a4.186,4.186,0,0,1,2.1-.815.7.7,0,0,1,.116-.466c-.233.116-.116.116-.349.233H13.86c-.116-.233-.116-.349-.233-.582a1.357,1.357,0,0,1-.815-.233c-.116.233-.116.466-.233.7-.582.116-1.165,0-1.747.116,0-.233-.116-.349-.116-.582-1.165.116-1.048.7-2.329.7-.116-.349-.116-.466-.582-.466-.233-1.165,1.4-1.4,1.863-2.329a5.677,5.677,0,0,1-1.281-.466,3.871,3.871,0,0,1-.233-2.1c-.349,0-.7-.116-1.048-.116,0,.116,0,.233-.116.233.349,0,.466,0,.582.116a2.536,2.536,0,0,0-.932.582,3.962,3.962,0,0,1-1.165-.116c-.116-.349-.116-.815-.233-1.165.466-.233,1.4-.466,1.514-1.048a.428.428,0,0,0-.349.116c-.116-.349-.233-.815-.349-1.165a8.609,8.609,0,0,0-2.213.582c-.116-.116-.116-.116-.116-.466H3.61c-.233-.349-.116-.116-.582,0,0-.116-.116-.116-.116-.233a.7.7,0,0,1-.116.466c-.349.116-.582.233-.7-.116-.349.116-.349.233-.582.466H1.281a1.05,1.05,0,0,0-.116-.582c-.349.116-.582.233-.932.349H.116a5,5,0,0,1,0-1.863,3.487,3.487,0,0,0,.932-.466.873.873,0,0,0,.116.582c.233.233.233.233.582.116.233.233.233.233.233.7a1.163,1.163,0,0,0,.582-.466,4.777,4.777,0,0,0-.116-1.281h.582a2.194,2.194,0,0,0,.233-.932A4.715,4.715,0,0,0,1.4,26.072a.742.742,0,0,1,0-.7.7.7,0,0,1,.466.116c.582-.233.349-.7.582-1.048.116-.466,1.165-.815,1.631-1.048a2.781,2.781,0,0,0-.233-1.048c.233-.233.466-.7.7-.7V20.6a.7.7,0,0,1,.466.116c.116-.233.233-.349.233-.582.233-.116.349,0,.582-.116.349-.349,0-.582.582-.815,0-.233-.116-.466-.116-.7a4.172,4.172,0,0,1-1.281-.466c-.116-.116-.233-.233-.233-.349a1.249,1.249,0,0,1,.7-.233v-.116c0-.116,0-.116-.116-.233-.582.116-.582.349-1.281.466a.88.88,0,0,1,.116-.466.114.114,0,0,1-.116-.116c-.116.116-.116.116-.116.466a.7.7,0,0,1-.466-.116c0-.466.116-.582.466-.7v-.116a5.678,5.678,0,0,0-.815.349,1.451,1.451,0,0,0-1.281-.466l-.116-.116c0-.349.116-.349.233-.582s.116-.233.582-.233v-.349c-.116-.116-.233-.233-.349-.233-.466,0-.349,0-.466.349-.116,0-.233,0-.233.116H1.4v-.233a1.608,1.608,0,0,1,.466-.349l-.7-.349c0-.116-.116-.349-.116-.466.233-.349.116-.349.582-.466-.116-.233,0-.116-.116-.233-.233-.116-1.048-.116-1.4-.233A.114.114,0,0,0,0,12.911c.815-.233,1.863.233,2.446.116.466.466.932.466,1.165,1.048.233-.116.233-.116.116-.349.466-.466.7,0,1.281-.466.466.582.349.7.815.582-.116.349-.582.582-.7.932a1.608,1.608,0,0,1,.349.466,2.517,2.517,0,0,0,1.281-.116v.116c.116.116.116.233.116.466.233-.116.466-.116.582-.233v-.582a.873.873,0,0,1,.582-.116c.116.466.582.349.7.7a2.437,2.437,0,0,0,.7-.466c.116,0,.116.116.233.116-.116.7-.582,1.165.582.932-.116.466-.466.582-.7.932V17.1a1.477,1.477,0,0,1,.7.116,1.877,1.877,0,0,1,.466-.815c.233.233.349.349.233.7a2.437,2.437,0,0,0,.7-.466c-.233-.466-.233-.233-.582-.116a.873.873,0,0,1,.116-.582c-.233-.116-.466-.116-.582-.233v-.233a.428.428,0,0,1,.349.116c-.116-.233-.116-.466-.233-.582.116-.116.233-.116.233-.233.466.233.466.466.815.582,0,.116-.116.233-.116.349a1.29,1.29,0,0,0,1.048.815c.116-.233.233-.349.349-.582a.428.428,0,0,1-.349-.116c-.116-.116-.116-.233-.233-.233.116,0,.349-.116.466-.116a.873.873,0,0,1,.116-.582.985.985,0,0,1,.815,0,2.159,2.159,0,0,1,.233.815,2.741,2.741,0,0,1,.932-.233v-.7l.116-.116a1.968,1.968,0,0,0,.582.233c0,.349-.116.582-.116.932.349.116.466.116.582.582.349.116.7.116,1.048.233a3.224,3.224,0,0,1,.116-1.048,1.221,1.221,0,0,0-.466.349h-.233v-.233c.233-.233.116-.466.582-.582,0-.116,0-.233.116-.233v-.116a3.327,3.327,0,0,0-1.863-.116c.116-.116.116-.349.233-.466a1.477,1.477,0,0,0-.7.116.114.114,0,0,0-.116-.116c.233-.116.349,0,.582-.349a.605.605,0,0,0-.466-.233.7.7,0,0,1,.116-.466c.582,0,.349,0,.7-.349a2.989,2.989,0,0,1,.582.233c.116.233.233.233.116.582.116.349.233.349.582.466a6.46,6.46,0,0,0,.932-.7c0-.466-.116-.349-.233-.582.116-.116.233-.233.349-.233v-.233a13.439,13.439,0,0,1-3.028.116c0-.7-.466-.466-.932-.815,0-.116.116-.233.116-.349.349-.116.582-.116.932-.233-.116-.349-.349-.7-.466-1.048V9.767c.7.116.7.466,1.514.466,0-.233-.116-.349-.116-.582a1.265,1.265,0,0,0-1.048-.466c.116-.233.116-.233.349-.349a.883.883,0,0,1-.233-.466.407.407,0,0,1,.116-.233.114.114,0,0,1,.116.116c.349-.116,1.281,1.165,1.281,1.747a.88.88,0,0,0,.466-.116c-.116-.233-.233-.233-.349-.466A.114.114,0,0,1,17,9.3c.116.116.116,0,.116.233h.233c-.116-.349-.116-.233-.349-.466V8.835h.582V8.719c-.116-.233,0-.116-.349-.233V8.02h.582V7.787c-.116-.116-.116-.233-.233-.466H17.47c-.116.116-.233.116-.349.233V8.02C16.422,8.136,16.305,7.9,15.723,7.9Zm5.823-6.056c.349,0,.349-.116.7-.233h.116a.428.428,0,0,1-.116.349,1.707,1.707,0,0,1-.233.466h-.233a2.029,2.029,0,0,0-1.4-.932V1.381c.116-.233.116-.233.466-.233A3.953,3.953,0,0,1,21.546,1.847Zm1.048.466L22.478,2.2h.116Zm17,1.048a1.655,1.655,0,0,0,.7.233l.233-.233c.233.116.233.233.349.233a7.424,7.424,0,0,1-.233.815v.116c-.349-.116-.466-.466-.7-.7-.466,0-.466,0-.582.466-.466-.116-.7-.815-.815-1.281a.605.605,0,0,0,.233-.466c.349.116.349.349.815.349C39.6,3.128,39.6,3.245,39.6,3.361ZM23.876,3.128h0V2.779h.233C24.109,2.9,23.992,3.012,23.876,3.128Zm-2.912-.116v.582c-.349.116-.349-.116-.815-.116,0,.116,0,.233-.116.233H20.5a1.05,1.05,0,0,1,.116.582c.349-.116.466,0,.815.233.7,0,.233-.582-.116-.7.116-.233,0-.116.233-.233-.116-.349-.233-.233-.233-.7A.428.428,0,0,1,20.964,3.012Zm12.229.349h0c0-.116.116-.116.116-.233A.407.407,0,0,1,33.193,3.361ZM37.5,3.71a.7.7,0,0,1-.116.466,4.856,4.856,0,0,1-.7-.233V3.361a.428.428,0,0,0,.349-.116C37.269,3.361,37.386,3.594,37.5,3.71Zm9.55-.116a1.05,1.05,0,0,1-.116.582c.582-.116.7.116.932.466.116-.116,0-.116.349-.233V4.293c-.466-.349-.582-.349-.815-.932C47.286,3.361,47.169,3.478,47.053,3.594ZM36.1,3.827c0,.116,0,.233-.116.233a.7.7,0,0,1-.466-.116c.116-.233.116-.349.349-.466C35.988,3.594,35.988,3.71,36.1,3.827Zm-14.093.7a.114.114,0,0,1,.116-.116Zm3.145.116H25.04v.233a.428.428,0,0,0,.349-.116V4.526C25.273,4.642,25.273,4.642,25.157,4.642Zm23.177.233c-.116-.116-.233-.116-.466-.233h-.116v.466a.7.7,0,0,1,.466.116A.428.428,0,0,0,48.334,4.875Zm-12.346.116.233-.233C35.988,4.875,36.1,4.759,35.988,4.992Zm9.317.7c.466-.116.349-.349.932-.233a1.266,1.266,0,0,0,.116-.582A2.536,2.536,0,0,0,45.306,5.69ZM31.8,4.875a.407.407,0,0,1-.116.233,1.05,1.05,0,0,1,.582.116c0-.116,0-.233.116-.233-.116,0-.233,0-.233-.116Zm4.426.349c-.116.116-.116,0-.116.349.116.116.349.233.466.466,0-.116,0-.233.116-.233.116-.116,0-.349-.116-.7C36.338,5.108,36.338,5.108,36.221,5.225Zm-1.631,0c-.116.349-.116.582-.233.932v.233c.466-.116.466,0,.932.116a3.117,3.117,0,0,0-.233-1.281Zm7.337.233.116.116a.407.407,0,0,1,.116-.233A.407.407,0,0,0,41.928,5.457Zm-25.739.466v.233c-.349,0-.582.116-.932.116-.116-.349,0-.233-.466-.233V5.923a1.891,1.891,0,0,1,1.048-.582C16.072,5.574,16.072,5.807,16.189,5.923Zm31.33-.349h0V5.69c.349.116.466.116.7-.116Zm-23.41,0h0l.233.233V5.574Zm7.454.233h.116V5.574C31.563,5.69,31.679,5.574,31.563,5.807ZM26.205,5.69c.116.233,0,.233.233.349.116-.116.349-.116.466-.233V5.574C26.671,5.574,26.438,5.69,26.205,5.69Zm8.851.233-.116-.116h.116Zm10.133,0a.909.909,0,0,0-.466.466v.116h.233l.349-.349V5.923Zm1.165,0c0,.116,0,.233.116.233,0,.116,0,.116-.116.233a.909.909,0,0,0,.466-.466ZM41.462,7.088c.349.116.233,0,.466.233.116,0,.116,0,.233-.116-.233-.233-.233-.466-.349-.7A.538.538,0,0,0,41.462,7.088Zm4.775-.349c0,.116,0,.233-.116.233.116.116.349.116.466.233h.349V6.972a1.608,1.608,0,0,1-.349-.466C46.47,6.622,46.354,6.622,46.237,6.739Zm-1.863-.116h-.116a.7.7,0,0,0,.7.349.114.114,0,0,1,.116-.116c-.116-.116-.116-.233-.233-.233Zm-9.55-.116v.233c.233-.116.116,0,.233-.116-.116,0-.116,0-.233-.116Zm1.747.349v.233c.233-.116.116,0,.233-.116-.116-.116-.116-.116-.233-.116Zm3.494,0c0,.116.116.349.116.466h.349a.883.883,0,0,1-.233-.466Zm2.8.349c0,.116,0,.233-.116.233a1.477,1.477,0,0,1,.7.116V7.437h.116c-.116-.116-.116-.233-.233-.233C43.209,7.088,43.093,7.2,42.86,7.2Zm-7.92,0V7.67c.349-.116.233-.116.233-.466Zm4.193,0c0,.233.116.233.233,0Zm.466.116h0c0,.116,0,.233.116.233h.233V7.321Zm4.193,1.165.233.233a.7.7,0,0,1,.466.116c-.116-.349-.116-.466.233-.582-.116-.233-.116-.466-.233-.582A2.526,2.526,0,0,0,43.792,8.486ZM22.828,8.02c.233-.116.116,0,.233-.116h.116a.9.9,0,0,0-.233-.349C22.711,7.67,22.828,7.67,22.828,8.02Zm19.683,0h.116V7.787C42.51,7.9,42.51,7.787,42.51,8.02ZM36.8,7.9c.233-.116.116,0,.233-.116C36.8,7.787,36.92,7.67,36.8,7.9ZM32.261,7.67c0,.116.116.233.116.466.233-.116.349-.116.466-.466Zm-7.57.116c0,.116-.116.233-.233.349h.233c0-.116.116-.233.116-.349ZM18.518,7.9v.466c.116,0,.116,0,.233-.116.116.116.116.233.233.233a2.436,2.436,0,0,0-.7.466c0,.116,0,.116.116.233.233-.233.582-.466.815-.7a2.546,2.546,0,0,0-.349-.582Zm-6.056.116h0c.233,0,.233.116.349.233v.582a5.044,5.044,0,0,0-.582.116H11.88a1.05,1.05,0,0,0-.116-.582C12.346,8.486,12.462,8.369,12.462,8.02Zm29.816.233a.407.407,0,0,0-.233.116c.116.116.349.233.466.466h.466a.114.114,0,0,1,.116-.116,1.608,1.608,0,0,1-.349-.466Zm-18.285,0V8.6h.116V8.253Zm16.072.582V8.6h-.116V8.486c-.349.116-.233,0-.233.466C39.715,8.835,39.948,8.835,40.065,8.835ZM19.334,8.719h0c.116.233.233.233.349.466h.233c-.116-.349-.116-.349-.233-.466ZM14.209,9.3c-.116.582-.349.349-.233.932h-.233c0-.466-.349-.466-.7-.7.116-.233.233-.233.233-.582.233,0,.466-.116.7-.116Zm10.948-.116c-.116-.116-.116-.233-.233-.466-.233,0-.349.116-.582.116-.116,0-.116.116-.233.116,0,.233.116.466.116.7.349-.116.7-.116,1.048-.233h.116V9.068C25.39,9.184,25.273,9.184,25.157,9.184Zm9.783-.116a.114.114,0,0,1,.116-.116C34.824,9.068,34.94,9.068,34.94,9.068Zm10.948.815v.233c-.233.116-.116,0-.233.116-.233-.116-.466-.349-.7-.466.116-.116.116-.233.116-.582C45.539,9.3,45.422,9.65,45.888,9.883ZM17.7,9.65c-.116.233-.233.349-.349.582v.233c.116,0,.233,0,.233.116.116-.349,0-.233.233-.349a.7.7,0,0,0,.116-.466C17.936,9.65,17.819,9.65,17.7,9.65Zm7.57.349h0a1.05,1.05,0,0,0,.582.116c0-.116.116-.233.116-.466A1.007,1.007,0,0,1,25.273,10Zm23.876-.116a1.05,1.05,0,0,1-.116.582c.233-.116.233-.233.349-.582Zm-22.711.349a.82.82,0,0,0-.466.582h.349a2.546,2.546,0,0,1,.349-.582Zm-8.619.116v.233c.116-.116.116,0,.233-.233Zm33.193,1.165c.466.116.582,0,.7-.466-.349-.116-.349-.116-.582,0-.116-.116-.116-.116-.116-.466a.114.114,0,0,1-.116-.116c-.233,0-.349.116-.582.233l-.116.116h.116c.116.116.349.116.7.116ZM19.45,10.582v.233l.233-.233ZM26.9,10.7v.349c0,.116.116.116.116.233.233-.116.116,0,.233-.233-.233-.116-.116,0-.233-.233C27.02,10.7,27.02,10.7,26.9,10.7Zm22.129.233h.233a.114.114,0,0,0-.116-.116Zm-6.988,0a.407.407,0,0,1,.233.116c0-.116,0-.233-.116-.233Zm-13.86.233a.114.114,0,0,1-.116.116v.233H28.3a.428.428,0,0,1,.116-.349Zm-8.619,0c-.116.233-.116.466-.233.7a5.044,5.044,0,0,0,.582-.116c0-.116.116-.116.116-.233-.116-.116-.233-.233-.233-.349Zm-3.145.233h0c.116.116.116.116.233.116v-.233C16.538,11.281,16.538,11.281,16.422,11.4Zm-.582-.116v.466c.116,0,.233-.116.349-.116a.407.407,0,0,0-.116-.233A.361.361,0,0,0,15.84,11.281Zm20.964.466h.116c0-.116.116-.233.116-.349C36.8,11.514,36.8,11.4,36.8,11.747ZM50.2,11.63a.114.114,0,0,1-.116-.116,1.05,1.05,0,0,0-.582.116v.233a1.477,1.477,0,0,1,.7.116Zm-21.9.233c.233-.116.116,0,.233-.116C28.3,11.747,28.418,11.63,28.3,11.863Zm20.731.233c.233-.116.116,0,.233-.116C49.033,12.1,49.149,11.98,49.033,12.1Zm6.872.116-.116-.116H55.9Zm-32.96,0c0,.116-.116.116-.116.233v.116a1.477,1.477,0,0,0,.7-.116v-.233Zm30.4.349-.116-.116h.116ZM29,12.678c.233-.116.116,0,.233-.116C29,12.562,29.117,12.562,29,12.678Zm-1.747-.116a1.477,1.477,0,0,0,.116.7H27.6v-.7Zm21.779,0v.233a.428.428,0,0,1,.349.116v-.233A.428.428,0,0,0,49.033,12.562Zm-16.888,0v.466h.116c.116-.116.116-.116.233-.466Zm-11.3.116c-.116.116-.233.349-.466.466.233-.116.116,0,.233-.116.349-.116.349-.116.466-.466C20.848,12.678,20.964,12.562,20.848,12.678Zm3.145,0c0,.116,0,.116.116.233,0-.116.116-.116.116-.233Zm1.863.233a1.05,1.05,0,0,0,.116.582c.582,0,.582.233.932.349.116-.116.116-.349.233-.466a.873.873,0,0,1-.582-.116.428.428,0,0,1,.116-.349Zm21.546.233h.116v-.233C47.4,13.028,47.519,12.911,47.4,13.144Zm-25.856-.233a.114.114,0,0,0,.116.116.114.114,0,0,1,.116-.116Zm28.185.466c0,.116,0,.116.116.233.233-.116.233,0,.349-.349A.7.7,0,0,0,49.731,13.377Zm-27.6.116h.116v.116h.233c0-.116-.116-.233-.116-.349C22.129,13.377,22.245,13.377,22.129,13.494Zm-4.892,0-.116-.116h.116Zm2.1,0c.233,0,.116.116.233-.116C19.566,13.494,19.45,13.494,19.334,13.494Zm.349.349v.349H19.8c.116-.116.116-.116.233-.466A.9.9,0,0,1,19.683,13.843Zm22.362.116c.233,0,.116.116.233-.116C42.161,13.96,42.161,13.96,42.045,13.96Zm-17.354-.116h0c0,.116.116.116.116.233h.349v-.233Zm25.04.116c.116.233,0,.116.116.233,0-.116,0-.116.116-.233Zm-9.783.233a.114.114,0,0,1,.116-.116C39.948,14.076,39.948,14.076,39.948,14.192ZM.932,14.076c-.116.233-.349.233-.7.233H.116c.116-.116.116-.233.233-.349H.815C.815,14.076.815,14.076.932,14.076Zm2.912.815c.116.116.466.116.815.116-.116-.349-.233-.349-.349-.582C3.96,14.542,3.96,14.658,3.843,14.891Zm15.607-.233c.233.116.233.116.466-.116C19.683,14.542,19.566,14.658,19.45,14.658Zm46.7,1.048a.114.114,0,0,0-.116.116c-.349-.116-.582-.349-.932-.466.233-.233.466-.233.932-.233A.873.873,0,0,1,66.153,15.707Zm-1.514-.466h-.233v-.233h.582C64.872,15.124,64.756,15.124,64.639,15.241Zm-46.587-.116c.116.349.116.349.582.466v-.466Zm43.093.116a.715.715,0,0,0,.116.7c-.116.116-.233.116-.233.233.116.349.116.233.582.233-.116-.349-.233-.349,0-.582.116-.233.116-.116.466-.116-.116-.349-.116-.466-.349-.582A5.044,5.044,0,0,0,61.145,15.241Zm-59.864.116-.116-.116h.116Zm23.41-.116v.349a1.05,1.05,0,0,1,.582.116c0-.116,0-.116.116-.233-.116-.116-.233-.116-.466-.233Zm3.145.582c.116,0,.116,0,.233.116a.428.428,0,0,1,.116-.349.114.114,0,0,1-.116-.116C27.836,15.59,27.836,15.474,27.836,15.823Zm2.679.466a1.05,1.05,0,0,1-.116.582,4.086,4.086,0,0,0,.932.582c.233-.116.116,0,.233-.233-.233-.233-.233-.349-.7-.349v-.582Zm-6.173.233a.717.717,0,0,1-.116.815c.116.349.116.233.349.349a1.261,1.261,0,0,1,.116-.7c-.116-.116-.116-.349-.233-.466Zm1.747,0a.873.873,0,0,1-.116.582c.116,0,.233,0,.233.116a1.477,1.477,0,0,1,.116-.7Zm-3.494.466a.114.114,0,0,1,.116-.116C22.478,16.988,22.595,16.988,22.595,16.988Zm1.165,0v.233l.116.116h.233c0-.116,0-.233.116-.233a.114.114,0,0,1-.116-.116Zm-12.113,0V17.1h.466v-.233C12,16.988,11.88,16.988,11.647,16.988Zm49.382,0a.114.114,0,0,0,.116.116.114.114,0,0,1,.116-.116ZM13.044,17.1a.114.114,0,0,0-.116.116l.116.116.116.116c.116-.233.116-.116.233-.349Zm44.84.7.233.233h.116c.116-.466.116-.582-.116-.815C58,17.454,58.117,17.57,57.884,17.8Zm-47.635-.349h.116v-.233C10.249,17.454,10.249,17.337,10.249,17.454Zm.932-.116c-.116.233,0,.116-.233.233V17.8h.582a.428.428,0,0,0-.116-.349C11.414,17.337,11.3,17.337,11.181,17.337Zm-3.61.116c.116.233,0,.233.233.349l.116.116V17.8c.233-.116.116,0,.233-.233l-.116-.116Zm52.41.116h0c0,.116,0,.233.116.233s.116,0,.233-.116c0-.116,0-.116-.116-.233A.361.361,0,0,1,59.981,17.57ZM9.317,17.8c.116.349.233.349.582.466,0-.116-.116-.233-.116-.466-.233-.116-.116,0-.233-.116C9.55,17.8,9.434,17.8,9.317,17.8Zm49.848,0c0,.116,0,.233-.116.233.116.116.233.116.233.233h.233l.116-.116v-.233A.407.407,0,0,1,59.4,17.8Zm-11.647.349a.407.407,0,0,1,.233.116.407.407,0,0,1,.116-.233A.428.428,0,0,1,47.519,18.152Zm-21.9.116c.233-.116.116,0,.233-.116C25.623,18.269,25.739,18.152,25.623,18.269Zm33.542.349a.873.873,0,0,0,.116.582c.116.116.116.116.349.116a1.477,1.477,0,0,1,.116-.7V18.5c-.116,0-.233-.116-.466-.116C59.282,18.5,59.282,18.618,59.165,18.618Zm-1.514,0v.233c.349-.116.116,0,.233-.233Zm1.98,1.048c.233.116.233.116.349-.116A.428.428,0,0,1,59.631,19.666Zm-3.727.116a1.477,1.477,0,0,1-.116.7c.116,0,.233,0,.233.116.233-.233.116-.116.349-.233l.233-.233a1.707,1.707,0,0,0-.233-.466C56.137,19.666,56.021,19.783,55.9,19.783Zm.815,1.4c.233,0,.466-.116.7-.116v-.116a1.655,1.655,0,0,0-.7-.233Zm1.165-.466v.233c.349-.116.116,0,.233-.233Zm-1.98.349h.116v-.233C55.9,20.948,56.021,20.831,55.9,21.064Zm.349-.116v.116a.407.407,0,0,1,.233.116.114.114,0,0,0,.116.116h.116c-.116-.116-.116-.233-.233-.466A.361.361,0,0,1,56.254,20.948Zm2.1.582c.233-.116.233,0,.349-.233C58.35,21.3,58.466,21.3,58.35,21.53Zm-28.767.116.233-.233C29.583,21.53,29.7,21.53,29.583,21.646Zm25.506.233a.114.114,0,0,1,.116-.116C54.972,21.763,55.089,21.763,55.089,21.879ZM14.209,34.574h.116v-.233C14.209,34.458,14.209,34.341,14.209,34.574Zm-.349.815v.582h.116a1.05,1.05,0,0,1,.116-.582ZM47.4,37.369a.883.883,0,0,0-.233.466V38.3c.116,0,.349-.116.466-.116.233.349,0,.582-.233.932.116.233,0,.116.116.233.116.349.349.349.7.582h.466v-.116l-.466-.466c0-.466,0-.815.233-.932-.116-.349-.233-.349-.582-.466a1.968,1.968,0,0,1-.233-.582Zm3.261.233c-.233.116-.116.116-.233-.116h-.466c-.116.582-.466,1.165-.582,1.631.116,0,.233.116.349.116.116-.233.349-.349.466-.582a.88.88,0,0,1-.466-.116V38.3c.582,0,.7-.233,1.048-.466a1.05,1.05,0,0,1,.116-.582C50.78,37.486,50.9,37.369,50.663,37.6Zm3.261-.116c-.233.466-1.165.7-1.514,1.165V39c.582.116,1.281-.233,1.4,0,.7-.349.349-.932.233-1.514ZM31.8,37.835c-.116,0-.116.116-.233.116a5.846,5.846,0,0,1,.233,1.4c-.116.233-.349.233-.582.349.116,1.165.582,1.4.582,2.912.932.815,1.281,1.631,2.213,2.562l3.494,2.8c.815-.932-.815-2.446-.932-3.378a.88.88,0,0,1-.466-.116c-.466-.932-.349-2.562-.7-3.843-.233-.932-.815-1.514-.932-2.8h-.116c-.466.233-.466.582-.932.815-.466-.233-.582-.582-1.4-.582v-.233Zm-4.892.932c0,.349.116.7.116,1.048a18.246,18.246,0,0,0,3.261.7H30.4v-.233a5.483,5.483,0,0,0-1.747-1.514,4.953,4.953,0,0,0-1.281-.233A.883.883,0,0,1,26.9,38.767Zm29.117,1.165c.7.7,1.747-.233,2.562-.466a4.088,4.088,0,0,0-2.1-.7C56.487,39.582,56.254,39.582,56.021,39.932Zm-3.261-.7c-.7.116-.7.582-.7,1.514a.865.865,0,0,0,.7-.7h.233a2.585,2.585,0,0,1-.582,1.281l.466.466a1.117,1.117,0,0,0,1.048-.233l1.048,2.8h.233l.349-.349a7.661,7.661,0,0,0-.466-3.261,1.163,1.163,0,0,0-.582.466H54.39V40.63c.116,0,.233-.116.466-.116V39.466C54.041,39.349,53.109,39.815,52.76,39.233Zm-8.735.932a5.677,5.677,0,0,0-1.281.466c-.233-.349-.116-.932-.233-1.048l-.116-.116c-1.281.116-1.281,1.4-1.514,2.1h-.233v-.7h-.116c-.349.349-.7.233-1.165.582-.466.233-.815,1.281-1.281,1.631,0,2.562,1.048,3.843,1.048,5.94,0,.116.116.116.116.233,1.863-.116,3.96,0,5.357-.466.815-.233,1.281.466,1.514-.466h.233c.116.233.233.349.233.582.349.233,1.048-.233,1.4-.233.582-.116,7.1-.349,7.337-.116h.233c-.233-2.8-2.8-5.94-4.892-7.1H48.916l-.349-.349a2.564,2.564,0,0,0-.932.116c-.349-.116-.582-.815-1.048-1.048-.815-.349-1.281-.116-1.747-.582A.576.576,0,0,0,44.025,40.165Zm16.771.116a6.651,6.651,0,0,0-3.378-.116c0,.116,0,.233-.116.233.116,0,.116.116.233.116v.233c-.582.116-.932.233-1.4.349-.466,1.048.582,2.8-.349,3.843a21.86,21.86,0,0,0,1.4,3.494,3.14,3.14,0,0,0,.932-.815c.233.116.233.116.349.466.582,0,1.048-.233,1.165,0,.233-.116.116,0,.116-.233h1.747a33.74,33.74,0,0,1-.116-6.872c-.116-.116-.233-.116-.233-.233-.116-.116-.116-.116-.466-.116A.428.428,0,0,0,60.8,40.281Zm-10.715-.116c.116.233.233.349.466.233.116-.116.116-.116.116-.349A5.045,5.045,0,0,0,50.081,40.165Zm12.113.582v.116a.407.407,0,0,1,.233.116c-.233,1.747.233,4.659.233,6.522a14.337,14.337,0,0,0,2.329.233c.116-.116.116-.233.233-.233-.349-.932-.582-1.863-.932-2.912-.233-.932.349-2.329-.116-3.028-.349-.582-1.048-.349-1.4-.7A.873.873,0,0,0,62.193,40.747Zm-24.924,0c-.116,0-.116.116-.233.116,0,.466.116.932.116,1.4.349-.116.466-.349.7-.7V41.1c-.233.116-.116,0-.233.233h-.466a1.655,1.655,0,0,0,.233-.7A.114.114,0,0,1,37.269,40.747ZM76.519,51.462l-.116-.116h.116Z" transform="translate(1168.798 2219.05)"/>
      <path id="Path_10645" data-name="Path 10645" class="cls-6" d="M-.292,91.658h10.3V88.587c.082,0,.136-.027.217-.027.326.707.679,1.44,1.087,2.337.9-.815,1.631-1.468,2.365-2.12.136-.109.326-.245.353-.408.245-1.576.489-3.153.679-4.756.082-.707.136-1.413.19-2.392.679,1.114,1.169,1.9,1.576,2.555,1.631-1.495,3.588-2.582,4.376-4.24.679-1.413,1.495-3.289.734-5.137a1.782,1.782,0,0,1,.788-2.31c.245,1.033.462,2.011.761,3.37,1.223-1.576,2.31-2.854,3.261-4.213,2.174-3.126,4.321-6.278,6.387-9.485a78.366,78.366,0,0,0,4-6.822,8.657,8.657,0,0,0,.571-3.153c.163-1.9.245-3.832.353-5.735h.38v7.094a2.056,2.056,0,0,1,.408.027c.109-1.44.217-2.908.326-4.349h.435a54.889,54.889,0,0,1-.054,5.6,6.012,6.012,0,0,0,.734,3.859c2.12,3.642,4.05,7.42,6.17,11.089,1.277,2.256,2.718,4.43,4.158,6.713.516-.38.951-.652,1.359-.951-1.2-1.549-1.2-1.549,0-2.392,1.006-8.181,2.12-16.253,1.6-24.433h.652a21.488,21.488,0,0,1,.163,2.283c-.163,4.376-.381,8.724.516,13.073.19.978.815,2.12-.027,3.153a.688.688,0,0,0,0,.408c.326,1.495.707,2.99,1.006,4.484a2.529,2.529,0,0,1-.19.9c1.2,1.141,1.223,1.25,0,2.528.707,1.141,1.468,2.283,2.093,3.506.136.272-.136.924-.381,1.223-.734.9-.679,1.468.3,2.066a17.049,17.049,0,0,1,1.6,1.141c1.495,1.2,1.93,1.087,2.772-.652.054-.109.163-.19.353-.462v2.392c.353-.272.6-.435.788-.571v6.713c3.234,0,6.468.027,9.7,0,.951,0,1.3-.652,1.277-1.549-.027-.489,0-.978,0-1.6-1.359.326-2.636.625-3.914.951-.109-.136-.217-.3-.326-.435,1.495-1.6,3.017-3.207,4.566-4.838V93.071c1.033-.408,1.957-.761,2.854-1.087a3.406,3.406,0,0,0-.326.788,2.63,2.63,0,0,0-.027,1.033.876.876,0,0,0,.571.163,2.124,2.124,0,0,0,.381-.788c2.093-7.556,1.631-15.329,2.174-23.02a34.671,34.671,0,0,1,.516-5v1.468c0,4.675-.027,9.322.027,14,.054,2.8.272,5.6.408,8.4,0,.054-.027.109,0,.136.109.19.245.544.353.544,1.631.027,1.6,3.044,3.7,2.038a1.9,1.9,0,0,0,.707-1.223A6.755,6.755,0,0,1,85.7,89.1c.245.516.489,1.006.707,1.413,2.555-.707,3.452-2.392,3.642-4.974.3-4.158,1.033-8.262,1.522-12.393.109-1.006.353-2.419-.163-2.99a4.161,4.161,0,0,1-.843-2.31,2.674,2.674,0,0,1,.136-1.44,5.817,5.817,0,0,0,2.419,4.7c1.359.978,3.343,1.087,5.245,1.658.163-1.033.326-1.712.38-2.419a20.655,20.655,0,0,0-.136-2.12,3.035,3.035,0,0,1-.625-3.723,20.589,20.589,0,0,0,.87,3.071c1.087,2.337,3.316,2.935,5.6,3.234,1.658.217,3.343.381,5,.435.353,0,1.06-.516,1.033-.788-.054-1.468.544-3.017-.679-4.321-.625-.679-.353-2.691.3-3.642-.435,2.935,1.223,4.593,3.424,6.305.353-1.93.87-3.588-.489-5.164-.707-.843-.571-2.854.19-3.914-.788,2.854,1.522,4.131,2.528,6.115.326-.217.408-.3.516-.353,1.9-.978,2.174-2.691,2.174-4.62,0-.6.652-1.169.951-1.767.163-.326.408-.788.3-1.06-.571-1.44-.082-2.8.163-4.213.3-1.631.245-3.316.38-4.974.245-3.289.435-6.577.843-9.866a6.527,6.527,0,0,1,1.522-2.772c.571-.761,1.277-1.359.516-2.337a.713.713,0,0,1-.136-.516,32.09,32.09,0,0,1,.978-4.1c-.245,1.794,1.495,3.316.544,5.218a1.243,1.243,0,0,0,.272.978c2.256,2.229,2.12,5.164,2.392,7.99.245,2.582.462,5.191.679,7.773.19,2.31.38,4.593.571,6.9a1.369,1.369,0,0,0,.326.87c1.169,1.087,1.114,2.419.9,3.8a1.11,1.11,0,0,0,.054.788c.761,1.2,1.576,2.337,2.663,3.887.38-2.038.707-3.7,1.06-5.544v3.261c1.277-.951.951-2.011.707-3.126a2.774,2.774,0,0,1,.027,3.424c-.761,1.006-.544,3.261.435,3.887a.917.917,0,0,0,.815-.054,2.614,2.614,0,0,0,.217-1.359c-.109-.815-.353-1.6-.544-2.419l.408.163a7.387,7.387,0,0,0,1.794-1.631c.217-.353-.027-1.141-.3-1.6a2.086,2.086,0,0,1,.843-2.772,3.131,3.131,0,0,0,1.06-1.712,50.4,50.4,0,0,0,1.087-5.273c.272-1.93.272-3.914.516-5.843a230.042,230.042,0,0,0,1.413-27.015c.027-1.277,0-2.555,0-3.832.19,0,.408-.027.6-.027V18.33c0,.408-.109.815-.082,1.223.054,6.686,0,13.4.245,20.085.136,3.7.761,7.393,1.2,11.089.272,2.174.571,4.376.9,6.55.163,1.06.082,2.256,1.6,2.691.326.109.3,1.6.3,2.473a20.443,20.443,0,0,1-.245,2.256c2.066.217,2.473.9,2.093,2.745a10.787,10.787,0,0,0-.136,1.9c.924.217,1.685.19,1.93.544a3.849,3.849,0,0,1,.435,1.957,7.938,7.938,0,0,0,.027,1.957c.217-.217.462-.408.571-.516.571.19,1.2.625,1.495.462.435-.217.679-.87.9-1.386A23.647,23.647,0,0,0,154.435,70c.245-.9.435-1.821.652-2.745a1.4,1.4,0,0,0,.082-.652,2.154,2.154,0,0,1,1.413-2.745c-.272-.435-.544-.788-.734-1.169a1.517,1.517,0,0,1,.815-2.256c2.365-.843,2.229-.815,1.522-3.289a2.9,2.9,0,0,1,.571-2.962,7.876,7.876,0,0,0,1.25-2.962c.353-1.087.6-2.229.843-3.343.3-1.495.516-3.044.788-4.539.3-1.794.652-3.56.951-5.327a195.113,195.113,0,0,0,2.582-23.183c.136-3.424.435-6.876.625-10.3.054-.924-.163-1.875-.136-2.827,0-.3.408-.6.625-.9.245.245.679.489.679.761.19,3.207.3,6.387.435,9.594.054,1.033.109,2.093.217,3.126.571,5.055,1.06,10.11,1.739,15.138.544,4,1.44,7.963,1.93,11.959a47.654,47.654,0,0,0,1.658,6.795c.435,1.576.734,3.207,1.169,4.783a28.807,28.807,0,0,1,1.114,2.99,9.591,9.591,0,0,1-.489,2.691c.761.136,1.386.245,1.984.326,1.522.217,1.93.951,1.3,2.365-.19.408-.435.761-.761,1.332,2.256.462,1.6,2.2,1.767,3.615.571,5.082,1.141,10.165,1.848,15.22a16.293,16.293,0,0,0,1.386,3.479,11.84,11.84,0,0,1,.3,1.413,27.194,27.194,0,0,0,1.277,4.675c2.691-2.935,2.147-6.6,2.718-10.056.082.353.163.734.217,1.087.326,2.12.6,4.267,1.033,6.387.109.544-.3,1.794,1.114,1.495.054.245.109.489.163.843.3-.217.544-.38.6-.435.19.734.408,1.522.625,2.392,1.794-1.06,2.011-1.739,1.468-3.8a4.45,4.45,0,0,1-.054-1.984c.272.625.544,1.25.951,2.2,1.033-1.984,2.038-3.642,2.8-5.409,1.033-2.31,1.957-4.675,2.772-7.066a3.585,3.585,0,0,0-.19-2.12,5.228,5.228,0,0,1-.136-3.4c.3,1.169.571,2.337.951,3.479a1.637,1.637,0,0,0,.815.843c1.359.679,1.848.462,2.392-.978.489-1.277.843-2.473.054-3.859a2.685,2.685,0,0,1,.408-3.424c-.978,2.12.381,3.56,1.413,5.028a2.514,2.514,0,0,0,1.6.788c.217.027.625-.652.788-1.087.462-1.332,1.06-2.5-.109-4a3.27,3.27,0,0,1,.3-3.778c-.625,2.093.462,3.669,1.495,5.3a1.918,1.918,0,0,0,2.283.978q7.95-1.753,15.927-3.452c3.126-.679,6.278-1.413,9.4-2.038a5.994,5.994,0,0,0,5.028-4.349c.625-1.957,1.631-3.778.272-5.843a3.453,3.453,0,0,1,1.033,4.539,4.393,4.393,0,0,0,.109,4c.3.761.625,1.495.978,2.283a5.53,5.53,0,0,0,4.158-4.077c.652-1.875,1.685-3.642.163-5.653,1.386.761,2.093,3.4,1.223,4.539a2.768,2.768,0,0,0-.435,2.528c.163.761.326,1.495.489,2.256.136.516.3,1.033.462,1.522,3.669.815,7.365-4.811,6.224-9.621.245.408.707.788.734,1.2.027,1.3.462,2.636-.489,3.914a2.83,2.83,0,0,0-.109,2.31c2.337,5.762,4.783,11.5,7.2,17.258a5.016,5.016,0,0,0,.625-.109c.163-.788.326-1.576.571-2.8a7.378,7.378,0,0,1,.435,1.875,15.408,15.408,0,0,1-.272,2.745,19.094,19.094,0,0,1-.815,2.365c3.56,1.794,7.338,3.7,11.116,5.626.163.082.408.054.489.19.978,1.114.978,1.114,2.528.734v12.23H-.4C-.292,100.192-.292,95.925-.292,91.658Z" transform="translate(1174.403 2170.451)"/>
    </g>
    <g id="Group_3749" data-name="Group 3749" transform="translate(0 0.381)">
      <path id="Path_10575" data-name="Path 10575" class="cls-7" d="M707,34.949s3.43,1.361,4.628,3.757a54.984,54.984,0,0,1,.272-6.288c.3-1.552,1.2-3.838,1.906-4.247a2.137,2.137,0,0,0,1.089.544,3.8,3.8,0,0,0,2.586-1.579c1.089-1.225,7.132-3.212,9.827-2.94v7.241h.871V23.978a1.237,1.237,0,0,0,.272-.789c0-.844-.926-1.089-.926-1.089s-5.336,1.524-6.669,1.5-1.225-1.225-2.831-1.307a15.774,15.774,0,0,0-4.9.98A3.269,3.269,0,0,1,711,23.6c-1.307-.109-1.96-.109-2.069.272s3.212,1.579,3.24,2.287c0,0-1.035,1.252-2.232,2.5S707.6,34.05,707,34.949Z" transform="translate(5603.126 3674.535)"/>
      <path id="Path_10576" data-name="Path 10576" class="cls-7" d="M638.321,126.227h-1.47a13.683,13.683,0,0,1-1.388,5.063h0l-.082.082a3.573,3.573,0,0,1-.381.327h2.341a17.607,17.607,0,0,0,1.579-5.5A5.055,5.055,0,0,1,638.321,126.227Z" transform="translate(5655.526 3598.774)"/>
      <path id="Path_10577" data-name="Path 10577" class="cls-7" d="M78.479,114.415a22.4,22.4,0,0,1-10.97-3.131,15.875,15.875,0,0,0-1.851-.9,5.2,5.2,0,0,0-3.457-.218c7.84,7.622,21.124,9.392,23.983,9.691,4.873-1.007,14.782-3.185,20.144-5.444Z" transform="translate(6072.398 3610.585)"/>
      <path id="Path_10578" data-name="Path 10578" class="cls-7" d="M663.134,99.908h-.027c-.082-.027-.191-.027-.272-.054A5,5,0,0,1,661.2,99.2a16.732,16.732,0,0,1-12.631,7.3,25.524,25.524,0,0,1-1.47,5.526c11.678-.572,20.2-9.963,20.2-9.963C667.081,100.289,665.23,100.289,663.134,99.908Z" transform="translate(5646.72 3618.424)"/>
      <path id="Path_10579" data-name="Path 10579" class="cls-7" d="M182.348,126.3c-3.974,2.1-12.44,4.192-18.348,5.5H290.964a4.968,4.968,0,0,0,.436-.354c-4.328-.735-19.491-4.818-20.716-5.145Z" transform="translate(5998.311 3598.701)"/>
      <path id="Path_10580" data-name="Path 10580" class="cls-7" d="M567.4,126.3c6.724,1.8,16.224,4.219,18.266,4.437a13.463,13.463,0,0,0,1.143-4.437Z" transform="translate(5704.724 3598.701)"/>
      <path id="Union_565" data-name="Union 565" class="cls-8" d="M175.828,33.538H33.238a21.41,21.41,0,0,1-10.589-3.021,19.7,19.7,0,0,0-1.932-.926,5.839,5.839,0,0,0-4.219-.163c-.3-.626-.871-1.661-1.579-2.8-2.994-.871-3.484-2.912-3.484-2.912a5.535,5.535,0,0,0,2.068.816,17.162,17.162,0,0,0-2.341-2.641c-2.912-2.5-4.573-4.137-5.308-4.083s-.735.871-2.232,1.144a4.955,4.955,0,0,1-2.587-.436c.409,0,.844,0,1.253.027a4.872,4.872,0,0,0,2.259-.626,3.2,3.2,0,0,1,2.042-.463,4.044,4.044,0,0,1,1.959.816c.572.463,1.117,1.008,1.661,1.525l1.633,1.58c1.089,1.034,2.2,2.1,3.4,3.048-.517-.571-1.034-1.116-1.552-1.687l-1.552-1.687c-.518-.572-1.034-1.116-1.579-1.66A18.7,18.7,0,0,0,8.874,17.8a5.073,5.073,0,0,0-1.061-.6,3.359,3.359,0,0,0-1.171-.3,3.478,3.478,0,0,0-2.314.626,4.923,4.923,0,0,1-2.069.707A12.456,12.456,0,0,1,0,18.4a21.866,21.866,0,0,0,4.3-1.715c1.96-1.089,4.192.354,4.737.708a12.4,12.4,0,0,1,1.034.761h1.2s4.356,4.656,6.86,7.16L19.3,26.46a5.957,5.957,0,0,0,.49.408,32.974,32.974,0,0,0,8.684,3.947V11.188c-1.28-1.116-4.9-1.524-4.9-1.524.68-.109.952-1.144.952-1.144a7.109,7.109,0,0,1-3.892-.409,1.157,1.157,0,0,0,1.034-.734h-.816C19.491,7.35,18.32,5.717,18.32,5.717a19.24,19.24,0,0,1,5.635-1.253,11.73,11.73,0,0,0,4.519-1.143V1.851h.735V31.006a37.455,37.455,0,0,0,7.676,1.225h9.827V23.384h-2.75V20.607h2.75v-.844H44.726V16.987h1.987v-.762H45.3V13.8h1.415V12.794h-.979V10.481h.979V9.636h-.571V7.35h.544V4.028a.3.3,0,0,1,.6,0V7.35h.544V9.636h-.572v.844h.98v2.314h-.98V13.8h1.416v2.423H47.257v.762h1.987v2.75H47.257v.843h2.75v2.777h-2.75v8.874H64.326V23.384H61.576V20.607h2.749v-.844H62.339V16.987h1.987v-.762H62.91V13.8h1.416V12.794h-.98V10.481h.98V9.636h-.571V7.35H64.3V4.028a.3.3,0,0,1,.6,0V7.35h.545V9.636H64.87v.844h.98v2.314h-.98V13.8h1.416v2.423H64.87v.762h1.987v2.75H64.87v.843h2.75v2.777H64.87v8.874H81.939V23.384h-2.75V20.607h2.75v-.844H79.951V16.987h1.987v-.762h-1.58V13.8h1.58V12.794H80.714V10.481h1.225v-.6h-.9V7.6h.9V7h-.681V5.226h1.906V7h-.68v.6h.9V9.881h-.9v.6h1.225v2.314H82.483V13.8h1.579v2.423H82.483v.762H84.47v2.75H82.483v.843h2.75v2.777h-2.75v8.874h4.41v-.816h19v.816h6.424V23.384h-2.749V20.607h2.749v-.844h-1.987V16.987h1.987v-.762H110.74V13.8h1.579V12.794h-1.225V10.481h1.225v-.6h-.9V7.6h.9V7h-.68V5.226h1.905V7h-.68v.6h.9V9.881h-.9v.6h1.225v2.314h-1.225V13.8h1.579v2.423h-1.579v.762h1.987v2.75h-1.987v.843h2.75v2.777h-2.75v8.874h17.422V23.384h-2.749V20.607h2.749v-.844H128.3V16.987h1.987v-.762h-1.416V13.8h1.416V12.794h-.98V10.481h.953V9.636h-.572V7.35h.544V4.028a.3.3,0,0,1,.6,0V7.35h.544V9.636H130.8v.844h.979v2.314H130.8V13.8h1.415v2.423H130.8v.762h1.987v2.75H130.8v.843h2.749v2.777H130.8v8.874h16.769V23.384h-2.749V20.607H147.6v-.844h-1.987V16.987H147.6v-.762h-1.416V13.8H147.6V12.794h-.98V10.481h.98V9.636h-.572V7.35h.544V4.028a.3.3,0,0,1,.6,0V7.35h.544V9.636h-.572v.844h.98v2.314h-.98V13.8h1.416v2.423h-1.416v.762h1.987v2.75h-1.987v.843h2.749v2.777h-2.749v8.874h16.769V23.384h-2.749V20.607h2.749v-.844h-1.987V16.987h1.987v-.762H163.5V13.8h1.416V12.794h-.98V10.481h.98V9.636h-.572V7.35h.544V4.028a.3.3,0,0,1,.6,0V7.35h.545V9.636h-.572v.844h.979v2.314h-.979V13.8h1.415v2.423h-1.415v.762h1.987v2.75h-1.987v.843h2.749v2.777h-2.749V32.2H176.1s7.513.9,12.632-6.7l.87,1.034c-4.33,6.6-11.627,7-13.385,7C175.975,33.545,175.837,33.538,175.828,33.538ZM111.8,4.628V2.858h.517V.3a.3.3,0,1,1,.6,0V2.858h.518V4.628Zm-30.407,0V2.858h.517V.3a.3.3,0,1,1,.6,0V2.858h.518V4.628Z" transform="translate(6117.666 3690.619)"/>
      <path id="Path_10584" data-name="Path 10584" class="cls-9" d="M343.329,31.246V27.435a28.448,28.448,0,0,0-6.452-.735h-.926a30.168,30.168,0,0,0-6.452.735v3.811a34.969,34.969,0,0,1,6.887-.653A35.642,35.642,0,0,1,343.329,31.246Z" transform="translate(5877.863 3671.188)"/>
      <path id="Path_10585" data-name="Path 10585" class="cls-10" d="M315.833,28.482a14.433,14.433,0,0,1,1.552-.408V41.93h-1.007v.926h-1.034v.9h19v-.9h-1.034V41.93h-.98V27.965a18.47,18.47,0,0,1,1.987.517h1.906v-.9h-1.906V22.439h1.906v-.9h-1.906V20.506a29.069,29.069,0,0,0-9.256-1.334,30.017,30.017,0,0,0-9.255,1.334V21.54H313.9v.9h1.906v5.145H313.9v.9h1.933Zm14.373,6.043v1.116A42.408,42.408,0,0,0,328,41.9h-5.826a42.4,42.4,0,0,0-2.2-6.261V34.525c1.252-1.334,1.279-4.791,1.225-5.853h7.758C328.927,29.761,328.954,33.219,330.206,34.525Zm-12.822-6.452c.272-.054.572-.136.9-.191Zm14.047-.272v.245H318.283v-.163a35.387,35.387,0,0,1,14.074.109ZM317.384,21.3a29.543,29.543,0,0,1,7.268-.926h.926a29.68,29.68,0,0,1,7.268.926v5.472a34.5,34.5,0,0,0-15.408,0V21.3Z" transform="translate(5889.216 3676.674)"/>
      <rect id="Rectangle_4591" data-name="Rectangle 4591" class="cls-11" width="18.103" height="0.735" transform="translate(6205.021 3720.863)"/>
      <path id="Union_566" data-name="Union 566" class="cls-12" d="M10.653,20.607a2.2,2.2,0,0,1,.218-1.062V18.538a4.3,4.3,0,0,1-2.423-.925v1.416a2.134,2.134,0,0,1,.19.925c0,.653-.19,1.171-.463,1.171s-.463-.517-.463-1.171a2.133,2.133,0,0,1,.191-.925V16.96a.249.249,0,0,1,.081-.191l2.5-2.668a7.284,7.284,0,0,0-5.117-3.049C1.914,10.862-.154,9.12.009,6.588A3.719,3.719,0,0,1,1.724,3.321,16.662,16.662,0,0,1,9.537,9.5,11.855,11.855,0,0,1,11.47,13.72l2.994,3.022a.245.245,0,0,1,.082.191v2.123a2.133,2.133,0,0,1,.191.925c0,.653-.191,1.171-.464,1.171s-.463-.517-.463-1.171A2.133,2.133,0,0,1,14,19.056v-1.47a4.909,4.909,0,0,1-2.586.952v1.007a2.212,2.212,0,0,1,.218,1.062c0,.707-.218,1.279-.49,1.279S10.653,21.315,10.653,20.607Zm.49-2.668a4.21,4.21,0,0,0,2.369-.762H8.884A3.693,3.693,0,0,0,11.143,17.94Zm.273-1.28h2.205l-2.205-2.232Zm-2.614,0h2.069V14.482Zm13.393-2.5a2.075,2.075,0,0,1,1.66-2.041V7.895h-.98s-.463-2.451,0-3.349a10.373,10.373,0,0,0,.68-2.722c.055.408.735.517.735.517s.68-.109.734-.517a10.6,10.6,0,0,0,.681,2.722c.463.9,0,3.349,0,3.349h-.98v4.219a2.15,2.15,0,0,1,1.66,2.041,2.1,2.1,0,1,1-4.192,0ZM23.339.68c0-.375.427-.68.953-.68s.952.305.952.68-.427.68-.952.68S23.339,1.057,23.339.68Z" transform="translate(6306.578 3706.653)"/>
    </g>
    <g id="Rectangle_4553" data-name="Rectangle 4553" class="cls-13" transform="translate(6113 3603)">
      <rect class="cls-14" width="225.994" height="141.821" rx="5"/>
      <rect class="cls-15" x="1" y="1" width="223.994" height="139.821" rx="4"/>
    </g>
  </g>
</svg>
