<svg id="Group_3818" data-name="Group 3818" xmlns="http://www.w3.org/2000/svg" xmlns:xlink="http://www.w3.org/1999/xlink" viewBox="6344 2984 225.994 141.821">
  <defs>
    <style>
      .cls-1, .cls-10, .cls-12 {
        fill: none;
      }

      .cls-1 {
        stroke: #bbb;
      }

      .cls-2 {
        fill: #ddd;
      }

      .cls-3 {
        fill: #709d91;
      }

      .cls-4 {
        clip-path: url(#clip-path);
      }

      .cls-5 {
        fill: #efefef;
      }

      .cls-6 {
        fill: url(#linear-gradient);
      }

      .cls-7 {
        fill: #b22b19;
      }

      .cls-8 {
        fill: #906841;
      }

      .cls-9 {
        fill: #5f4b40;
      }

      .cls-10 {
        stroke: #89c966;
        stroke-width: 2px;
      }

      .cls-11 {
        stroke: none;
      }
    </style>
    <clipPath id="clip-path">
      <rect id="Rectangle_4604" data-name="Rectangle 4604" class="cls-1" width="225.994" height="141.821" rx="5" transform="translate(6344 3603.251)"/>
    </clipPath>
    <linearGradient id="linear-gradient" x1="0.5" x2="0.5" y2="1" gradientUnits="objectBoundingBox">
      <stop offset="0" stop-color="#94a07d"/>
      <stop offset="1" stop-color="#3f4e23"/>
    </linearGradient>
  </defs>
  <g id="Group_3751" data-name="Group 3751" transform="translate(0 -619)">
    <rect id="Rectangle_4617" data-name="Rectangle 4617" class="cls-2" width="225.994" height="141.821" rx="5" transform="translate(6344 3603)"/>
    <path id="Path_11007" data-name="Path 11007" class="cls-3" d="M5,0H220.994a5,5,0,0,1,5,5V48.821a5,5,0,0,1-5,5H5a5,5,0,0,1-5-5V5A5,5,0,0,1,5,0Z" transform="translate(6344 3691)"/>
    <g id="Mask_Group_214" data-name="Mask Group 214" class="cls-4" transform="translate(0 -0.251)">
      <path id="Path_10668" data-name="Path 10668" class="cls-5" d="M1.184,88.818a3.437,3.437,0,0,0-.5-1.376A3.518,3.518,0,0,1,.1,85.65a6.839,6.839,0,0,1,.167-1.834c.125-.542.042-1.084.125-1.667a3.323,3.323,0,0,0,.125-.625,2.18,2.18,0,0,1,.125-.75,4.873,4.873,0,0,1,.25-.834,4.55,4.55,0,0,1,.542-.709c.5-.542,1.167-.917,1.667-1.459a11.14,11.14,0,0,1,1.876-1.834A3.355,3.355,0,0,1,6.769,75.4a1.748,1.748,0,0,0,.667-.167,12.027,12.027,0,0,0,1.209-.167,4.415,4.415,0,0,1,1.5-.375,6.752,6.752,0,0,1,.917.042c.417.083.834.208,1.209.25.5.042.959,0,1.459,0a2.213,2.213,0,0,0,.75-.042,3.264,3.264,0,0,0,.834-.667,3.622,3.622,0,0,0,.667-.709c.125-.167.25-.417.459-.5.292-.125.709,0,1.042-.042a3.753,3.753,0,0,1,.667-.125c.5,0,1,.167,1.5.167a1.85,1.85,0,0,0,.959-.083,5,5,0,0,0,.5-.459,2.151,2.151,0,0,0,.208-2.376,5.206,5.206,0,0,1-.75-1.626c-.042-.625.75-1.084,1.125-1.459,1.125-1.167.375-3.085-.042-4.377a1.2,1.2,0,0,1,.125-1.125c.167-.25.333-.459.5-.709.125-.208.208-.584.459-.667a3.4,3.4,0,0,1,1.125,0h.709c.417,0,1.042.125,1.251-.375a5.587,5.587,0,0,0,.042-.834,5.108,5.108,0,0,1,.333-1.376,3.508,3.508,0,0,1,.625-1.084,4.488,4.488,0,0,1,1-.75c.25-.208.375-.125.667-.167a.622.622,0,0,0,.292-.125,4.788,4.788,0,0,1,.792-.042c.417,0,.75-.167,1.167-.167h.834a7.069,7.069,0,0,0,.917-.167c.208-.042.459.042.667,0a3.9,3.9,0,0,0,.667-.167c.25-.042.417-.042.667-.083.5-.125,1.042-.167,1.542-.25a2.978,2.978,0,0,0,1.876-1.209,1.954,1.954,0,0,0,.333-1.376c-.083-.417-.333-.375-.709-.5-.292-.125-.5-.125-.375-.542a2.291,2.291,0,0,1,.542-.709c.208-.25,1.334-1,.542-1.209a1.39,1.39,0,0,0-.417,0c-.167-.042-.292-.125-.5-.167a12.624,12.624,0,0,0-1.292-.083c-.167-.042-.333,0-.5-.042a2.8,2.8,0,0,1-.625-.25c-.333-.125-.667-.125-1-.25a2.685,2.685,0,0,1-.834-.459,3.124,3.124,0,0,1-.417-.834c-.208-.625-.75-1.876.125-2.251a1.956,1.956,0,0,1-.125-1c0-.25.042-.709-.167-.917-.167-.167-.375-.167-.584-.25a1.211,1.211,0,0,0-.584-.125A6.92,6.92,0,0,1,30.4,42.3c-.25-.042-.542-.292-.792-.292.125-.292.375-.292.167-.667-.25-.5-.834-.709-1.292-.959a10.516,10.516,0,0,1-2.043-1.542c-.375-.292-1.167-.625-.917-1.125.167-.292.292-.417.042-.75a11.259,11.259,0,0,0-2.459-2.209c.042-.208.25-.333.375-.5a1.866,1.866,0,0,0,.167-.834c.083-.5.292-.959.375-1.459.042-.333.042-1,.375-1.251.208-.167.584-.167.834-.25a10.854,10.854,0,0,1,1.042-.417c.417-.125,1.084-.333,1.251-.792,0-.042-.125.208-.125.167.208,0,.333-.167.5-.333.25-.25.459-.333.459-.667.042-.625-.125-1.167.25-1.667a1.292,1.292,0,0,1,1.376-.542c.417.083,1.084.542,1.459-.042.083-.125.042-.25.083-.375a.7.7,0,0,1,.125-.25,5.045,5.045,0,0,0,.042-.792c0-.167-.083-.667.042-.792.167-.25.667-.292.959-.292a3.829,3.829,0,0,1,1.542.167,4.9,4.9,0,0,0,.834.292,2.688,2.688,0,0,0,.834.125,3.163,3.163,0,0,0,1.251-.042c.25-.125.333-.375.5-.542a6.918,6.918,0,0,1,.75-.792.892.892,0,0,0,.292-.75V20.789c0-.375-.167-1.084.292-1.251a3.4,3.4,0,0,1,1.125,0,1.067,1.067,0,0,1,.792.167c.25.208.125.375.167.667a.811.811,0,0,0,.375.584c.125.083.167.042.333.083a1.09,1.09,0,0,1,.333.125,6.754,6.754,0,0,0,.917.042c.375,0,.5-.167.834-.25a4.631,4.631,0,0,1,1.084-.042c.542,0,.709.292,1,.709a2.043,2.043,0,0,1,.292.792,5.773,5.773,0,0,0,1.084,1.834c.292.333.709.5.959.875.292.333.584.625.834.959a3.622,3.622,0,0,0,.667.709c.333.333.625.625,1,.959a3.694,3.694,0,0,0,2.126.959c.292,0,1.042.125,1.209-.167a1.376,1.376,0,0,0-.083-1c-.125-.167-.459-.167-.542-.375-.042-.083-.083-.333-.125-.417-.042-.167-.125-.667,0-.792.375-.542,1.584.083,2.084-.208.333-.208.417-1.125.417-1.5a2.8,2.8,0,0,0-.042-.834,2.471,2.471,0,0,0-.292-.667,1.387,1.387,0,0,0-.25-.417c-.208-.25-.333-.208-.542-.292-.292-.125-.5-.542-.834-.667a6.332,6.332,0,0,1-.834-.25c-.25-.125-.459-.208-.667-.292a5.546,5.546,0,0,1-.792-.584c-.542-.417-.5-1.084-.625-1.751A3.048,3.048,0,0,1,51,17a1.8,1.8,0,0,1,.75-.917,1.571,1.571,0,0,0,.542-1.5c-.042-.333-.417-.542-.584-.834a1.848,1.848,0,0,1-.125-.834,2.311,2.311,0,0,1,.959-1.834,4.463,4.463,0,0,0,.625-.917,1.85,1.85,0,0,0,.083-.959,6.421,6.421,0,0,1,.042-1.792,2.978,2.978,0,0,1,.333-.625c.125-.125.167-.083.333-.083a5.754,5.754,0,0,0,.834-.125c.417-.083,1.167.125,1.542-.042.584-.333.917-1.167,1.292-1.667.125-.167.292-.25.417-.417a2.658,2.658,0,0,0,.333-.584,10.112,10.112,0,0,1,.584-.834,2.862,2.862,0,0,1,.709-.709,9.152,9.152,0,0,1,1.042-.709,2.959,2.959,0,0,0,.584-.417A3.122,3.122,0,0,1,62.751.531a5.566,5.566,0,0,1,.834,0c.292,0,.5-.042.709.125.208.208.042.542.25.75s.625.083.875.083a3.407,3.407,0,0,0,1.125-.042c.792-.208,1.376-.875,2.209-.959a.835.835,0,0,1,.792.333c.167.292-.125.5.25.709a2.022,2.022,0,0,0,2.043-.292c.167-.292.042-.375.375-.542a1.5,1.5,0,0,1,.834-.167c.375.042.208.25.459.584.083.125.208.125.25.25.083.25-.042.25.125.459.542.75,1.751.417,2.5.459l.625.25a16.542,16.542,0,0,1,1.626.959.974.974,0,0,1,.292.292,10.436,10.436,0,0,1,1,.917c.333.417.167,1.459,0,2A2.065,2.065,0,0,0,79.8,8.409c.167.292.417.5.584.75.25.333.5.333.792.542.917.709,1.626,1.751,2.793,2a7.224,7.224,0,0,0,1.334.125,4.151,4.151,0,0,1,1.251.042c.834.292,1.209,1.167,1.709,1.792a5.64,5.64,0,0,1,.709,1.417,10.13,10.13,0,0,1,.542,1.584,10.544,10.544,0,0,1,.042,2.293,7.35,7.35,0,0,0,0,.959,1.862,1.862,0,0,0,.5,1.125,8.414,8.414,0,0,0,1,1.125c.25.25.459.542.709.792s.459.5.709.709c.167.167.417.25.584.459a2.8,2.8,0,0,1,.25.5c.125.208.167.459.292.709a2.827,2.827,0,0,1,.5.917,5.109,5.109,0,0,1,.292,1.334,1.8,1.8,0,0,1-.042.667c-.125.375-.375.459-.625.709-.5.417-.292,1.125-.292,1.709a5.328,5.328,0,0,0,1.084,2.918,1.915,1.915,0,0,0,1.584.959c.375,0,.667.083.917-.292a1.805,1.805,0,0,0,.459-1.084v-.875a2.885,2.885,0,0,1,.042-1.042,1.632,1.632,0,0,1,.333-.417c.042-.042.459-.292.5-.333.292-.083.459.208.667.375a3.22,3.22,0,0,1,.5,1,2.07,2.07,0,0,0,1.584,1.042,7.668,7.668,0,0,0,1.959.042,2.294,2.294,0,0,0,1.251-.459c.167-.125.417-.292.584-.417.125-.125.125-.292.25-.375a1.279,1.279,0,0,1,.875-.25,3.982,3.982,0,0,0,1.584-.083c.667-.333.875-1.626.75-2.293a3.568,3.568,0,0,0-.459-1c-.083-.167-.25-.167-.375-.292a3.93,3.93,0,0,1-.125-.375A2.359,2.359,0,0,1,107.229,26c.25-.459.917-.459,1.334-.417.208,0,.25.042.459-.083a1.741,1.741,0,0,0,.459-.625c.083-.375-.208-.792-.25-1.125-.083-.417-.042-.834-.125-1.292a4.078,4.078,0,0,1,.083-2.126c.083-.208.292-.292.417-.459a4.683,4.683,0,0,1,.75-.834,9.316,9.316,0,0,1,1.709-1.125,2.922,2.922,0,0,1,1.334-.125c.75,0,1.459.125,2.168.125.208,0,.542.083.75-.042.167-.125.208-.459.292-.625s.208-.292.292-.459c.083-.125.167-.459.292-.542a4.123,4.123,0,0,1,1.084-.292.929.929,0,0,1,.584,0,.732.732,0,0,1,.417.375.449.449,0,0,0,.083.333,6.1,6.1,0,0,1,.375.542c.333.584.417,1,1.084,1.209a6.68,6.68,0,0,0,2.043.208,1.554,1.554,0,0,0,1.334-.709,4.059,4.059,0,0,0,.083-1c.083-.709-.083-1.125.459-1.667a2.236,2.236,0,0,1,1.334-.542c.5-.042.417.25.875.417a3.806,3.806,0,0,0,1.376,0c.125-.125.125-.625.167-.75a1.471,1.471,0,0,0,.125-.584c.459-.167.959-.459,1.084.167.083.417-.125.834.292,1.084a1.027,1.027,0,0,0,1.042-.083,2.824,2.824,0,0,0,.584-.959,4.362,4.362,0,0,1,.167-.709,2.867,2.867,0,0,1,2.751-1.376c.625,0,1.334-.292,1.917-.042a15.078,15.078,0,0,1,1.334.917c.542.333,1.417.459,1.751,1.084A2.693,2.693,0,0,1,139.742,15a4.141,4.141,0,0,0,1.376,2c.667.459,1.917.208,2.376.959a6.612,6.612,0,0,1,.667,1.709c.083.333-.083.75,0,1.084a1.936,1.936,0,0,0,.542.834,2.332,2.332,0,0,0,1.084.292,2.515,2.515,0,0,0,.792.959c.208.125.459.125.667.292.25.167.25.417.375.667a1.417,1.417,0,0,1,.125.834c-.042.542-.5,1.209.208,1.542a2.878,2.878,0,0,0,1.042.167.937.937,0,0,1,.834.375,2.308,2.308,0,0,1,.5.792,1.08,1.08,0,0,0,.792.667,2.242,2.242,0,0,0,1.292.208.959.959,0,0,0,.667-.709c0-.125-.125-.292-.167-.417a4.212,4.212,0,0,1-.125-.709c-.042-.292-.167-.292-.042-.542a3.411,3.411,0,0,1,1.167-.584,10.75,10.75,0,0,1,1.626-.167c.834-.042,2.376-.542,3,.292.584.792.417,1.834.875,2.668a1.216,1.216,0,0,0,1.042.667,6.658,6.658,0,0,1,1.584.042c.125.042.208.208.292.25a6.1,6.1,0,0,0,.792.667,6.828,6.828,0,0,1,1.084.834A2.944,2.944,0,0,1,165,32.586a5.84,5.84,0,0,0,.25,1.167,3.62,3.62,0,0,1,.042.959,1.9,1.9,0,0,0,.792,1.792c.167.125.292.167.459.292a2.127,2.127,0,0,1,.5.834,7.863,7.863,0,0,1,.75,2.168,11.858,11.858,0,0,1,.167,1.709,3,3,0,0,0,.125,1.209c.459,1.376,2,2.376,3.21,3a4.627,4.627,0,0,0,1.626.667c.459.042.959,0,1.459,0s.834.083,1.209-.25c.208-.208.459-.375.709-.584.208-.167.459-.25.667-.417.25-.167.459-.625.834-.625.5,0,.959.917,1.209,1.251.75.959,1.626,1.792,2.459,2.709.542.584.459.333.542.75a9.069,9.069,0,0,0,.042,1.042c.042.5.083.959.125,1.459a5.586,5.586,0,0,1-.125,2.626c-.208.5-.417.959-.625,1.459a2.08,2.08,0,0,0-.083,1.417,3.5,3.5,0,0,0,1.209,1.376,11.57,11.57,0,0,1,1.042,1c.667.709,1.334,1.376,1.959,2.084a2.169,2.169,0,0,0,1.792,1,6.943,6.943,0,0,0,2.626-.167c.875-.333.5-1.125.5-1.876.042-.792.542-.959,1.251-1.042a1.89,1.89,0,0,1,1.751.542,3.179,3.179,0,0,0,.709.542,4.123,4.123,0,0,0,1.751.167,1.438,1.438,0,0,0,1.459-.667c.25-.5-.417-1.167-.584-1.626a4.8,4.8,0,0,0-.5-1.042c-.167-.25-.25-.25-.292-.584a.886.886,0,0,1,.083-.667c.208-.25.75-.167,1-.417a3.01,3.01,0,0,0,.542-1.584,1.44,1.44,0,0,1,.792-1.376,8.425,8.425,0,0,1,1.334-.459c.625-.167.792-.417.667-1.042a3.772,3.772,0,0,1-.25-1.917c.167-.417,1.042-.792,1.417-.917.667-.25,1.209-.292,1.334-1.125a2.336,2.336,0,0,1,.042-.75c.208-.375.834-.292,1.125-.25.875.167.709.959.917,1.626a2.138,2.138,0,0,0,.792,1.209,3.247,3.247,0,0,0,1.959.542,5.638,5.638,0,0,1,2.043.125,2.262,2.262,0,0,1,.875,1.084A1.781,1.781,0,0,0,211.94,52.3a11.715,11.715,0,0,0,2.418,0,5.174,5.174,0,0,1,1.125.125c.459.125.333.292.459.667a5.077,5.077,0,0,0,1.042,1.292,3.167,3.167,0,0,0,2.126.667,1.473,1.473,0,0,1,.709.167,2.169,2.169,0,0,1,.292,1.334,7.059,7.059,0,0,1,.042.917c-.083.25-.5.333-.709.375.417-.083.208.292.542.375a1,1,0,0,0,1.125-.25c.208-.375.042-.709.125-1.125.125-.542.625-.542,1.042-.542a11.036,11.036,0,0,0,2.626-.042c.25-.042.459-.208.667-.25a4.015,4.015,0,0,1,.709,0,1.087,1.087,0,0,1,.834.292,4.15,4.15,0,0,1,.625.584c.125.167.083.417.125.625a4.671,4.671,0,0,1,.208.542,1.408,1.408,0,0,0,.375.792c.208.167.375.375.625.542a1.915,1.915,0,0,0,.667.292,1.515,1.515,0,0,1,.75,1.209c.042.333-.083.667.042.959.042.125.208.208.292.333a1.15,1.15,0,0,0,.584.5c.542.292,1.167.333,1.709.667a.978.978,0,0,1,.459.459c.125.25.042.459.083.709a2.209,2.209,0,0,0,.25.417c.083.125.125.292.208.417.167.292.375.333.625.459a7.251,7.251,0,0,1,.75.459c.542.375,1.084.709,1.584,1.125a4.917,4.917,0,0,1,.75.542,5.366,5.366,0,0,0,.667.709,2.121,2.121,0,0,0,1.251.25c.625,0,.5-.542.584-1.042a2.4,2.4,0,0,0,.125-.584V64.891c0-.417-.208-1.417.25-1.667.167-.083.417-.083.625-.167.375-.167.917-.25,1.209-.584a1.832,1.832,0,0,0,.292-.917,11.689,11.689,0,0,0,0-1.209,11.693,11.693,0,0,1,0-1.709,3.369,3.369,0,0,1,.459-1.125,3.083,3.083,0,0,1,.959-.834c.25-.167.375-.459.709-.542a6.33,6.33,0,0,0,.834-.25.851.851,0,0,0,.542-.333c.333-.292,1-.584,1.126-1.042.125-.417-.083-.917,0-1.334.167-.792,1.334-.709,1.959-.709a5.065,5.065,0,0,0,1.376,0c.625-.208.459-.875.459-1.417,0-.667-.125-1.292.417-1.751a4.419,4.419,0,0,1,2.209-1.084,5.587,5.587,0,0,1,.834-.042,5.08,5.08,0,0,1,1.126,0c.25.083.458.292.667.375a3.282,3.282,0,0,0,1.542.417h.834a3.144,3.144,0,0,0,1.209-.375,3.445,3.445,0,0,0,.917-.333c.125-.125.042-.167.125-.292a5.535,5.535,0,0,0,.375-.875,2.225,2.225,0,0,1,2.168-1.376,4.358,4.358,0,0,1,1.042,0,1.756,1.756,0,0,1,.792.667,4.327,4.327,0,0,1,.5.709c.083.167.083.375.167.584a2.094,2.094,0,0,1,.208.542c.042.167-.042.375,0,.542a2.742,2.742,0,0,0,.167.625c.042.375-.042.459.292.75a1.16,1.16,0,0,0,.959.292c.542,0,1.084-.167,1.459.292a2.568,2.568,0,0,1,.75,1.667c0,.417-.208.709-.042,1.125a2.131,2.131,0,0,1,.167,1.125c0,.625.542.917,1.042,1.292a1.314,1.314,0,0,1,.5,1.209c0,.25.042.417-.125.584-.25.25-.709.417-.959.667a1.571,1.571,0,0,0,.333,2.418c.5.333,1.042.625,1.542,1,.459.333.375.917.375,1.459-.042.584-.542.667-.667,1.167-.167.5-.042,1.125.542,1.209a5.567,5.567,0,0,0,.834,0h1.5c.834,0,1.626-.125,2.418-.125a1.424,1.424,0,0,1,.709.125c.375.208.584.542,1.042.584a2.512,2.512,0,0,1,.959.25c.667.292.875.75,1.334,1.292.25.292.584.417.792.667s.375.584.584.834a3.7,3.7,0,0,1,.5,2.5v1.584a11.131,11.131,0,0,1,0,1.667,3.286,3.286,0,0,1-.375.959,2.051,2.051,0,0,1-.75.542,2.1,2.1,0,0,1-.959.375,3.27,3.27,0,0,0-.917.083c-.834.292-.792,1.167-.625,1.834a3.273,3.273,0,0,1,0,1.792c-.375.667-1.584.584-2.209.584a1.707,1.707,0,0,0-1.751,2.084,1.454,1.454,0,0,0,.584.959c.167.083.333,0,.5.042a1.481,1.481,0,0,1,.667.459c.208.375.042.959.083,1.376.083.834,1.126,1.459,1.876,1.584a18.413,18.413,0,0,0,2.626.042c.667-.042,1.292-.292,1.959-.292.417,0,.584-.042.875.208a.727.727,0,0,0,.5.25c.333.083.25.083.5-.208Z" transform="translate(6296.865 3602.101)"/>
      <path id="Path_10639" data-name="Path 10639" class="cls-6" d="M144.586,91.65c-1.829-.3-3.659-.3-5.183-.61-1.22-.3-2.439-.3-3.354-.61a36.54,36.54,0,0,0,3.354-3.659c2.439-2.439,4.268-5.183,6.4-7.622,1.22-1.524,1.22-2.744,1.524-4.268a31.189,31.189,0,0,0,0-11.89,8.946,8.946,0,0,0-.915-3.049c-.61-.915-1.829-1.524-2.439-2.744-1.829-2.744-1.524-5.793-1.524-8.841,0-1.829.61-4.878-.3-6.707-.915-1.22-1.524-1.22-1.829-2.744s-.61-2.744-.915-4.268a58.592,58.592,0,0,1,0-7.317c0-2.744-1.22-3.963-2.439-6.4-.61-1.22-1.22-2.439-.3-4.268.915-1.524,3.659-3.049,1.829-4.573-1.829-1.829-5.793-2.439-8.232-2.744-.61-1.524,1.22-2.439.915-3.963-.61-2.439-4.573-1.524-6.707-1.829-.915-.3-1.22-.61-1.829-.61-2.134-.3-4.878.61-7.317.61a12.354,12.354,0,0,1-3.354,0c-.61-.3-.61-.61-1.22-1.22C106.476-.728,100.074.186,95.2.186c-2.134,0-1.524.61-.915,2.439a11.519,11.519,0,0,1,0,4.573c-1.829.915-4.573,0-6.707,0-2.744,0-5.183-.61-7.622-.61s-3.659,1.22-3.963,3.659c0,.61.915,4.878.61,5.183-1.22,1.22-3.049-1.22-3.049,1.524a10.336,10.336,0,0,0,2.744,4.268c.61.61,1.524,0,2.134.61.61.915-.3,3.354-.61,4.268-.3,1.524.61,4.268-.3,5.488s-5.183,1.22-6.4.915a1.833,1.833,0,0,0-.3-1.22c-2.744-.915-10.061-1.829-9.146,3.049a10.3,10.3,0,0,0,1.829,3.659l1.22,1.22c.61.915.3,1.22.61,1.829,0,1.524,0,1.524,1.22,2.744.3.3,2.134,1.22,2.134,1.829.3.61-.3,1.22-.61,1.829,0,.61.3,1.524,0,1.829-.3.915-1.829.915-2.744,1.524-2.744,1.22-1.829,3.659-3.963,5.488s-4.878,1.524-4.878-1.524a13.1,13.1,0,0,1,.61-3.659c.61-2.744-1.524-2.134-3.354-2.439-.915-.3-3.963-.915-3.963-2.134,0-.3,1.22-2.439,1.22-3.049-2.134-.915-7.927,1.524-9.451-.915-.915-1.524.915-3.963-.915-4.878-2.134-1.22-5.183.61-7.012,1.524-2.134,1.22-2.439,2.744-2.744,4.878-1.524.61-3.049-.3-4.573.61-2.134.915-1.524,2.439-3.049,3.659.915,3.049,3.354,6.4,1.22,9.756-2.134,3.963-8.841-1.829-10.061,1.524-.61,1.524.61,3.354.915,4.573.3,2.744-.915,2.439-3.049,2.439s-3.963-.3-5.183,1.22c-.61.915-1.829,3.354-3.354,1.22-3.049.3.61,4.573.915,5.793-1.829.61-4.268-.3-2.439,2.439.915,1.829,1.829,1.22,3.659,1.524.915,0,3.354.3,4.268,1.22.915,1.219.61,3.354.61,4.878.61.3.915.61,1.22.61a19.919,19.919,0,0,1-4.268,0H5.257c-.915,0-1.22.61-1.524.61-1.22.3-1.829,0-2.744,1.22L.074,88.906c-.3,1.829,0,.915,1.22,1.22,4.573,1.829,10.976.915,16.159.915H32.086c2.744,0,6.4-.61,9.146,0,1.829.3,3.049.915,5.183.915,1.829,0,4.268-.3,6.4.3.915.3,1.22.915,2.439.61.3,0,.61-.61.915-.61,1.524-.3,3.049-.61,3.049,1.524,0,1.22-2.134,2.134,0,3.049h1.524c1.22,0,1.829.61,3.049.915,2.744.61,6.707,0,9.451,0H101.9c2.134,0,3.963.915,6.1.915h32.012a19.144,19.144,0,0,0,5.793-.915c1.22-.3,3.049-.3,3.659-1.524C149.464,92.869,146.11,92.26,144.586,91.65Z" transform="translate(6518.478 3619.874)"/>
      <path id="Path_10640" data-name="Path 10640" class="cls-6" d="M121.781,55.347a9.744,9.744,0,0,0-5.579-3.3,16.569,16.569,0,0,1-3.55,0,12.2,12.2,0,0,1-2.79-2.282c-.254-.507-.507-1.522-.761-2.029,0-1.014.761-1.522.761-2.536-2.536-.761-4.311,0-5.579-2.79-.761-1.268-.761-3.043-1.268-4.311-1.522-2.79-6.34-1.522-8.622-2.029-.507,0-1.268-.507-2.029-.507a5.1,5.1,0,0,1-2.029-1.014c-1.014-.761-1.268-2.282-1.775-3.3-1.775-3.55-4.565-5.579-7.862-7.862-3.043-2.029-5.072-4.565-7.354-7.354A5.8,5.8,0,0,1,71.567,13.5a5.411,5.411,0,0,0,0-2.029c-.507-.761-1.522-.761-2.282-1.268S67.763,8.938,67,8.431c-1.522-1.014-2.536-1.522-3.55-3.043A6.566,6.566,0,0,0,61.677,2.6,6.923,6.923,0,0,0,57.112,1.33c-.761.254-3.043,2.282-1.268,3.3-2.282.507-1.775,4.058-2.029,5.579,0,3.3-.761,7.608.761,10.651a4.6,4.6,0,0,1,.507,2.79c-.254,1.268-1.014,1.775-1.268,2.79-.507,2.029,2.282,3.043,1.775,5.326a22.2,22.2,0,0,0-.507,4.058c0,1.522.507,1.268,1.268,2.282a10.7,10.7,0,0,1,.761,3.043c.254,1.522,0,2.536,1.014,4.058.761,1.268,1.268,2.282,2.029,3.55.507,1.014,1.522,2.029,2.029,3.043.761,2.79-1.014,5.579-1.268,8.369a27.529,27.529,0,0,1-1.014,6.34,13.4,13.4,0,0,0-.254,3.043h0v.507c-.254,0-.507.254-.761.254-.761.254-1.268,0-2.282.507-2.029,1.522-.254,2.029,1.268,2.79,3.3,1.268,6.594,1.522,10.4,1.775,2.282,0,4.311.761,6.34.761,3.55,0,6.847-.761,10.4-.761h6.847a37.337,37.337,0,0,1,9.13,1.014c1.522.254,2.79.761,4.565.254.254,0,.507-.507.761-.507.761-.254,1.775.254,2.536,0a2.567,2.567,0,0,0,1.775-1.014c3.043.254,6.847.254,6.847-1.268-1.522-1.014-3.043-.761-4.818-.761h-1.014c.254-.761.507-1.268.761-2.029a6.905,6.905,0,0,1,2.029-2.536,11.991,11.991,0,0,1,3.043-1.775c2.536-1.268,4.565-1.522,6.086-4.058C126.092,59.912,123.809,57.63,121.781,55.347Z" transform="translate(6385.427 3636.571) rotate(-3)"/>
      <path id="Path_10641" data-name="Path 10641" class="cls-6" d="M120.77,78.021c.254-.254.507-.254.761-.507s.507-.507.507-.761c-.254-.254-.507-.507-.761-.507-.507,0-.761.254-1.268,0-1.522-.254-3.043-.254-4.311-.507-1.014-.254-2.029-.254-2.79-.507a30.392,30.392,0,0,0,2.79-3.043c2.029-2.029,3.55-4.311,5.326-6.34a6.73,6.73,0,0,0,1.268-3.55,25.944,25.944,0,0,0,0-9.89,7.442,7.442,0,0,0-.761-2.536c-.507-.761-1.522-1.268-2.029-2.282-1.522-2.282-1.268-4.818-1.268-7.354,0-1.522.507-4.058-.254-5.579-.761-1.014-1.268-1.014-1.522-2.282s-.507-2.282-.761-3.55a48.738,48.738,0,0,1,0-6.086c0-2.282-1.014-3.3-2.029-5.326a3.469,3.469,0,0,1-.254-3.55c1.014-1.268,3.3-2.536,1.775-3.8-1.522-1.522-4.818-2.029-6.847-2.282-.507-1.268,1.014-2.029.761-3.3-.507-2.029-3.8-1.268-5.579-1.522-.761-.254-1.014-.507-1.522-.507-1.775-.254-4.058.507-6.086.507a10.276,10.276,0,0,1-2.79,0c-.507-.254-.507-.507-1.014-1.014C88.562-.6,83.237.165,79.179.165c-1.775,0-1.268.507-.761,2.029a9.582,9.582,0,0,1,0,3.8c-1.522.761-3.8,0-5.579,0-2.282,0-4.311-.507-6.34-.507S63.456,6.5,63.2,8.534c0,.507.761,4.058.507,4.311-1.014,1.014-2.536-1.014-2.536,1.268a8.6,8.6,0,0,0,2.282,3.55c.507.507,1.268,0,1.775.507.507.761-.254,2.79-.507,3.55-.254,1.268.507,3.55-.254,4.565s-4.311,1.014-5.326.761a1.525,1.525,0,0,0-.254-1.014c-2.282-.761-8.369-1.522-7.608,2.536A8.57,8.57,0,0,0,52.8,31.611l1.014,1.014c.507.761.254,1.014.507,1.522,0,1.268,0,1.268,1.014,2.282.254.254,1.775,1.014,1.775,1.522.254.507-.254,1.014-.507,1.522,0,.507.254,1.268,0,1.522-.254.761-1.522.761-2.282,1.268-2.282,1.014-1.522,3.043-3.3,4.565S46.972,48.1,46.972,45.56a10.9,10.9,0,0,1,.507-3.043c.507-2.282-1.268-1.775-2.79-2.029-.761-.254-3.3-.761-3.3-1.775a26.311,26.311,0,0,0,1.014-2.536c-1.775-.761-6.594,1.268-7.862-.761-.761-1.268.761-3.3-.761-4.058-1.775-1.014-4.311.507-5.833,1.268-1.775,1.014-2.029,2.282-2.282,4.058-1.268.507-2.536-.254-3.8.507-1.775.761-1.268,2.029-2.536,3.043.761,2.536,2.79,5.326,1.014,8.115-1.775,3.3-7.354-1.522-8.369,1.268-.507,1.268.507,2.79.761,3.8.254,2.282-.761,2.029-2.536,2.029S6.9,55.2,5.888,56.464c-.507.761-1.522,2.79-2.79,1.014-2.536.254.507,3.8.761,4.818-1.522.507-3.55-.254-2.029,2.029.761,1.522,1.522,1.014,3.043,1.268.761,0,2.79.254,3.55,1.014.761,1.014.507,2.79.507,4.058.507.254.761.507,1.014.507a16.569,16.569,0,0,1-3.55,0H4.367c-.761,0-1.014.507-1.268.507-1.014.254-1.522,0-2.282,1.014L.055,73.963c-.254,1.522,0,.761,1.014,1.014,3.8,1.522,9.13.761,13.441.761H26.684c2.282,0,5.326-.507,7.608,0A21.772,21.772,0,0,0,38.6,76.5a19.223,19.223,0,0,1,5.326.254c.761.254,1.014.761,2.029.507.254,0,.507-.507.761-.507,1.268-.254,2.536-.507,2.536,1.268h1.268c1.014,0,1.522.507,2.536.761,2.282.507,5.579,0,7.862,0H84.758c1.775,0,3.3.761,5.072.761h26.628a15.924,15.924,0,0,0,4.818-.761C120.516,78.021,120.516,78.021,120.77,78.021Z" transform="translate(6303.018 3639.009) rotate(-3)"/>
    </g>
    <g id="Group_3748" data-name="Group 3748">
      <path id="Union_553" data-name="Union 553" class="cls-2" d="M-4877.2,81.9a16.235,16.235,0,0,1-1.771-.849c-9.472.783-15.354.849-15.354.849l-1.385-5.37a49.218,49.218,0,0,0,12.47,1.611A39.04,39.04,0,0,1-4889.4,71.6l-12.9-1.118-1.066-2.462c5.678.694,20.01,2.328,37.339,3.291,9.857.559,18.647.783,26.528.783,22.167,0,36.886-1.858,46.016-3.669a53.889,53.889,0,0,0,12.673-4.252l-5.769,12.353c-20.219,4.791-50.9,5.678-70.85,5.678C-4869.17,82.2-4877.2,81.9-4877.2,81.9Zm14.582-3.915c.159,0,8.109.425,18.807.425,11.265,0,25.574-.47,37.022-2.372l.022-1.1c-22.213,3.692-55.624,1.946-55.964,1.924Zm-3.552-7.646c-18.036-1.01-32.78-2.714-37.937-3.365l-.386-.9-13.562-2.961.3-1.008,13.788,2.4c84.78,10.857,118.968-1.951,118.968-1.951V63.6a4.38,4.38,0,0,0,3.113-2.849v.022h2.5l-.84,1.817a51.2,51.2,0,0,1-13.7,4.868c-9.08,1.819-23.7,3.651-45.763,3.651C-4847.551,71.114-4856.349,70.881-4866.173,70.334Zm7.282-3.442V61.475h34.714v5.416c-5.315.5-10.942.67-16.086.67C-4850.548,67.562-4858.891,66.891-4858.891,66.891Zm-33.282-2.9V58.048h-4.536v-.913h40.458v.913h-4.308v8.844S-4879.8,65.977-4892.173,63.989Zm72.726-7.249-.835-5.1c.994-1.423-.044-5.309-.044-5.332,1.31-1.558.384-6.211.384-6.211,1.49-1.717,1.2-7.749,1.2-7.749,1.738-2.71,2.483-9.329,2.483-9.329l6.594-9.736L-4791.9,35.01V57.8l-26.466,2.936Zm-92.886-2.406-.934-4.986c.982-1.411-.136-5.2-.137-5.221,1.3-1.549.283-6.091.283-6.091,1.481-1.708,1.08-7.611,1.08-7.611,1.716-2.686,2.357-9.182,2.357-9.182l6.515-9.652,18.375,20.97.39,22.325-26.763,3.344Zm44.055,1.2.742-11.886c2.409-2.1,2.409-11.729,2.409-11.729,2.993-3.767,2.25-12.632,2.25-12.632,3.286-3.9,5.694-14.887,5.694-14.887,6.459-6.766,9.678-17.887,9.678-17.887,18.836,16.556,25.3,34.894,25.3,34.894.652,4.489.743,17.593.743,17.593l-.743,5.864.743,10.669Z" transform="translate(11323.227 3819.264) rotate(2)"/>
      <path id="Path_10378" data-name="Path 10378" class="cls-7" d="M135.822,339.425a4.358,4.358,0,0,1-3.218,2.742l.045-1.065s-34.607,11.536-118.665-2.833L.34,335.3l-.34,1,13.394,3.535.34.907c5.1.861,19.74,3.2,37.689,4.941,37.213,3.626,59.763,1.994,72.138,0a50.924,50.924,0,0,0,13.847-4.351l.929-1.813Z" transform="translate(6406.062 3373.837)"/>
      <path id="Path_10379" data-name="Path 10379" class="cls-8" d="M133.478,329.305l.363-8.771,4.238.181.045-.907L98.145,318.2l-.045.907,4.465.181-.249,5.892C114.486,327.628,133.478,329.305,133.478,329.305Zm-11.2-7.411,6.572.272-.113,2.946-6.572-.272Zm-8.431-.34,6.572.272-.113,2.946-6.572-.272Zm-8.567-.34,6.572.272.453,2.969-7.139-.295Z" transform="translate(6330.195 3387.062)"/>
      <path id="Path_10380" data-name="Path 10380" class="cls-9" d="M126.2,371.486c-7.842-.317-16.612-.906-26.4-1.858-17.247-1.677-31.457-3.9-37.1-4.827l.975,2.538,12.8,1.654a38.508,38.508,0,0,0,5.87,6.844,48.583,48.583,0,0,1-12.374-2.13l1.156,5.485s5.87.159,15.343-.227a18.1,18.1,0,0,0,1.722.929s58.245,4.623,90.563-1.768l6.255-12.284a52.072,52.072,0,0,1-12.8,3.785C163.053,371.1,148.3,372.37,126.2,371.486Zm32.431,5.3c-11.49,1.473-25.791,1.36-37.009.907-10.674-.431-18.584-1.178-18.743-1.2l-.068-1.133c.34.023,33.587,3.15,55.888.295Z" transform="translate(6357.572 3351.023)"/>
      <path id="Path_10381" data-name="Path 10381" class="cls-7" d="M281.768,180.194c.023-1.133.045-3.354.023-5.87L240.544,160.5c.068,1.5.181,8.431-2.244,11.921Z" transform="translate(6221.769 3509.021)"/>
      <path id="Path_10382" data-name="Path 10382" class="cls-7" d="M272.123,231.171l.839-5.53L229.2,217.8c-.091,2.04-.521,8.2-2.2,10.538l45.145,3.1Z" transform="translate(6230.508 3464.708)"/>
      <path id="Path_10383" data-name="Path 10383" class="cls-7" d="M267.087,272.25,221.4,269.1l-1,11.354,47.117,1.133Z" transform="translate(6235.612 3425.034)"/>
      <path id="Path_10384" data-name="Path 10384" class="cls-7" d="M311.28,51.15a79.01,79.01,0,0,0-8.521-16.635l.408-17.2-1.2-.023L301.6,32.77A101.519,101.519,0,0,0,286.668,15.5s-3.377,10.652-9.768,17.337l34.63,22.029C311.484,53.393,311.394,52.079,311.28,51.15Z" transform="translate(6191.917 3621.159)"/>
      <path id="Path_10385" data-name="Path 10385" class="cls-7" d="M291.39,118.791,256.171,96.4c-.567,2.176-2.7,9.813-5.371,13.507l40.681,13.643C291.458,121.964,291.435,120.333,291.39,118.791Z" transform="translate(6212.102 3558.594)"/>
      <path id="Path_10386" data-name="Path 10386" class="cls-8" d="M294.266,350.476l.227-5.371L259.727,343.7l-.227,5.371s.861.091,2.38.2l.113-2.81a3.051,3.051,0,0,1,2.765-1.02,3.094,3.094,0,0,1,2.674,1.246l-.113,2.992c.839.068,1.722.113,2.652.181l.136-3.422,5.258.2-.136,3.513c.793.045,1.632.091,2.448.113l.136-3.535,5.258.2-.136,3.513c.748.023,1.473.045,2.221.045l.136-3.467,5.258.2-.136,3.286C291.727,350.544,293.019,350.522,294.266,350.476Z" transform="translate(6205.374 3367.341)"/>
      <rect id="Rectangle_4466" data-name="Rectangle 4466" class="cls-7" width="1.654" height="2.924" transform="translate(6493.042 3637.827) rotate(-88.63)"/>
      <path id="Path_10387" data-name="Path 10387" class="cls-7" d="M386.988,0,385.9,2.176l2.13.068Z" transform="translate(6107.62 3633.147)"/>
      <rect id="Rectangle_4467" data-name="Rectangle 4467" class="cls-7" width="1.45" height="2.538" transform="translate(6526.135 3659.814) rotate(-88.63)"/>
      <path id="Path_10388" data-name="Path 10388" class="cls-7" d="M532.552,99.6l-.952,1.9,1.881.045Z" transform="translate(5994.94 3556.119)"/>
      <path id="Path_10389" data-name="Path 10389" class="cls-7" d="M468.916,199.011l-24.2-15.411c-.272,1.609-1.043,5.8-2.312,8.136l26.493,8.113Z" transform="translate(6063.925 3491.157)"/>
      <path id="Path_10390" data-name="Path 10390" class="cls-7" d="M464.363,233.955l.045-1.45-26.765-8.2c0,1.382-.113,4.918-1.043,6.64Z" transform="translate(6068.411 3459.681)"/>
      <path id="Path_10391" data-name="Path 10391" class="cls-7" d="M461.02,309.4l-28.42-.2.657,4.555,27.695-1.36Z" transform="translate(6071.504 3394.022)"/>
      <path id="Path_10392" data-name="Path 10392" class="cls-7" d="M478.365,146.38l-5.485-7.026.476-19.332L472.291,120l-.431,18.04-10.788-13.87-6.572,9.156,23.819,15.184Z" transform="translate(6054.567 3540.343)"/>
      <path id="Path_10393" data-name="Path 10393" class="cls-7" d="M464.023,328.4,436.6,329.714l.748,2.992,26.629-2.312Z" transform="translate(6068.411 3379.173)"/>
      <path id="Path_10394" data-name="Path 10394" class="cls-7" d="M433.291,290.147l28.239.2.091-3.671L433.2,286A10.5,10.5,0,0,1,433.291,290.147Z" transform="translate(6071.04 3411.964)"/>
      <path id="Path_10395" data-name="Path 10395" class="cls-7" d="M462.416,264.257l.068-2.72L434.472,258.5c.136,1.133.363,3.649-.272,5.077Z" transform="translate(6070.267 3433.231)"/>
      <rect id="Rectangle_4468" data-name="Rectangle 4468" class="cls-7" width="1.45" height="2.538" transform="translate(6433.386 3653.938) rotate(-88.63)"/>
      <path id="Path_10396" data-name="Path 10396" class="cls-7" d="M123.275,73.8l-.975,1.9,1.881.045Z" transform="translate(6311.479 3576.072)"/>
      <path id="Path_10397" data-name="Path 10397" class="cls-7" d="M59.716,173.211,35.512,157.8c-.272,1.609-1.043,5.8-2.312,8.136l26.493,8.113Z" transform="translate(6380.386 3511.11)"/>
      <path id="Path_10398" data-name="Path 10398" class="cls-7" d="M55.063,208.055l.045-1.45-26.765-8.2c0,1.382-.113,4.918-1.043,6.64Z" transform="translate(6384.949 3479.711)"/>
      <path id="Path_10399" data-name="Path 10399" class="cls-7" d="M51.82,283.6l-28.42-.2.635,4.533L51.752,286.6Z" transform="translate(6387.965 3413.975)"/>
      <path id="Path_10400" data-name="Path 10400" class="cls-7" d="M69.087,120.48,63.6,113.455l.453-19.332L63.013,94.1l-.431,18.04L51.772,98.27,45.2,107.449l23.842,15.162Z" transform="translate(6371.106 3560.373)"/>
      <path id="Path_10401" data-name="Path 10401" class="cls-7" d="M54.777,304.517l.045-2.017L27.4,303.814l.748,3.014Z" transform="translate(6384.872 3399.203)"/>
      <path id="Path_10402" data-name="Path 10402" class="cls-7" d="M23.991,264.247l28.239.2.091-3.672L23.9,260.1A10.1,10.1,0,0,1,23.991,264.247Z" transform="translate(6387.579 3431.994)"/>
      <path id="Path_10403" data-name="Path 10403" class="cls-7" d="M53.116,238.357l.068-2.72L25.172,232.6c.136,1.133.363,3.649-.272,5.077Z" transform="translate(6386.805 3453.262)"/>
      <path id="Path_10404" data-name="Path 10404" class="cls-7" d="M534.424,348.074l.113-4.306-2.924-.068-.113,4.759Z" transform="translate(5995.018 3367.341)"/>
    </g>
    <g id="Rectangle_4620" data-name="Rectangle 4620" class="cls-10" transform="translate(6344 3603)">
      <rect class="cls-11" width="225.994" height="141.821" rx="5"/>
      <rect class="cls-12" x="1" y="1" width="223.994" height="139.821" rx="4"/>
    </g>
    <rect id="Rectangle_4673" data-name="Rectangle 4673" class="cls-7" width="4.306" height="2.924" transform="translate(6491.264 3711.836) rotate(-88.63)"/>
  </g>
</svg>
