<svg xmlns="http://www.w3.org/2000/svg" viewBox="-6921.151 -1016.79 1084.371 243.703"><defs><style>.a,.b{fill:#fff;font-family:SegoeUI, Segoe UI;}.a{font-size:17px;}.b{font-size:31px;}</style></defs><g transform="translate(-7644 -5802)"><text class="a" transform="translate(1119.917 4832.104)"><tspan x="0" y="0">#137Pillars</tspan></text><text class="a" transform="translate(1046.792 4803.21)"><tspan x="0" y="0">#RAWEEKANLAYABKK</tspan></text><text class="a" transform="translate(1215.593 4861.472)"><tspan x="0" y="0">#SinoukCoffee</tspan></text><text class="a" transform="translate(951.424 4956.808)"><tspan x="0" y="0">#OCKPOKTOK</tspan></text><text class="a" transform="translate(1108.929 4959.808)"><tspan x="0" y="0">#Kampot</tspan></text><text class="a" transform="translate(1626.969 4910.66)"><tspan x="0" y="0">#THAISMILE</tspan></text><text class="a" transform="translate(1021.46 4918.959)"><tspan x="0" y="0">#Laos</tspan></text><text class="a" transform="translate(830.34 4994.244)"><tspan x="0" y="0">#SIEMREAPMOMENTS</tspan></text><text class="a" transform="translate(1176.005 5024.913)"><tspan x="0" y="0">#InterContinentalBKK</tspan></text><text class="a" transform="translate(1216.349 4972.033)"><tspan x="0" y="0">#SofitelLuangPrabang</tspan></text><text class="a" transform="translate(1472.629 4972.032)"><tspan x="0" y="0">#BangkokRiver</tspan></text><text class="a" transform="translate(1502.856 4889.661)"><tspan x="0" y="0">#AsianTrails</tspan></text><text class="a" transform="translate(1492.397 4930.621)"><tspan x="0" y="0">#KamuLodge</tspan></text><text class="a" transform="translate(1411.789 4861.473)"><tspan x="0" y="0">#LaoAiRlines</tspan></text><text class="a" transform="translate(1545.235 4851.472)"><tspan x="0" y="0">#BANGKOKTOURISM</tspan></text><text class="a" transform="translate(722.849 4898.661)"><tspan x="0" y="0">#CHOUIFONGTEAHOUSE</tspan></text><text class="a" transform="translate(1295.334 4827.12)"><tspan x="0" y="0">#GreenDiscoveryLaos</tspan></text><text class="a" transform="translate(1421.356 5013.131)"><tspan x="0" y="0">#SaigonTourism</tspan></text><text class="a" transform="translate(1077.706 4872.163)"><tspan x="0" y="0">#GerritsTour</tspan></text><text class="a" transform="translate(946.367 4872.162)"><tspan x="0" y="0">#VesperBar</tspan></text><text class="a" transform="translate(842.679 4841.586)"><tspan x="0" y="0">#DOICHAANGCOFFEE</tspan></text><text class="a" transform="translate(1642.219 4948.032)"><tspan x="0" y="0">#DOICHAANGCOFFEE</tspan></text><text class="a" transform="translate(1077.135 4999.52)"><tspan x="0" y="0">#AirAsia</tspan></text><text class="a" transform="translate(788.852 4928.879)"><tspan x="0" y="0">#AmazingThailand</tspan></text><text class="b" transform="translate(1148 4922)"><tspan x="0" y="0">#MekongMoments</tspan></text></g></svg>