<svg xmlns="http://www.w3.org/2000/svg" viewBox="-7461.958 -660.168 371.089 352.888"><defs><style>.a,.b,.c,.d,.e,.g{fill:#89c966;}.a{opacity:0.6;}.b{opacity:0.8;}.d{opacity:0.4;}.e{opacity:0.5;}.f,.h{fill:#fff;}.f,.g{font-size:12px;font-family:SegoeUI, Segoe UI;}.i{fill:none;stroke:#89c966;stroke-miterlimit:10;stroke-width:2.904px;}.j{fill:#231f20;}.k{fill:#263e90;}.l{fill:#f5eb27;}.m{fill:#ea2229;}.n{fill:#828385;}.o{fill:#8bc541;}.p{fill:#ec1a7d;}.q{fill:#0d723d;}</style></defs><g transform="translate(-7461.945 -660.168)"><path class="a" d="M201.2,152.938,186.6,131.8a62.95,62.95,0,0,1-25.4,36.193,61.13,61.13,0,0,1-24.027,9.885L120.6,199.624l14.447,21.442a105.264,105.264,0,0,0,91.7-75.427Z" transform="translate(62.804 68.629)"/><path class="b" d="M171.5,64.2l-.912,26.917-24.483,7.3a62.739,62.739,0,0,1,28.589,61.437l15.359,22.2,25.092-7.147a105.551,105.551,0,0,0-15.663-82.879A103.579,103.579,0,0,0,171.5,64.2Z" transform="translate(76.083 33.429)"/><path class="c" d="M106.492,83.675l-.608,25.7c1.521-1.217,3.193-2.433,4.866-3.65a62.886,62.886,0,0,1,62.5-4.866l25.7-7.756.912-26.156A105.2,105.2,0,0,0,86.722,70.6c-1.825,1.217-3.65,2.585-5.322,3.954Z" transform="translate(42.393 27.184)"/><path class="d" d="M77.223,163.532l24.483,8.516a62.612,62.612,0,0,1,12.622-66.455l.608-27.221L90.453,69.4a105.15,105.15,0,0,0-29.5,114.813Z" transform="translate(28.474 36.137)"/><path class="e" d="M145.46,197.545l15.663-20.53a62.414,62.414,0,0,1-55.81-27.221,47.608,47.608,0,0,1-3.193-5.17L76.267,135.5,60.3,155.878a98.857,98.857,0,0,0,9.885,17.944,105.672,105.672,0,0,0,90.178,45.925Z" transform="translate(31.406 70.556)"/><path class="c" d="M188.089,50.64H107.8a25.441,25.441,0,0,1-25.4-25.4h0A25.508,25.508,0,0,1,107.8,0h80.293a25.441,25.441,0,0,1,25.4,25.4h0A25.409,25.409,0,0,1,188.089,50.64Z" transform="translate(42.913)"/><g transform="translate(143.789 10.836)"><text class="f" transform="translate(8.733 11)"><tspan x="0" y="0">INCREASED</tspan></text><text class="f" transform="translate(0 25.119)"><tspan x="0" y="0">ENGAGEMENT</tspan></text></g><g transform="translate(290.075 120.258)"><text class="g" transform="translate(0 9)"><tspan x="0" y="0">MORE SHARED</tspan></text><text class="g" transform="translate(17.792 25.272)"><tspan x="0" y="0">MOMENTS</tspan></text></g><g transform="translate(247.153 281.157)"><text class="g" transform="translate(0 9)"><tspan x="0" y="0">MORE BUSINESS</tspan></text><text class="g" transform="translate(22.05 25.272)"><tspan x="0" y="0">EXPOSURE</tspan></text></g><g transform="translate(-0.014 119.28)"><text class="g" transform="translate(9.733 9)"><tspan x="0" y="0">MORE</tspan></text><text class="g" transform="translate(0 25.272)"><tspan x="0" y="0">TRAFFIC</tspan></text></g><g transform="translate(13.996 281.157)"><text class="g" transform="translate(16.728 9)"><tspan x="0" y="0">HIGHER</tspan></text><text class="g" transform="translate(0 25.272)"><tspan x="0" y="0">RELEVANCE</tspan></text></g><circle class="h" cx="50.487" cy="50.487" r="50.487" transform="translate(138.392 134.431)"/><path class="i" d="M248.115,77.9l-5.17,15.663A165.482,165.482,0,0,0,173.6,26.2" transform="translate(90.402 13.643)"/><path class="i" d="M234.436,211.912,217.1,215.258A164.261,164.261,0,0,0,240.671,130.4a154.142,154.142,0,0,0-1.521-22.2" transform="translate(113.053 56.341)"/><path class="i" d="M63.085,226.063,60.5,210.4a164.787,164.787,0,0,0,193.738,0" transform="translate(31.51 109.557)"/><path class="i" d="M42.964,215.158A164.261,164.261,0,0,1,19.393,130.3a154.14,154.14,0,0,1,1.521-22.2L8.9,119.657" transform="translate(4.641 56.288)"/><path class="i" d="M29.2,94.557A165.483,165.483,0,0,1,98.544,27.189L79.992,24.3" transform="translate(15.212 12.653)"/><g transform="translate(158.769 151.31)"><g transform="translate(0 36.383)"><g transform="translate(4.41)"><path class="j" d="M108.973,124.091h0c1.217,3.8,2.281,7.147,3.193,10.189.3-1.064.76-2.433,1.369-4.41.76-2.281,1.369-4.106,1.673-5.17,0-.152.3-.3.608-.3h.456c.152-.152.152-.3.3-.3.3-.152.608-.152.608,0v10.8a.836.836,0,0,1-.456.76c-.3.152-.608.3-.608,0v-9.885q-.456,1.6-1.369,4.106c-.76,2.281-1.217,4.106-1.673,5.17,0,.152-.3.3-.608.3a.559.559,0,0,1-.456-.152.149.149,0,0,1-.152.152c-.152.3-.3.3-.456.152v-.152c-.912-3.193-1.977-6.387-3.041-9.885v9.276a.836.836,0,0,1-.456.76c-.3.152-.456.3-.608,0V124.7a.836.836,0,0,1,.456-.76c.3-.152.608-.152.608,0v.152" transform="translate(-107.3 -123.217)"/><path class="j" d="M116.477,130.314h4.106a.531.531,0,0,0,.3-.152,3.744,3.744,0,0,0-.152-1.825,2.215,2.215,0,0,0-.912-1.369,1.838,1.838,0,0,0-1.521-.456,1.928,1.928,0,0,0-1.369.608,4.616,4.616,0,0,0-.912,2.585,8.213,8.213,0,0,0,0,2.737,2.866,2.866,0,0,0,.608,1.369c.3.456.456.76.912.912a1.616,1.616,0,0,0,1.217.152,1.539,1.539,0,0,0,1.064-.608,3.591,3.591,0,0,1,1.369-.912c.3,0,.456,0,.3.152,0,.152-.152.3-.152.456a3.585,3.585,0,0,1-2.433,1.369,3.141,3.141,0,0,1-2.433-.76,5.384,5.384,0,0,1-1.369-2.433,6.194,6.194,0,0,1-.152-3.346,4.481,4.481,0,0,1,.76-1.977,2.811,2.811,0,0,1,1.369-1.064,6.237,6.237,0,0,1,1.673-.152,4.554,4.554,0,0,1,1.521.608,4.032,4.032,0,0,1,.76.912,2.022,2.022,0,0,1,.456,1.217,3.349,3.349,0,0,1,.152,1.217.92.92,0,0,1-.456.912,1.139,1.139,0,0,1-.76.152,3.779,3.779,0,0,1-1.217-.152c-.608,0-.912-.152-1.217-.152a4.368,4.368,0,0,1-1.825-.3c-.152-.152,0-.152.152-.152C116.325,130.314,116.477,130.314,116.477,130.314Z" transform="translate(-103.399 -122.292)"/><path class="j" d="M126.179,127.8a15.808,15.808,0,0,1-2.281,2.281l-.3.3h0c.912,1.673,1.825,3.193,2.737,4.714a1.15,1.15,0,0,1-.152.608c-.152.3-.3.3-.456.152-.76-1.217-1.673-2.737-2.737-4.714v-.3a9.016,9.016,0,0,1-1.217,1.217c-.152.152-.152.152-.3,0v2.281a.836.836,0,0,1-.456.76c-.3.152-.608.152-.608,0V124.3a.836.836,0,0,1,.456-.76c.3-.152.608-.152.608,0v7.147c2.281-2.433,3.5-3.8,3.8-4.106.152-.152.3-.152.608,0C126.331,127.493,126.331,127.645,126.179,127.8Z" transform="translate(-100.479 -123.425)"/><path class="j" d="M130.305,126.908c-.912-.456-1.673-.608-2.281-.152a4.178,4.178,0,0,0-1.369,2.281,8.421,8.421,0,0,0-.3,2.737,4.01,4.01,0,0,0,1.064,2.433,1.539,1.539,0,0,0,1.064.608,1.3,1.3,0,0,0,1.064,0,3.812,3.812,0,0,0,1.064-.608,2.728,2.728,0,0,0,.76-1.064,6.553,6.553,0,0,0,.456-2.585,5.571,5.571,0,0,0-.3-2.433,4.28,4.28,0,0,1-.152-1.217c0-.152.152-.152.3,0a4.757,4.757,0,0,1,.76,1.521q.228.912.456,2.281a7.534,7.534,0,0,1-.3,2.585,1.94,1.94,0,0,1-.76,1.064,4.553,4.553,0,0,1-1.217.608,3.358,3.358,0,0,1-2.433,0,5.335,5.335,0,0,1-1.217-.76,2.365,2.365,0,0,1-.912-1.217,5.448,5.448,0,0,1-.608-1.673,3.707,3.707,0,0,1,0-1.825l.456-1.825a5.307,5.307,0,0,1,.912-1.369,3.987,3.987,0,0,1,1.369-.76,2.578,2.578,0,0,1,1.521,0,2.4,2.4,0,0,1,1.217.76c.152.152.152.3,0,.3C130.609,127.06,130.457,126.908,130.305,126.908Z" transform="translate(-97.914 -122.384)"/><path class="j" d="M132.365,128.233v5.627a.815.815,0,0,1-.456.608c-.3.152-.608.152-.608,0v-7.6a.815.815,0,0,1,.456-.608.679.679,0,0,1,.76,0v.76c.152-.3.456-.456.608-.608.456-.3.76-.608,1.217-.608h1.064a1.647,1.647,0,0,1,.912.152,2.1,2.1,0,0,1,.608.456,9.839,9.839,0,0,1,.608,1.977,9.354,9.354,0,0,1,.152,1.977v3.954a1.882,1.882,0,0,1,.3.456c.152.152.152.152,0,.152h-.152c-.152-.152-.456-.152-.608-.456a1.153,1.153,0,0,1-.3-.608c-.152-.3-.152-.608-.3-.912,0-.3-.152-.608-.152-1.064v-4.866c0-.152,0-.3-.152-.3a1.518,1.518,0,0,0-.76-.608,1.3,1.3,0,0,0-1.064,0l-.912.456a1.314,1.314,0,0,0-.456.912.679.679,0,0,1-.608.456C132.517,128.233,132.517,128.233,132.365,128.233Z" transform="translate(-94.803 -122.188)"/><path class="j" d="M143.561,126.8v6.235a10.069,10.069,0,0,1-.152,2.281,4.95,4.95,0,0,1-.608,2.129,3.329,3.329,0,0,1-1.521,1.369,3.707,3.707,0,0,1-1.825,0,3.156,3.156,0,0,1-1.521-.912.716.716,0,0,1-.152-.912c.152-.3.3-.3.3-.3a.149.149,0,0,1,.152.152,2.365,2.365,0,0,0,.912,1.217,1.4,1.4,0,0,0,1.521.152c.76-.3,1.369-1.217,1.521-2.889v-.76c-.3.152-.456.3-.76.456a2.965,2.965,0,0,1-2.281,0,5.335,5.335,0,0,1-1.217-.76,3.66,3.66,0,0,1-.912-1.217,6.016,6.016,0,0,1-.608-3.346,4.049,4.049,0,0,1,.456-1.825,2.941,2.941,0,0,1,.76-1.369,2.469,2.469,0,0,1,1.369-.76,2.578,2.578,0,0,1,1.521,0,2.4,2.4,0,0,1,1.217.76c.152.152.152.3,0,.3s-.152-.152-.3-.152c-.912-.456-1.673-.608-2.281,0a4.06,4.06,0,0,0-1.217,2.433,8.307,8.307,0,0,0-.152,2.737,4.01,4.01,0,0,0,1.064,2.433,3.181,3.181,0,0,0,.912.608,2.588,2.588,0,0,0,1.064-.152,4.033,4.033,0,0,0,.912-.76,2.451,2.451,0,0,0,.608-1.064,1.929,1.929,0,0,0,.152-.912v-3.8a3.779,3.779,0,0,1-.152-1.217c0-.152.152-.152.3,0l.3-.3c.3-.152.456-.3.608,0C143.561,126.651,143.561,126.651,143.561,126.8Z" transform="translate(-92.161 -122.279)"/></g><g transform="translate(0 15.207)"><path class="j" d="M106.073,133.691h0c1.217,3.8,2.281,7.147,3.193,10.189.3-1.064.76-2.433,1.369-4.41.76-2.281,1.369-4.106,1.673-5.17,0-.152.3-.3.608-.3h.456c.152-.152.152-.3.3-.3.3-.152.608-.152.608,0v10.8a.836.836,0,0,1-.456.76c-.3.152-.608.3-.608,0v-9.885q-.456,1.6-1.369,4.106c-.76,2.281-1.217,4.106-1.673,5.17,0,.152-.3.3-.608.3a.559.559,0,0,1-.456-.152.149.149,0,0,1-.152.152c-.152.3-.3.3-.456.152v-.152c-.912-3.194-1.977-6.387-3.041-9.885v9.276a.836.836,0,0,1-.456.76c-.3.152-.456.3-.608,0V134.3a.836.836,0,0,1,.456-.76c.3-.152.608-.152.608,0v.152" transform="translate(-104.4 -133.425)"/><path class="j" d="M117.005,136.508c-.912-.456-1.673-.608-2.281-.152a4.178,4.178,0,0,0-1.369,2.281,8.421,8.421,0,0,0-.3,2.737,4.01,4.01,0,0,0,1.064,2.433,1.539,1.539,0,0,0,1.064.608,1.3,1.3,0,0,0,1.064,0,3.811,3.811,0,0,0,1.064-.608,2.728,2.728,0,0,0,.76-1.064,6.554,6.554,0,0,0,.456-2.585,5.572,5.572,0,0,0-.3-2.433,4.28,4.28,0,0,1-.152-1.217c0-.152.152-.152.3,0a4.757,4.757,0,0,1,.76,1.521q.228.912.456,2.281a7.533,7.533,0,0,1-.3,2.585,1.939,1.939,0,0,1-.76,1.064,4.552,4.552,0,0,1-1.217.608,3.358,3.358,0,0,1-2.433,0,5.335,5.335,0,0,1-1.217-.76,2.365,2.365,0,0,1-.912-1.217,5.448,5.448,0,0,1-.608-1.673,3.707,3.707,0,0,1,0-1.825l.456-1.825a5.307,5.307,0,0,1,.912-1.369,3.988,3.988,0,0,1,1.369-.76,2.578,2.578,0,0,1,1.521,0,2.4,2.4,0,0,1,1.217.76c.152.152.152.3,0,.3C117.157,136.66,117.157,136.66,117.005,136.508Z" transform="translate(-100.43 -132.592)"/><path class="j" d="M119.325,136.16l.152-.152a4.553,4.553,0,0,1,1.217-.608h1.064a1.929,1.929,0,0,1,.912.152,2.1,2.1,0,0,1,.608.456c.152.3.152.608.3.76a3.317,3.317,0,0,1,.608-.76c.456-.3.76-.608,1.217-.608h1.064a1.929,1.929,0,0,1,.912.152,2.1,2.1,0,0,1,.608.456,8.716,8.716,0,0,1,.608,2.129,9.355,9.355,0,0,1,.152,1.977v3.954a1.882,1.882,0,0,1,.3.456c.152.152.152.152,0,.152h-.152c-.152-.152-.456-.152-.608-.3a1.153,1.153,0,0,1-.3-.608c-.152-.3-.152-.608-.3-.912,0-.3-.152-.608-.152-1.064v-4.866c0-.152,0-.3-.152-.3a1.518,1.518,0,0,0-.76-.608,1.3,1.3,0,0,0-1.064,0c-.3,0-.608.3-.912.456a1.314,1.314,0,0,0-.456.912.679.679,0,0,1-.608.456h-.152v.3a9.354,9.354,0,0,1,.152,1.977v3.954a1.882,1.882,0,0,1,.3.456c.152.152.152.152,0,.152h-.152c-.152-.152-.456-.152-.608-.3a1.153,1.153,0,0,1-.3-.608c-.152-.3-.152-.608-.3-.912,0-.3-.152-.608-.152-1.064v-4.866c0-.152,0-.3-.152-.3a1.518,1.518,0,0,0-.76-.608,1.3,1.3,0,0,0-1.064,0c-.3,0-.608.3-.912.456a1.314,1.314,0,0,0-.456.912q0,.228-.456.456v5.931a.815.815,0,0,1-.456.608c-.3.152-.608.152-.608,0v-7.6a.815.815,0,0,1,.456-.608.679.679,0,0,1,.76,0c.608-.152.608-.152.608,0Z" transform="translate(-97.579 -132.397)"/><path class="j" d="M127.778,139.914h4.106a.531.531,0,0,0,.3-.152,3.744,3.744,0,0,0-.152-1.825,2.215,2.215,0,0,0-.912-1.369,1.838,1.838,0,0,0-1.521-.456,1.928,1.928,0,0,0-1.369.608,4.616,4.616,0,0,0-.912,2.585,8.212,8.212,0,0,0,0,2.737,2.866,2.866,0,0,0,.608,1.369c.3.456.456.76.912.912a1.616,1.616,0,0,0,1.217.152,1.539,1.539,0,0,0,1.064-.608,3.591,3.591,0,0,1,1.369-.912c.3,0,.456,0,.3.152,0,.152-.152.3-.152.456a3.585,3.585,0,0,1-2.433,1.369,3.141,3.141,0,0,1-2.433-.76,5.384,5.384,0,0,1-1.369-2.433,6.194,6.194,0,0,1-.152-3.346,4.481,4.481,0,0,1,.76-1.977,2.811,2.811,0,0,1,1.369-1.064,6.237,6.237,0,0,1,1.673-.152,4.555,4.555,0,0,1,1.521.608,4.033,4.033,0,0,1,.76.912,2.023,2.023,0,0,1,.456,1.217,3.348,3.348,0,0,1,.152,1.217.92.92,0,0,1-.456.912,1.139,1.139,0,0,1-.76.152,3.779,3.779,0,0,1-1.217-.152c-.608,0-.912-.152-1.217-.152a4.368,4.368,0,0,1-1.825-.3c-.152-.152,0-.152.152-.152C127.625,139.914,127.778,139.914,127.778,139.914Z" transform="translate(-93.105 -132.501)"/><path class="j" d="M132.865,137.933v5.627a.815.815,0,0,1-.456.608c-.3.152-.608.152-.608,0v-7.6a.815.815,0,0,1,.456-.608.679.679,0,0,1,.76,0v.76c.152-.3.456-.456.608-.608.456-.3.76-.608,1.217-.608h1.064a1.929,1.929,0,0,1,.912.152,2.1,2.1,0,0,1,.608.456,9.835,9.835,0,0,1,.608,1.977,9.353,9.353,0,0,1,.152,1.977v3.954a1.881,1.881,0,0,1,.3.456c.152.152.152.152,0,.152h-.152c-.152-.152-.456-.152-.608-.456-.152-.152-.3-.456-.456-.608-.152-.3-.152-.608-.3-.912,0-.3-.152-.608-.152-1.064v-4.866c0-.152,0-.3-.152-.3a1.518,1.518,0,0,0-.76-.608,1.3,1.3,0,0,0-1.064,0l-.912.456a1.314,1.314,0,0,0-.456.912.679.679,0,0,1-.608.456A.21.21,0,0,1,132.865,137.933Z" transform="translate(-90.133 -132.345)"/><path class="j" d="M138.994,134.2v2.281h.912c.152,0,.152.152.3.3s0,.3-.152.3h-1.065v3.954c0,.76.152,1.521.152,2.281.152.608.3,1.217.456,1.673a1.882,1.882,0,0,0,.456.3c.152.152.152.152,0,.152h-.76a.559.559,0,0,1-.456-.152c-.152,0-.3-.152-.456-.3s-.3-.3-.3-.456a.559.559,0,0,1-.152-.456v-7.147h-.3c-.152,0-.152-.152-.3-.3s0-.3.152-.3h.456v-1.977q0-.228.456-.456c.3,0,.608,0,.608.3Z" transform="translate(-87.29 -133.178)"/><path class="j" d="M145.053,137.244a4.033,4.033,0,0,0-.76-.912,1.314,1.314,0,0,0-.912-.456,2.255,2.255,0,0,0-1.065.152,1.833,1.833,0,0,0-.76.76,2.2,2.2,0,0,0-.3,1.064,2.255,2.255,0,0,0,.152,1.064c0,.152.152.152.3.3s.3.152.456.3a.559.559,0,0,0,.456.152c.152,0,.3.152.456.152a1.177,1.177,0,0,0,.456.152,1.177,1.177,0,0,1,.456.152,1.177,1.177,0,0,0,.456.152c.152,0,.3.152.456.152s.3.152.456.3.3.152.3.3a2.27,2.27,0,0,1,.456,1.521,2.018,2.018,0,0,1-.456,1.521,3.633,3.633,0,0,1-2.129.76,4.1,4.1,0,0,1-2.281-.76.94.94,0,0,1-.3-1.064c.152-.3.152-.456.3-.456s.152,0,.152.152a1.7,1.7,0,0,0,1.064,1.217,2.543,2.543,0,0,0,1.825.152,1.187,1.187,0,0,0,.608-.608c.152-.3.152-.608.3-.912V141.2a.149.149,0,0,0-.152-.152l-1.217-.608-1.369-.456a4.553,4.553,0,0,1-1.217-.608,2.044,2.044,0,0,1-.912-1.064.969.969,0,0,1,0-.912l.456-.912c.152-.3.456-.456.76-.76a2.569,2.569,0,0,1,.76-.3,4.06,4.06,0,0,1,2.737.456l.456.456a.559.559,0,0,1,.152.456c0,.152,0,.152-.152.3a.558.558,0,0,0-.456.152Z" transform="translate(-85.746 -132.416)"/></g></g><g transform="translate(11.862)"><g transform="translate(5.018 14.143)"><rect class="k" width="1.217" height="3.802"/></g><g transform="translate(11.101 8.82)"><rect class="k" width="4.41" height="1.217"/><rect class="k" width="1.217" height="2.281" transform="translate(10.037 4.258)"/><path class="k" d="M128.964,115.1v1.217H120.6v1.217h9.428V115.1Z" transform="translate(-118.927 -100.197)"/></g><path class="l" d="M123.128,112.328H113.7V102.9h9.428Zm-8.212-1.064h7.147v-7.147h-7.147Z" transform="translate(-111.419 -97.73)"/><path class="m" d="M132.445,111.97h-9.428V100.717h11.405v5.627h1.064V99.5H121.8v13.686h10.645Z" transform="translate(-107.201 -99.5)"/><path class="n" d="M125.734,124.534H112.2V111h13.534Zm-12.318-1.217h11.1v-11.1h-11.1Z" transform="translate(-112.2 -93.512)"/><path class="o" d="M130.733,113.6v1.217h3.041v4.258h-4.258v-3.346H128.3v4.562h6.691V113.6Z" transform="translate(-103.817 -92.158)"/><path class="p" d="M132.364,111.533v6.083h-7.147v-7.3H131.6V109.1H124v9.733h9.58v-7.3Z" transform="translate(-106.056 -94.501)"/><path class="q" d="M140.262,115.362H128.4V103.5h11.862Zm-10.645-1.217h9.428v-9.428h-9.428Z" transform="translate(-103.765 -97.417)"/></g></g></g></svg>