<svg xmlns="http://www.w3.org/2000/svg" xmlns:xlink="http://www.w3.org/1999/xlink" viewBox="-7294.175 -4433.226 32.317 32.317"><defs><style>.a{clip-path:url(#a);}.b{fill:url(#b);}</style><clipPath id="a"><path d="M63.025,227.359a5.334,5.334,0,1,1,5.334,5.334,5.39,5.39,0,0,1-5.334-5.334m-2.824,0a8.315,8.315,0,1,0,8.315-8.315,8.37,8.37,0,0,0-8.315,8.315m14.9-8.628a1.883,1.883,0,1,0,1.883-1.883A1.908,1.908,0,0,0,75.1,218.73M61.927,240.38a6,6,0,0,1-2.981-.628,5.768,5.768,0,0,1-3.138-3.138,15.169,15.169,0,0,1-.628-2.981c0-1.726-.157-2.2-.157-6.589a61.468,61.468,0,0,1,.157-6.589,6,6,0,0,1,.628-2.981,5.768,5.768,0,0,1,3.138-3.138,15.169,15.169,0,0,1,2.981-.628c1.726,0,2.2-.157,6.589-.157a61.464,61.464,0,0,1,6.589.157,6,6,0,0,1,2.981.628,5.769,5.769,0,0,1,3.138,3.138,15.17,15.17,0,0,1,.628,2.981c0,1.726.157,2.2.157,6.589a61.47,61.47,0,0,1-.157,6.589,6,6,0,0,1-.628,2.981,5.769,5.769,0,0,1-3.138,3.138,15.166,15.166,0,0,1-2.981.628c-1.726,0-2.2.157-6.589.157a59.746,59.746,0,0,1-6.589-.157m-.157-29.023a9.146,9.146,0,0,0-3.922.784,8.653,8.653,0,0,0-4.706,4.706,12.329,12.329,0,0,0-.784,3.922,59.742,59.742,0,0,0-.157,6.589,59.741,59.741,0,0,0,.157,6.589,9.146,9.146,0,0,0,.784,3.922,8.653,8.653,0,0,0,4.706,4.706,12.329,12.329,0,0,0,3.922.784,59.742,59.742,0,0,0,6.589.157,59.741,59.741,0,0,0,6.589-.157,9.146,9.146,0,0,0,3.922-.784,8.653,8.653,0,0,0,4.706-4.706,12.329,12.329,0,0,0,.784-3.922,59.742,59.742,0,0,0,.157-6.589,59.742,59.742,0,0,0-.157-6.589,9.146,9.146,0,0,0-.784-3.922,8.653,8.653,0,0,0-4.706-4.706,12.329,12.329,0,0,0-3.922-.784,59.73,59.73,0,0,0-6.589-.157,61.459,61.459,0,0,0-6.589.157" transform="translate(-52.2 -211.2)"/></clipPath><radialGradient id="b" cx="1.436" cy="37.74" r="46.824" gradientUnits="userSpaceOnUse"><stop offset="0" stop-color="#fccc63"/><stop offset="0.081" stop-color="#fbb655"/><stop offset="0.135" stop-color="#fbad50"/><stop offset="0.317" stop-color="#e95950"/><stop offset="0.418" stop-color="#dc515d"/><stop offset="0.504" stop-color="#cd486b"/><stop offset="0.661" stop-color="#bc2a8d"/><stop offset="0.745" stop-color="#a631a0"/><stop offset="0.871" stop-color="#8a3ab9"/><stop offset="1" stop-color="#4c68d7"/></radialGradient></defs><g class="a" transform="translate(-7294.175 -4433.226)"><rect class="b" width="35.455" height="35.455" transform="translate(-1.412 -1.569)"/></g></svg>