<svg xmlns="http://www.w3.org/2000/svg" xmlns:xlink="http://www.w3.org/1999/xlink" viewBox="-6548.282 -2046.855 736.126 278.707"><defs><style>.a{fill:#89c966;}.b{fill:#fff;}.c{fill:#f5eb27;}.d{filter:url(#a);}</style><filter id="a" x="-6548.282" y="-2046.855" width="736.126" height="278.707" filterUnits="userSpaceOnUse"><feOffset dy="3" input="SourceAlpha"/><feGaussianBlur stdDeviation="5" result="b"/><feFlood flood-color="#223400" flood-opacity="0.133"/><feComposite operator="in" in2="b"/><feComposite in="SourceGraphic"/></filter></defs><g transform="translate(-6691.061 -5910.475)"><g class="d" transform="matrix(1, 0, 0, 1, 6691.06, 5910.47)"><path class="a" d="M593,254.907a122.3,122.3,0,0,1-111.761-72.758,3.979,3.979,0,0,0-7.346,0,122.135,122.135,0,0,1-224.4-2.274,4.021,4.021,0,0,0-3.673-2.449,4.079,4.079,0,0,0-3.673,2.274,122.225,122.225,0,0,1-198.161,33.93c-23.437-23.611-35.679-55.093-34.98-88.324a121.051,121.051,0,0,1,35.68-83.077A122.085,122.085,0,0,1,127.769,6.2h3.323A121.752,121.752,0,0,1,243.727,81.232,3.756,3.756,0,0,0,247.4,83.68a4.079,4.079,0,0,0,3.673-2.274c20.288-43.025,63.663-70.834,111.061-70.834A122.3,122.3,0,0,1,473.9,83.331a4.247,4.247,0,0,0,3.673,2.449,3.788,3.788,0,0,0,3.673-2.449A122.3,122.3,0,0,1,593,10.572h4.2c64.538,2.1,116.308,54.569,117.882,119.107A122.448,122.448,0,0,1,593,254.907Z" transform="translate(-6542.27 -2041.05)"/></g><g transform="translate(190.688 3902.904)"><ellipse class="b" cx="8.57" cy="9.969" rx="8.57" ry="9.969" transform="translate(153.037 36.554)"/><path class="b" d="M136.737,48.124H114.174a.826.826,0,0,1-.874-.875v-.175a.826.826,0,0,1,.874-.874h22.562a.826.826,0,0,1,.874.874v.175A.826.826,0,0,1,136.737,48.124Z" transform="translate(36.239 -3.525)"/><path class="b" d="M130.241,42.5H117.649a2.391,2.391,0,0,0-2.449,2.449v3.5a2.391,2.391,0,0,0,2.449,2.449h12.593a2.391,2.391,0,0,0,2.449-2.449v-3.5A2.786,2.786,0,0,0,130.241,42.5Z" transform="translate(37.662 -6.296)"/><path class="b" d="M131.313,56.2l-1.049-.35a15.96,15.96,0,0,0-6.646,0l-1.049.35A15.584,15.584,0,0,0,111.2,71.241h31.482A15.584,15.584,0,0,0,131.313,56.2Z" transform="translate(34.666 3.441)"/><path class="a" d="M120.773,54.423h.35c.35,0,.525.175.874.175a1.577,1.577,0,0,0,.874-.175h.35A4.146,4.146,0,0,0,126.2,50.4h-8.4A4.146,4.146,0,0,0,120.773,54.423Z" transform="translate(39.61 -0.379)"/><ellipse class="b" cx="8.57" cy="9.969" rx="8.57" ry="9.969" transform="translate(153.037 110.187)"/><path class="b" d="M136.737,90.224H114.174a.826.826,0,0,1-.874-.874v-.175a.826.826,0,0,1,.874-.874h22.562a.826.826,0,0,1,.874.874v.35A.8.8,0,0,1,136.737,90.224Z" transform="translate(36.239 28.008)"/><path class="b" d="M130.241,84.7H117.649a2.391,2.391,0,0,0-2.449,2.449v3.5a2.391,2.391,0,0,0,2.449,2.449h12.593a2.391,2.391,0,0,0,2.449-2.449v-3.5A2.628,2.628,0,0,0,130.241,84.7Z" transform="translate(37.662 25.312)"/><path class="b" d="M131.313,98.3l-1.049-.35a15.959,15.959,0,0,0-6.646,0l-1.049.35A15.584,15.584,0,0,0,111.2,113.341h31.482A15.741,15.741,0,0,0,131.313,98.3Z" transform="translate(34.666 34.974)"/><path class="a" d="M120.773,96.523h.35c.35,0,.525.175.874.175a1.577,1.577,0,0,0,.874-.175h.35A4.146,4.146,0,0,0,126.2,92.5h-8.4A4.146,4.146,0,0,0,120.773,96.523Z" transform="translate(39.61 31.154)"/><ellipse class="b" cx="8.57" cy="9.969" rx="8.57" ry="9.969" transform="translate(7.171 110.187)"/><path class="b" d="M53.337,90.224H30.774a.826.826,0,0,1-.874-.874v-.175a.826.826,0,0,1,.874-.874H53.337a.826.826,0,0,1,.875.874v.35A.8.8,0,0,1,53.337,90.224Z" transform="translate(-26.227 28.008)"/><path class="b" d="M46.841,84.7H34.249A2.391,2.391,0,0,0,31.8,87.149v3.5A2.391,2.391,0,0,0,34.249,93.1H46.841a2.391,2.391,0,0,0,2.449-2.449v-3.5A2.5,2.5,0,0,0,46.841,84.7Z" transform="translate(-24.804 25.312)"/><path class="b" d="M47.913,98.3l-1.049-.35a19.372,19.372,0,0,0-3.323-.35,19.372,19.372,0,0,0-3.323.35l-1.049.35A15.584,15.584,0,0,0,27.8,113.341H59.282A15.741,15.741,0,0,0,47.913,98.3Z" transform="translate(-27.8 34.974)"/><path class="a" d="M37.373,96.523h.35c.35,0,.525.175.875.175a1.577,1.577,0,0,0,.875-.175h.35A4.146,4.146,0,0,0,42.8,92.5H34.4A4.146,4.146,0,0,0,37.373,96.523Z" transform="translate(-22.857 31.154)"/><ellipse class="b" cx="8.57" cy="9.969" rx="8.57" ry="9.969" transform="translate(80.629 77.306)"/><path class="b" d="M95.337,71.424H72.774a.826.826,0,0,1-.874-.874v-.175a.826.826,0,0,1,.874-.874H95.337a.826.826,0,0,1,.874.874v.175A.826.826,0,0,1,95.337,71.424Z" transform="translate(5.231 13.927)"/><path class="b" d="M88.841,65.9H76.249A2.391,2.391,0,0,0,73.8,68.349v3.5A2.391,2.391,0,0,0,76.249,74.3H88.841a2.391,2.391,0,0,0,2.449-2.449v-3.5A2.628,2.628,0,0,0,88.841,65.9Z" transform="translate(6.654 11.231)"/><path class="b" d="M89.913,79.5l-1.049-.35a15.959,15.959,0,0,0-6.646,0l-1.049.35A15.584,15.584,0,0,0,69.8,94.541h31.482A15.741,15.741,0,0,0,89.913,79.5Z" transform="translate(3.658 20.893)"/><path class="a" d="M79.38,77.723h.35c.35,0,.525.175.874.175a1.577,1.577,0,0,0,.875-.175h.35A4.146,4.146,0,0,0,84.8,73.7h-8.4A3.824,3.824,0,0,0,79.38,77.723Z" transform="translate(8.595 17.073)"/><g transform="translate(73.458)"><ellipse class="b" cx="8.57" cy="9.969" rx="8.57" ry="9.969" transform="translate(7.171 0.175)"/><path class="b" d="M95.411,27.324H72.674a.826.826,0,0,1-.874-.874v-.175a.826.826,0,0,1,.874-.874H95.237a.826.826,0,0,1,.874.874v.175A.8.8,0,0,1,95.411,27.324Z" transform="translate(-68.302 -19.104)"/><path class="b" d="M88.741,21.8H76.149A2.391,2.391,0,0,0,73.7,24.249v3.5A2.391,2.391,0,0,0,76.149,30.2H88.741a2.391,2.391,0,0,0,2.449-2.449v-3.5A2.391,2.391,0,0,0,88.741,21.8Z" transform="translate(-66.879 -21.8)"/><path class="b" d="M75.7,44.6v6.646H86.369V44.6Zm5.422,5.6A2.274,2.274,0,1,1,83.4,47.923,2.315,2.315,0,0,1,81.122,50.2Z" transform="translate(-65.381 -4.723)"/><g transform="translate(0 22.737)"><path class="b" d="M81.2,50.241H92.568A15.631,15.631,0,0,0,81.2,35.2Z" transform="translate(-61.261 -34.5)"/><path class="b" d="M76.9,50.541h6.646V35.15a15.959,15.959,0,0,0-6.646,0Z" transform="translate(-64.482 -34.8)"/><path class="b" d="M81.168,35.1A15.584,15.584,0,0,0,69.8,50.141H81.168Z" transform="translate(-69.8 -34.575)"/></g></g><path class="a" d="M79.273,33.623h.35c.35,0,.525.175.874.175a1.577,1.577,0,0,0,.875-.175h.35A4.146,4.146,0,0,0,84.7,29.6H76.3A4,4,0,0,0,79.273,33.623Z" transform="translate(8.526 -15.958)"/><g transform="translate(73.458 146.216)"><ellipse class="b" cx="8.57" cy="9.969" rx="8.57" ry="9.969" transform="translate(7.171 0.35)"/><path class="b" d="M95.411,111.024H72.674a.826.826,0,0,1-.874-.874v-.175a.826.826,0,0,1,.874-.875H95.237a.826.826,0,0,1,.874.875v.175A.8.8,0,0,1,95.411,111.024Z" transform="translate(-68.302 -102.629)"/><path class="b" d="M88.741,105.4H76.149a2.391,2.391,0,0,0-2.449,2.449v3.5a2.391,2.391,0,0,0,2.449,2.449H88.741a2.391,2.391,0,0,0,2.449-2.449v-3.5A2.391,2.391,0,0,0,88.741,105.4Z" transform="translate(-66.879 -105.4)"/><path class="b" d="M75.7,128.2v6.646H86.369V128.2Zm5.422,5.6a2.274,2.274,0,1,1,2.274-2.274A2.315,2.315,0,0,1,81.122,133.8Z" transform="translate(-65.381 -88.323)"/><g transform="translate(0 22.737)"><path class="b" d="M81.2,133.841H92.568A15.631,15.631,0,0,0,81.2,118.8Z" transform="translate(-61.261 -118.1)"/><path class="b" d="M76.9,134.141h6.646V118.75a15.96,15.96,0,0,0-6.646,0Z" transform="translate(-64.482 -118.4)"/><path class="b" d="M81.168,118.8A15.584,15.584,0,0,0,69.8,133.841H81.168Z" transform="translate(-69.8 -118.1)"/></g></g><path class="a" d="M79.273,117.323h.35c.35,0,.525.175.874.175a1.577,1.577,0,0,0,.875-.175h.35A4.146,4.146,0,0,0,84.7,113.3H76.3A4.146,4.146,0,0,0,79.273,117.323Z" transform="translate(8.526 46.733)"/><g transform="translate(0.175 36.204)"><ellipse class="b" cx="8.57" cy="9.969" rx="8.57" ry="9.969" transform="translate(6.996 0.35)"/><path class="b" d="M53.511,48.124H30.774a.826.826,0,0,1-.874-.875v-.175a.826.826,0,0,1,.874-.874H53.337a.826.826,0,0,1,.875.874v.175A.8.8,0,0,1,53.511,48.124Z" transform="translate(-26.402 -39.729)"/><path class="b" d="M46.841,42.5H34.249A2.391,2.391,0,0,0,31.8,44.949v3.5A2.391,2.391,0,0,0,34.249,50.9H46.841a2.391,2.391,0,0,0,2.449-2.449v-3.5A2.5,2.5,0,0,0,46.841,42.5Z" transform="translate(-24.979 -42.5)"/><path class="b" d="M33.8,65.3v6.646H44.469V65.3Zm5.247,5.6a2.274,2.274,0,1,1,2.274-2.274A2.2,2.2,0,0,1,39.047,70.9Z" transform="translate(-23.481 -25.423)"/><g transform="translate(0 22.737)"><path class="b" d="M39.3,70.941H50.668A15.631,15.631,0,0,0,39.3,55.9Z" transform="translate(-19.361 -55.2)"/><path class="b" d="M34.9,71.241h6.646V55.85a19.372,19.372,0,0,0-3.323-.35,19.372,19.372,0,0,0-3.323.35V71.241Z" transform="translate(-22.657 -55.5)"/><path class="b" d="M39.268,55.9A15.584,15.584,0,0,0,27.9,70.941H39.268Z" transform="translate(-27.9 -55.2)"/></g></g><path class="a" d="M37.373,54.423h.35c.35,0,.525.175.875.175a1.577,1.577,0,0,0,.875-.175h.35A4.146,4.146,0,0,0,42.8,50.4H34.4A4.146,4.146,0,0,0,37.373,54.423Z" transform="translate(-22.857 -0.379)"/><ellipse class="b" cx="8.57" cy="9.969" rx="8.57" ry="9.969" transform="translate(383.904 40.927)"/><path class="b" d="M268.836,50.624H246.274a.826.826,0,0,1-.875-.874v-.175a.826.826,0,0,1,.875-.875h22.562a.826.826,0,0,1,.875.875v.175C269.536,50.274,269.186,50.624,268.836,50.624Z" transform="translate(135.181 -1.652)"/><path class="b" d="M262.241,45.1H249.649a2.391,2.391,0,0,0-2.449,2.449v3.5a2.391,2.391,0,0,0,2.449,2.449h12.593a2.391,2.391,0,0,0,2.449-2.449v-3.5A2.391,2.391,0,0,0,262.241,45.1Z" transform="translate(136.53 -4.349)"/><path class="b" d="M263.313,58.7l-1.049-.35a15.959,15.959,0,0,0-6.646,0l-1.049.35A15.584,15.584,0,0,0,243.2,73.741h31.482A15.534,15.534,0,0,0,263.313,58.7Z" transform="translate(133.534 5.314)"/><path class="a" d="M252.773,56.923h.35c.35,0,.525.175.874.175a1.577,1.577,0,0,0,.875-.175h.35A4.146,4.146,0,0,0,258.2,52.9h-8.4A4,4,0,0,0,252.773,56.923Z" transform="translate(138.477 1.494)"/><ellipse class="b" cx="8.57" cy="9.969" rx="8.57" ry="9.969" transform="translate(383.904 114.734)"/><path class="b" d="M268.836,92.824H246.274a.826.826,0,0,1-.875-.874v-.175a.826.826,0,0,1,.875-.875h22.562a.826.826,0,0,1,.875.875v.175C269.536,92.474,269.186,92.824,268.836,92.824Z" transform="translate(135.181 29.955)"/><path class="b" d="M262.241,87.2H249.649a2.391,2.391,0,0,0-2.449,2.449v3.5a2.391,2.391,0,0,0,2.449,2.449h12.593a2.391,2.391,0,0,0,2.449-2.449v-3.5A2.391,2.391,0,0,0,262.241,87.2Z" transform="translate(136.53 27.184)"/><path class="b" d="M263.313,100.9l-1.049-.35a15.96,15.96,0,0,0-6.646,0l-1.049.35A15.584,15.584,0,0,0,243.2,115.941h31.482A15.236,15.236,0,0,0,263.313,100.9Z" transform="translate(133.534 36.921)"/><path class="a" d="M252.773,99.123h.35c.35,0,.525.175.874.175a1.577,1.577,0,0,0,.875-.175h.35A4.146,4.146,0,0,0,258.2,95.1h-8.4A4.146,4.146,0,0,0,252.773,99.123Z" transform="translate(138.477 33.101)"/><ellipse class="b" cx="8.57" cy="9.969" rx="8.57" ry="9.969" transform="translate(238.213 114.734)"/><path class="b" d="M185.437,92.824H162.874a.826.826,0,0,1-.874-.874v-.175a.826.826,0,0,1,.874-.875h22.562a.826.826,0,0,1,.874.875v.175C186.136,92.474,185.786,92.824,185.437,92.824Z" transform="translate(72.715 29.955)"/><path class="b" d="M178.841,87.2H166.249a2.391,2.391,0,0,0-2.449,2.449v3.5a2.391,2.391,0,0,0,2.449,2.449h12.593a2.391,2.391,0,0,0,2.449-2.449v-3.5A2.391,2.391,0,0,0,178.841,87.2Z" transform="translate(74.063 27.184)"/><path class="b" d="M180.013,100.9l-1.049-.35a15.96,15.96,0,0,0-6.646,0l-1.049.35A15.584,15.584,0,0,0,159.9,115.941h31.482A15.631,15.631,0,0,0,180.013,100.9Z" transform="translate(71.142 36.921)"/><path class="a" d="M169.373,99.123h.35c.35,0,.525.175.875.175a1.577,1.577,0,0,0,.875-.175h.35A4.146,4.146,0,0,0,174.8,95.1h-8.4A4.146,4.146,0,0,0,169.373,99.123Z" transform="translate(76.011 33.101)"/><path class="c" d="M227.957,83.474l-1.574-.35a24.777,24.777,0,0,0-10.144,0l-1.574.35A24.447,24.447,0,0,0,197,106.911h48.622A24.289,24.289,0,0,0,227.957,83.474Z" transform="translate(98.93 23.739)"/><path class="c" d="M237,72.444h-4.722v-7.7a2.391,2.391,0,0,0-2.449-2.449H207.8a2.391,2.391,0,0,0-2.449,2.449v7.7h-4.373a.826.826,0,0,0-.874.874v1.224a.826.826,0,0,0,.874.874H205.7a16,16,0,0,0-.175,2.973c0,8.4,5.947,15.391,13.292,15.391s13.292-6.821,13.292-15.391c0-1.049-.175-1.924-.175-2.973H237a.826.826,0,0,0,.874-.874V73.319C237.7,72.794,237.354,72.444,237,72.444Zm-16.615,17.49-.35.175a3.41,3.41,0,0,1-1.4.175,3.851,3.851,0,0,1-1.4-.175l-.35-.175a6.561,6.561,0,0,1-4.722-6.121h12.943A6.2,6.2,0,0,1,220.388,89.934Z" transform="translate(101.252 8.534)"/><g transform="translate(304.325 4.372)"><ellipse class="b" cx="8.57" cy="9.969" rx="8.57" ry="9.969" transform="translate(7.171 0.35)"/><path class="b" d="M227.337,29.924H204.775a.826.826,0,0,1-.875-.875v-.175a.826.826,0,0,1,.875-.875h22.562a.826.826,0,0,1,.874.875v.175A.826.826,0,0,1,227.337,29.924Z" transform="translate(-200.227 -21.529)"/><path class="b" d="M220.741,24.3H208.149a2.391,2.391,0,0,0-2.449,2.449v3.5a2.391,2.391,0,0,0,2.449,2.449h12.593a2.391,2.391,0,0,0,2.449-2.449v-3.5A2.391,2.391,0,0,0,220.741,24.3Z" transform="translate(-198.879 -24.3)"/><path class="b" d="M207.8,47.1v6.646h10.669V47.1Zm5.247,5.6a2.274,2.274,0,1,1,2.274-2.274A2.315,2.315,0,0,1,213.047,52.7Z" transform="translate(-197.306 -7.223)"/><g transform="translate(0 22.737)"><path class="b" d="M213.3,52.741h11.368A15.631,15.631,0,0,0,213.3,37.7Z" transform="translate(-193.187 -37)"/><path class="b" d="M208.9,53.041h6.646V37.65a15.959,15.959,0,0,0-6.646,0V53.041Z" transform="translate(-196.482 -37.3)"/><path class="b" d="M213.168,37.7A15.584,15.584,0,0,0,201.8,52.741h11.368Z" transform="translate(-201.8 -37)"/></g></g><path class="a" d="M211.38,36.223h.35c.35,0,.525.175.875.175a1.577,1.577,0,0,0,.875-.175h.35A4.146,4.146,0,0,0,216.8,32.2h-8.4A3.952,3.952,0,0,0,211.38,36.223Z" transform="translate(107.462 -14.01)"/><g transform="translate(304.325 150.763)"><ellipse class="b" cx="8.57" cy="9.969" rx="8.57" ry="9.969" transform="translate(7.171 0.175)"/><path class="b" d="M227.337,113.524H204.775a.826.826,0,0,1-.875-.875v-.175a.826.826,0,0,1,.875-.874h22.562a.826.826,0,0,1,.874.874v.175A.826.826,0,0,1,227.337,113.524Z" transform="translate(-200.227 -105.304)"/><path class="b" d="M220.741,108H208.149a2.391,2.391,0,0,0-2.449,2.449v3.5a2.391,2.391,0,0,0,2.449,2.449h12.593a2.391,2.391,0,0,0,2.449-2.449v-3.5A2.391,2.391,0,0,0,220.741,108Z" transform="translate(-198.879 -108)"/><path class="b" d="M207.8,130.8v6.646h10.669V130.8Zm5.247,5.422a2.274,2.274,0,1,1,2.274-2.274A2.2,2.2,0,0,1,213.047,136.222Z" transform="translate(-197.306 -90.923)"/><g transform="translate(0 22.737)"><path class="b" d="M213.3,136.441h11.368A15.631,15.631,0,0,0,213.3,121.4Z" transform="translate(-193.187 -120.7)"/><path class="b" d="M208.9,136.741h6.646V121.35a15.959,15.959,0,0,0-6.646,0v15.391Z" transform="translate(-196.482 -121)"/><path class="b" d="M213.168,121.3A15.584,15.584,0,0,0,201.8,136.341h11.368Z" transform="translate(-201.8 -120.775)"/></g></g><path class="a" d="M211.38,119.823h.35c.35,0,.525.175.875.175a1.577,1.577,0,0,0,.875-.175h.35A4.146,4.146,0,0,0,216.8,115.8h-8.4A3.952,3.952,0,0,0,211.38,119.823Z" transform="translate(107.462 48.605)"/><g transform="translate(231.042 40.752)"><ellipse class="b" cx="8.57" cy="9.969" rx="8.57" ry="9.969" transform="translate(7.171 0.175)"/><path class="b" d="M185.437,50.624H162.874a.826.826,0,0,1-.874-.874v-.175a.826.826,0,0,1,.874-.875h22.562a.826.826,0,0,1,.874.875v.175A.937.937,0,0,1,185.437,50.624Z" transform="translate(-158.327 -42.404)"/><path class="b" d="M178.841,45.1H166.249a2.391,2.391,0,0,0-2.449,2.449v3.5a2.391,2.391,0,0,0,2.449,2.449h12.593a2.391,2.391,0,0,0,2.449-2.449v-3.5A2.391,2.391,0,0,0,178.841,45.1Z" transform="translate(-156.979 -45.1)"/><path class="b" d="M165.8,67.9v6.646h10.669V67.9Zm5.422,5.6a2.274,2.274,0,1,1,2.274-2.274A2.315,2.315,0,0,1,171.222,73.5Z" transform="translate(-155.481 -28.023)"/><g transform="translate(0 22.737)"><path class="b" d="M171.4,73.541h11.368A15.631,15.631,0,0,0,171.4,58.5Z" transform="translate(-151.287 -57.8)"/><path class="b" d="M167,73.841h6.646V58.45a15.959,15.959,0,0,0-6.646,0V73.841Z" transform="translate(-154.582 -58.1)"/><path class="b" d="M171.268,58.4A15.584,15.584,0,0,0,159.9,73.441h11.368Z" transform="translate(-159.9 -57.875)"/></g></g><path class="a" d="M169.48,56.923h.35c.35,0,.525.175.875.175a1.577,1.577,0,0,0,.874-.175h.35A4.146,4.146,0,0,0,174.9,52.9h-8.4A3.824,3.824,0,0,0,169.48,56.923Z" transform="translate(76.079 1.494)"/><ellipse class="b" cx="8.57" cy="9.969" rx="8.57" ry="9.969" transform="translate(614.772 40.927)"/><path class="b" d="M400.736,50.624H378.174a.826.826,0,0,1-.874-.874v-.175a.826.826,0,0,1,.874-.875h22.562a.826.826,0,0,1,.875.875v.175A.826.826,0,0,1,400.736,50.624Z" transform="translate(233.974 -1.652)"/><path class="b" d="M394.241,45.1H381.649a2.391,2.391,0,0,0-2.449,2.449v3.5a2.391,2.391,0,0,0,2.449,2.449h12.593a2.391,2.391,0,0,0,2.449-2.449v-3.5A2.5,2.5,0,0,0,394.241,45.1Z" transform="translate(235.397 -4.349)"/><path class="b" d="M395.313,58.7l-1.049-.35a15.959,15.959,0,0,0-6.646,0l-1.049.35A15.584,15.584,0,0,0,375.2,73.741h31.482A15.741,15.741,0,0,0,395.313,58.7Z" transform="translate(232.401 5.314)"/><path class="a" d="M384.773,56.923h.35c.35,0,.525.175.874.175a1.577,1.577,0,0,0,.874-.175h.35A4.146,4.146,0,0,0,390.2,52.9h-8.4A4,4,0,0,0,384.773,56.923Z" transform="translate(237.344 1.494)"/><ellipse class="b" cx="8.57" cy="9.969" rx="8.57" ry="9.969" transform="translate(614.772 114.734)"/><path class="b" d="M400.736,92.824H378.174a.826.826,0,0,1-.874-.874v-.175a.826.826,0,0,1,.874-.875h22.562a.826.826,0,0,1,.875.875v.175A.826.826,0,0,1,400.736,92.824Z" transform="translate(233.974 29.955)"/><path class="b" d="M394.241,87.2H381.649a2.391,2.391,0,0,0-2.449,2.449v3.5a2.391,2.391,0,0,0,2.449,2.449h12.593a2.391,2.391,0,0,0,2.449-2.449v-3.5A2.5,2.5,0,0,0,394.241,87.2Z" transform="translate(235.397 27.184)"/><path class="b" d="M395.313,100.9l-1.049-.35a15.96,15.96,0,0,0-6.646,0l-1.049.35A15.584,15.584,0,0,0,375.2,115.941h31.482A15.43,15.43,0,0,0,395.313,100.9Z" transform="translate(232.401 36.921)"/><path class="a" d="M384.773,99.123h.35c.35,0,.525.175.874.175a1.576,1.576,0,0,0,.874-.175h.35A4.146,4.146,0,0,0,390.2,95.1h-8.4A4.146,4.146,0,0,0,384.773,99.123Z" transform="translate(237.344 33.101)"/><ellipse class="b" cx="8.57" cy="9.969" rx="8.57" ry="9.969" transform="translate(468.906 114.734)"/><path class="b" d="M317.437,92.824H294.874a.826.826,0,0,1-.874-.874v-.175a.826.826,0,0,1,.874-.875h22.562a.826.826,0,0,1,.875.875v.175C318.136,92.474,317.786,92.824,317.437,92.824Z" transform="translate(171.583 29.955)"/><path class="b" d="M310.841,87.2H298.249a2.391,2.391,0,0,0-2.449,2.449v3.5a2.391,2.391,0,0,0,2.449,2.449h12.593a2.391,2.391,0,0,0,2.449-2.449v-3.5A2.391,2.391,0,0,0,310.841,87.2Z" transform="translate(172.931 27.184)"/><path class="b" d="M311.913,100.9l-1.049-.35a15.96,15.96,0,0,0-6.646,0l-1.049.35A15.584,15.584,0,0,0,291.8,115.941h31.482A15.43,15.43,0,0,0,311.913,100.9Z" transform="translate(169.935 36.921)"/><path class="a" d="M301.373,99.123h.35c.35,0,.525.175.874.175a1.577,1.577,0,0,0,.875-.175h.35A4.146,4.146,0,0,0,306.8,95.1h-8.4A4.146,4.146,0,0,0,301.373,99.123Z" transform="translate(174.878 33.101)"/><ellipse class="b" cx="8.57" cy="9.969" rx="8.57" ry="9.969" transform="translate(542.363 81.853)"/><path class="b" d="M359.337,74.024H336.774a.826.826,0,0,1-.874-.875v-.175a.826.826,0,0,1,.874-.875h22.562a.826.826,0,0,1,.874.875v.175A.826.826,0,0,1,359.337,74.024Z" transform="translate(202.965 15.874)"/><path class="b" d="M352.841,68.4H340.249a2.391,2.391,0,0,0-2.449,2.449v3.5a2.391,2.391,0,0,0,2.449,2.449h12.593a2.391,2.391,0,0,0,2.449-2.449v-3.5A2.5,2.5,0,0,0,352.841,68.4Z" transform="translate(204.388 13.103)"/><path class="b" d="M353.913,82.1l-1.049-.35a15.96,15.96,0,0,0-6.646,0l-1.049.35A15.584,15.584,0,0,0,333.8,97.141h31.482A15.584,15.584,0,0,0,353.913,82.1Z" transform="translate(201.393 22.84)"/><path class="a" d="M343.373,80.323h.35c.35,0,.525.175.874.175a1.577,1.577,0,0,0,.874-.175h.35A4.146,4.146,0,0,0,348.8,76.3h-8.4A4.146,4.146,0,0,0,343.373,80.323Z" transform="translate(206.336 19.02)"/><g transform="translate(535.193 4.372)"><ellipse class="b" cx="8.57" cy="9.969" rx="8.57" ry="9.969" transform="translate(7.171 0.35)"/><path class="b" d="M359.337,29.924H336.774a.826.826,0,0,1-.874-.875v-.175a.826.826,0,0,1,.874-.875h22.562a.826.826,0,0,1,.874.875v.175C360.036,29.574,359.686,29.924,359.337,29.924Z" transform="translate(-332.227 -21.529)"/><path class="b" d="M352.741,24.3H340.149a2.391,2.391,0,0,0-2.449,2.449v3.5a2.391,2.391,0,0,0,2.449,2.449h12.593a2.391,2.391,0,0,0,2.449-2.449v-3.5A2.391,2.391,0,0,0,352.741,24.3Z" transform="translate(-330.879 -24.3)"/><path class="b" d="M339.7,47.1v6.646h10.669V47.1Zm5.422,5.6a2.274,2.274,0,1,1,2.274-2.274A2.315,2.315,0,0,1,345.122,52.7Z" transform="translate(-329.381 -7.223)"/><g transform="translate(0 22.737)"><path class="b" d="M345.3,52.741h11.368A15.631,15.631,0,0,0,345.3,37.7Z" transform="translate(-325.187 -37)"/><path class="b" d="M340.9,53.041h6.646V37.65a15.959,15.959,0,0,0-6.646,0Z" transform="translate(-328.482 -37.3)"/><path class="b" d="M345.168,37.7A15.584,15.584,0,0,0,333.8,52.741h11.368Z" transform="translate(-333.8 -37)"/></g></g><path class="a" d="M343.38,36.223h.35c.35,0,.525.175.874.175a1.577,1.577,0,0,0,.874-.175h.35A4.146,4.146,0,0,0,348.8,32.2h-8.4A3.952,3.952,0,0,0,343.38,36.223Z" transform="translate(206.33 -14.01)"/><g transform="translate(535.193 150.763)"><ellipse class="b" cx="8.57" cy="9.969" rx="8.57" ry="9.969" transform="translate(7.171 0.175)"/><path class="b" d="M359.337,113.524H336.774a.826.826,0,0,1-.874-.875v-.175a.826.826,0,0,1,.874-.874h22.562a.826.826,0,0,1,.874.874v.175C360.036,113.174,359.686,113.524,359.337,113.524Z" transform="translate(-332.227 -105.304)"/><path class="b" d="M352.741,108H340.149a2.391,2.391,0,0,0-2.449,2.449v3.5a2.391,2.391,0,0,0,2.449,2.449h12.593a2.391,2.391,0,0,0,2.449-2.449v-3.5A2.391,2.391,0,0,0,352.741,108Z" transform="translate(-330.879 -108)"/><path class="b" d="M339.7,130.8v6.646h10.669V130.8Zm5.422,5.422a2.274,2.274,0,1,1,2.274-2.274A2.2,2.2,0,0,1,345.122,136.222Z" transform="translate(-329.381 -90.923)"/><g transform="translate(0 22.737)"><path class="b" d="M345.3,136.441h11.368A15.631,15.631,0,0,0,345.3,121.4Z" transform="translate(-325.187 -120.7)"/><path class="b" d="M340.9,136.741h6.646V121.35a15.959,15.959,0,0,0-6.646,0Z" transform="translate(-328.482 -121)"/><path class="b" d="M345.168,121.3A15.584,15.584,0,0,0,333.8,136.341h11.368Z" transform="translate(-333.8 -120.775)"/></g></g><path class="a" d="M343.38,119.823h.35c.35,0,.525.175.874.175a1.577,1.577,0,0,0,.874-.175h.35A4.146,4.146,0,0,0,348.8,115.8h-8.4A3.952,3.952,0,0,0,343.38,119.823Z" transform="translate(206.33 48.605)"/><g transform="translate(461.91 40.752)"><ellipse class="b" cx="8.57" cy="9.969" rx="8.57" ry="9.969" transform="translate(7.171 0.175)"/><path class="b" d="M317.437,50.624H294.874a.826.826,0,0,1-.874-.874v-.175a.826.826,0,0,1,.874-.875h22.562a.826.826,0,0,1,.875.875v.175C318.136,50.274,317.786,50.624,317.437,50.624Z" transform="translate(-290.327 -42.404)"/><path class="b" d="M310.841,45.1H298.249a2.391,2.391,0,0,0-2.449,2.449v3.5a2.391,2.391,0,0,0,2.449,2.449h12.593a2.391,2.391,0,0,0,2.449-2.449v-3.5A2.391,2.391,0,0,0,310.841,45.1Z" transform="translate(-288.979 -45.1)"/><path class="b" d="M297.8,67.9v6.646h10.669V67.9Zm5.422,5.6a2.274,2.274,0,1,1,2.274-2.274A2.315,2.315,0,0,1,303.222,73.5Z" transform="translate(-287.481 -28.023)"/><g transform="translate(0 22.737)"><path class="b" d="M303.4,73.541h11.368A15.631,15.631,0,0,0,303.4,58.5Z" transform="translate(-283.286 -57.8)"/><path class="b" d="M299,73.841h6.646V58.45a15.959,15.959,0,0,0-6.646,0Z" transform="translate(-286.582 -58.1)"/><path class="b" d="M303.268,58.4A15.584,15.584,0,0,0,291.9,73.441h11.368Z" transform="translate(-291.9 -57.875)"/></g></g><path class="a" d="M301.373,56.923h.35c.35,0,.525.175.874.175a1.577,1.577,0,0,0,.875-.175h.35A4.146,4.146,0,0,0,306.8,52.9h-8.4A4,4,0,0,0,301.373,56.923Z" transform="translate(174.878 1.494)"/></g></g></svg>