<svg xmlns="http://www.w3.org/2000/svg" viewBox="-5166.999 2614.591 38.803 56.873"><defs><style>.a{fill:#fff;}.b,.c{fill:#89c966;font-family:Avenir-Black, Avenir;font-weight:800;}.b{font-size:7px;}.c{font-size:12px;}</style></defs><g transform="translate(-5563 -2119)"><path class="a" d="M-10025.094,3057.687c0-4.3,5.945-7.909,14.012-8.91l-.655-.82h-13.658a.572.572,0,0,1-.605-.605V3010.6a.572.572,0,0,1,.605-.6h37.594a.572.572,0,0,1,.6.6v36.748a.572.572,0,0,1-.6.605h-13.9l-.622.781c8.234.942,14.342,4.588,14.342,8.949,0,5.077-8.279,9.186-18.555,9.186S-10025.094,3062.764-10025.094,3057.687Zm3.868-1.088c0,3.99,6.589,7.191,14.687,7.191,8.16,0,14.688-3.2,14.688-7.191,0-3.393-4.766-6.218-11.174-6.987l-1.024,1.283c4.106.54,7.122,2.387,7.122,4.616,0,2.6-4.293,4.774-9.611,4.774s-9.611-2.114-9.611-4.774c0-2.122,2.859-3.96,6.8-4.565l-1.031-1.292C-10016.623,3050.479-10021.226,3053.264-10021.226,3056.6Zm7.616-1.451c0,1.752,3.143,3.142,7.07,3.142s7.072-1.39,7.072-3.142c0-1.516-2.352-2.76-5.527-3.068l-1.726,2.161-1.7-2.125C-10011.422,3052.477-10013.609,3053.686-10013.609,3055.148Z" transform="translate(10422.002 1723.591)"/><text class="b" transform="translate(415 4748)"><tspan x="-15.876" y="0">YOU ARE</tspan></text><text class="c" transform="translate(415 4760)"><tspan x="-16.002" y="0">HERE</tspan></text></g></svg>