<svg xmlns="http://www.w3.org/2000/svg" viewBox="-6126.301 1701.862 36.024 39.84"><defs><style>.a{fill:none;stroke:#89c966;stroke-width:1.505px;}.b{fill:#89c966;}</style></defs><g transform="translate(-6125.549 1702.633)"><path class="a" d="M-6294.045,5231.549h-7.986a5.791,5.791,0,0,0-7.341-3.478,5.227,5.227,0,0,0-3.479,3.478h-7.986a3.875,3.875,0,0,0-3.864,3.864v26.792a3.875,3.875,0,0,0,3.864,3.864h26.791a3.875,3.875,0,0,0,3.864-3.864v-26.792A4.053,4.053,0,0,0-6294.045,5231.549Z" transform="translate(6324.701 -5227.752)"/><path class="b" d="M-6297.819,5237.861a1.981,1.981,0,0,1-1.932,1.932.775.775,0,0,1-.516-.129l-3.479,3.478c0,.129.129.386.129.515a2.092,2.092,0,0,1-1.932,2.062,2.091,2.091,0,0,1-2.061-1.932v-.13a.772.772,0,0,1,.129-.515l-2.447-2.447a1.426,1.426,0,0,1-1.03,0l-4.508,4.508c0,.129.129.386.129.515a1.982,1.982,0,0,1-1.933,1.932,1.982,1.982,0,0,1-1.933-1.932,1.981,1.981,0,0,1,1.933-1.932h0a.772.772,0,0,1,.515.129l4.509-4.508c0-.129-.129-.387-.129-.516a2.091,2.091,0,0,1,1.932-2.061,2.093,2.093,0,0,1,2.062,1.932v.129a.775.775,0,0,1-.129.516l2.447,2.447a1.421,1.421,0,0,1,1.03,0l3.478-3.478c0-.129-.129-.387-.129-.516a2.093,2.093,0,0,1,1.933-2.061,2.2,2.2,0,0,1,1.932,2.061Z" transform="translate(6326.286 -5225.435)"/><ellipse class="b" cx="2.318" cy="2.318" rx="2.318" ry="2.318" transform="translate(14.813 2.637)"/><rect class="b" width="22.798" height="2.318" transform="translate(5.54 25.822)"/><rect class="b" width="22.798" height="2.318" transform="translate(5.54 30.459)"/></g></svg>