<?xml version="1.0" encoding="UTF-8"?><!DOCTYPE svg PUBLIC "-//W3C//DTD SVG 1.1//EN" "http://www.w3.org/Graphics/SVG/1.1/DTD/svg11.dtd"><svg xmlns="http://www.w3.org/2000/svg"><defs>
        <style>
            .a{fill:#89c966}
        </style>
    
        <style>
            .a{fill:#89c966}
        </style>
    
        <style>
            .a{fill:#89c966}
        </style>
    
        <style>
            .a{fill:#888}
        </style>
    
        <style>
            .a{fill:#89c966}
        </style>
    
        <style>
            .a{fill:#b27541}
        </style>
    
        <style>
            .a{fill:#89c966}
        </style>
    
        <style>
            .a{fill:#89c966}
        </style>
    
        <style>
            .a{fill:#fff}
        </style>
    
        <style>
            .cls-1{fill:#888}
        </style>
    
        <style>
            .a{fill:#888}
        </style>
    
        <style>
            .a{fill:#fefefe}
        </style>
    
        <style>
            .a{fill:#89c966}
        </style>
    
        <style>
            .a{fill:#fff}
        </style>
    
        <style>
            .a{fill:#fff}
        </style>
    
        <style>
            .a{fill:#888}
        </style>
    
        <style>
            .cls-1{fill:#888}
        </style>
    
        <style>
            .a{fill:#888}
        </style>
    
        <style>
            .a{fill:#888}
        </style>
    
        <style>
            .a{fill:#89c966}.b{filter:url(#a)}
        </style>
        <filter id="a" x="-5016.689" y="-5371.63" width="132.438" height="132.438" filterUnits="userSpaceOnUse">
            <feOffset dy="2"/>
            <feGaussianBlur stdDeviation="1" result="b"/>
            <feFlood flood-opacity=".161"/>
            <feComposite operator="in" in2="b"/>
            <feComposite in="SourceGraphic"/>
        </filter>
    
        <style>
            .a{fill:#fff}
        </style>
    
        <style>
            .a{fill:#888}
        </style>
    
        <style>
            .a{fill:#cecece}.b{fill:#888}.c{fill:#aaa}
        </style>
    
        <style>
            .a{fill:#89c966}
        </style>
    
        <style>
            .a{fill:#888}
        </style>
    
        <style>
            .a{fill:#0a1b51}
        </style>
    
        <style>
            .a{fill:#0a1b51}
        </style>
    
        <style>
            .a{fill:#0a1b51}
        </style>
    
        <style>
            .a{fill:#0a1b51}
        </style>
    
        <style>
            .a{fill:#0a1b51}
        </style>
    
        <style>
            .a{fill:#89c966}
        </style>
    
        <style>
            .a{fill:#89c966}
        </style>
    
        <style>
            .a{fill:#888}
        </style>
    
        <style>
            .a{fill:#89c966}
        </style>
    
        <style>
            .a{fill:#89c966}
        </style>
    
        <style>
            .a{fill:#fff}
        </style>
    
        <style>
            .a{fill:#89c966}
        </style>
    
        <style>
            .a{fill:#89c966}
        </style>
    
        <style>
            .a{fill:#fff}
        </style>
    
        <style>
            .a{fill:#fff}
        </style>
    
        <style>
            .a{fill:#fff}
        </style>
    
        <style>
            .a{fill:#fff}
        </style>
    
        <style>
            .a{fill:#89c966}
        </style>
    
        <style>
            .a{fill:#c3a46b}
        </style>
    
        <style>
            .a{fill:#888}
        </style>
    
        <style>
            .a{fill:#888}
        </style>
    
        <style>
            .a{fill:#20b8ff}
        </style>
    
        <style>
            .a{fill:#888}
        </style>
    
        <style>
            .a{fill:#888}
        </style>
    
        <style>
            .a{fill:#fff}
        </style>
    
        <style>
            .a{fill:#888}
        </style>
    
        <style>
            .a{fill:#89c966}
        </style>
    
        <style>
            .a{fill:#888}
        </style>
    
        <style>
            .a{fill:#89c966}
        </style>
    
        <style>
            .a{fill:#d8d8d8}
        </style>
    
        <style>
            .a{fill:#888;fill-rule:evenodd}
        </style>
    </defs><symbol id="icon-address" viewBox="-1077.786 -5408 46.371 50.268">
    
    <path class="a" d="M-1077.786-5357.731v-44.423a5.732 5.732 0 0 1 5.965-5.845c11.473 0 22.969 0 34.418.023a5.938 5.938 0 0 1 1.467.145 5.716 5.716 0 0 1 4.521 5.724v44.375zm27.034-13.493v.6c0 2.838.025 5.651 0 8.489 0 .482.145.578.578.578h14.935v-40.335a2.011 2.011 0 0 0-2.26-2.261h-34.178a2.012 2.012 0 0 0-2.261 2.261v39.782c0 .168.025.337.025.553h.529c4.787 0 9.6-.025 14.383 0 .481 0 .578-.168.578-.626v-8.489c0-.168.023-.362.023-.553zm3.945 5.7v-5.7h7.625v5.7zm-23.21 0v-5.7h7.624v5.7zm23.185-9.645v-5.7h7.625v5.7zm-11.592 0v-5.7h7.624v5.7zm-11.593 0v-5.7h7.624v5.7zm23.21-9.693v-5.7h7.625v5.7zm-11.593 0v-5.7h7.6v5.7zm-11.617 0v-5.7h7.624v5.7zm11.617-9.621v-5.725h7.6v5.725zm11.593-.024v-5.7h7.625v5.7zm-23.21 0v-5.725h7.624v5.725z"/>
</symbol><symbol id="icon-arrows" viewBox="-6133.142 -4454.091 79.225 72.636">
    
    <path class="a" d="M-6053.917-4396.987h-7.374v-52.869h-42.2l8.472 10.511h23.218v42.358h-7.373l12.55 15.531z"/>
    <path class="a" d="M-6133.142-4438.717h7.373v53.026h42.2l-8.629-10.511h-23.06v-42.515h7.373l-12.706-15.374z"/>
</symbol><symbol id="icon-athash" viewBox="-7158.372 1704.962 40.652 39.986">
    
    <path class="a" d="M-7125.184 1744.948v-5.6h-4v5.6h-1.866v-5.6h-5.6v-1.864h5.6v-4h-5.6v-2h5.6v-5.6h1.866v5.6h4v-5.6h1.866v5.6h5.6v2h-5.6v4h5.6v1.866h-5.6v5.6zm-4.132-7.464h4v-4h-4zm-10.263 7.464zm-11.329 0a7.358 7.358 0 0 1-5.2-2.133 6.4 6.4 0 0 1-2.133-5.2v-4.263a7.358 7.358 0 0 1 2.133-5.2 6.4 6.4 0 0 1 5.2-2.133h4.265a7.358 7.358 0 0 1 5.2 2.133 6.4 6.4 0 0 1 2.133 5.2v5.2a2.207 2.207 0 0 1-.666 1.6 1.586 1.586 0 0 1-1.466.533h-4.265a2.048 2.048 0 0 1-2.133-1.866 1.8 1.8 0 0 1-.666 1.2 2.1 2.1 0 0 1-1.733.533 3.833 3.833 0 0 1-2.666-1.2 3.75 3.75 0 0 1-1.2-3.066v-2.134a4.222 4.222 0 0 1 1.2-3.066 3.75 3.75 0 0 1 3.066-1.2h.4a3.868 3.868 0 0 1 3.867 3.866v3.6a1.131 1.131 0 0 0 .933 1.066h2.266a1.131 1.131 0 0 0 1.066-.933v-4.4a5.728 5.728 0 0 0-1.466-3.732 4.332 4.332 0 0 0-3.732-1.466h-4.267a5.15 5.15 0 0 0-3.6 1.466 5.263 5.263 0 0 0-1.6 3.732v4.265a5.15 5.15 0 0 0 1.466 3.6 4.84 4.84 0 0 0 3.732 1.6h11.2v2.133h-11.334zm-.4-12a2.14 2.14 0 0 0-.666 1.466v2.133a2 2 0 0 0 .533 1.466 1.586 1.586 0 0 0 1.466.533 2 2 0 0 0 1.466-.533l.533-.533v-.267a1.2 1.2 0 0 0 .133-.666v-2.262a1.822 1.822 0 0 0-1.866-1.866h-.133a1.586 1.586 0 0 0-1.466.533zm33.188-8.93zm-11.329 0a7.358 7.358 0 0 1-5.2-2.133 6.4 6.4 0 0 1-2.133-5.2v-4.259a7.358 7.358 0 0 1 2.133-5.2 6.958 6.958 0 0 1 5.2-2.266h4.265a7.358 7.358 0 0 1 5.2 2.133 6.4 6.4 0 0 1 2.133 5.2v5.331a2.207 2.207 0 0 1-.666 1.6 1.586 1.586 0 0 1-1.466.533h-4.265a2.048 2.048 0 0 1-2.133-1.866 1.8 1.8 0 0 1-.666 1.2 2.1 2.1 0 0 1-1.733.533 3.833 3.833 0 0 1-2.666-1.2 3.75 3.75 0 0 1-1.2-3.066v-1.866a4.222 4.222 0 0 1 1.2-3.066 3.75 3.75 0 0 1 3.066-1.2h.4a3.868 3.868 0 0 1 3.865 3.865v3.6a1.131 1.131 0 0 0 .933 1.066h2.266a1.131 1.131 0 0 0 1.066-.933v-4.4a5.728 5.728 0 0 0-1.466-3.732 5.64 5.64 0 0 0-3.865-1.466h-4.265a5.15 5.15 0 0 0-3.6 1.466 5.263 5.263 0 0 0-1.6 3.732v4.265a5.15 5.15 0 0 0 1.466 3.6 5.263 5.263 0 0 0 3.732 1.6h11.2v2.133zm-.267-12a2 2 0 0 0-.533 1.466v2.133a2 2 0 0 0 .533 1.466 1.586 1.586 0 0 0 1.466.533 2 2 0 0 0 1.466-.533l.533-.533v-.4a1.2 1.2 0 0 0 .133-.666v-2.258a1.822 1.822 0 0 0-1.865-1.864h-.267a1.72 1.72 0 0 0-1.466.666zm-15.061 12zm-1.866 0v-5.6h-4.129v5.6h-2v-5.6h-5.6v-2h5.6v-4h-5.6v-1.856h5.6v-5.6h2v5.6h4v-5.6h2v5.6h5.6v2h-5.6v4h5.6v2h-5.6v5.6zm-4.129-7.456h4v-4.136h-4z"/>
</symbol><symbol id="icon-brush" viewBox="-4369.833 3843 15.835 15.002">
    
    <path class="a" d="M-4365.666 3852.168a2.5 2.5 0 0 0-2.5 2.5 1.691 1.691 0 0 1-1.667 1.667 4.312 4.312 0 0 0 3.333 1.667 3.332 3.332 0 0 0 3.333-3.333 2.5 2.5 0 0 0-2.499-2.501zm11.425-7.808l-1.117-1.117a.83.83 0 0 0-1.175 0l-7.467 7.467 2.292 2.292 7.467-7.467a.83.83 0 0 0 0-1.175z"/>
</symbol><symbol id="icon-check" viewBox="-4819 -5190 12.855 9.406">
    
    <path class="a" d="M-4814.14-5184.356l-3.136-2.665-1.724 2.038 4.86 4.389 8-7.368-1.886-2.038z"/>
</symbol><symbol id="icon-check2" viewBox="-2482.536 -5367.662 22.295 20.734">
    
    <path class="a" d="M-2460.536-5367.662c.149.149.149.3.3.446l-.3.3a65.986 65.986 0 0 0-12.042 15.154c-.892 1.486-1.635 3.121-2.527 4.608q-.223.446-.446 0c-2.229-2.675-4.608-5.2-6.837-7.877a.146.146 0 0 0-.149-.149c.149-.149.149-.3.3-.3 1.932 1.04 3.864 2.081 5.8 3.27.446-.743 1.04-1.338 1.486-2.081a66.854 66.854 0 0 1 9.512-9.958 51.392 51.392 0 0 1 4.603-3.264.46.46 0 0 1 .3-.149z"/>
</symbol><symbol id="icon-dollar" viewBox="-4739 -2758.057 17.974 40.268">
    
    <path class="a" d="M-4729.149-2753.218a7.964 7.964 0 0 1 4.493 1.728l-.173-1.728h2.074v8.814h-1.555c-.346-4.839-2.42-7.431-6.395-7.431a4.951 4.951 0 0 0-3.629 1.378 4.707 4.707 0 0 0-1.21 3.456 3.934 3.934 0 0 0 .691 2.765 8.68 8.68 0 0 0 2.248 2.079q1.3.778 3.629 2.074a38.214 38.214 0 0 1 4.148 2.42 10.5 10.5 0 0 1 2.765 2.765 7.159 7.159 0 0 1 1.037 3.975 7.034 7.034 0 0 1-2.074 5.184 8.772 8.772 0 0 1-5.876 2.42v5.53h-2.074v-5.53a9.586 9.586 0 0 1-2.938-.518 13.378 13.378 0 0 1-2.765-1.21l.173 1.555h-2.074v-8.641h1.382a8.029 8.029 0 0 0 2.072 5.357 7.418 7.418 0 0 0 5.36 1.728 5.38 5.38 0 0 0 3.8-1.383 4.707 4.707 0 0 0 1.557-3.626 5.826 5.826 0 0 0-.864-2.938 6.472 6.472 0 0 0-2.247-2.074q-1.3-.778-3.629-2.074a38.213 38.213 0 0 1-4.148-2.42 8 8 0 0 1-2.592-2.765 7.159 7.159 0 0 1-1.037-3.977 7.042 7.042 0 0 1 .864-3.111 6.592 6.592 0 0 1 2.593-2.765 8.46 8.46 0 0 1 4.321-1.21v-4.666h2.247z"/>
</symbol><symbol id="icon-email" viewBox="-292.569 -5400 53.413 35.022">
    
    <path class="a" d="M-292.437-5394.042a6.856 6.856 0 0 1 1.25-3.325 6.563 6.563 0 0 1 5.234-2.633h40.157a6.616 6.616 0 0 1 6.616 6.616q.049 10.911 0 21.79a6.616 6.616 0 0 1-6.616 6.616h-40.157c-6.484 0-6.583-5-6.616-5.1v-21.364a16.994 16.994 0 0 1 .132-2.6zm26.562-2.634h-19.913a3.359 3.359 0 0 0-3.424 2.831.7.7 0 0 0 .3.79 8690.747 8690.747 0 0 1 21 15.734 3.273 3.273 0 0 0 4.147 0l20.934-15.7a.8.8 0 0 0 .329-.889 3.362 3.362 0 0 0-3.357-2.765zm-10.27 15.24a1.949 1.949 0 0 0-.2.132c-4.213 3.127-8.393 6.287-12.607 9.447a.656.656 0 0 0-.263.757 3.373 3.373 0 0 0 3.39 2.831h39.963a3.358 3.358 0 0 0 3.357-2.731.8.8 0 0 0-.362-.955 1153.27 1153.27 0 0 1-7.571-5.661c-1.712-1.284-3.39-2.534-5.1-3.818a4.814 4.814 0 0 0-.428.3c-2.205 1.646-4.411 3.292-6.583 4.937a4.962 4.962 0 0 1-6.55 0c-2.37-1.75-4.675-3.494-7.045-5.239zm-13.067-9.809v17.545c3.917-2.929 7.768-5.826 11.685-8.755-3.917-2.964-7.768-5.86-11.685-8.79zm35.022 8.755c3.917 2.929 7.768 5.826 11.685 8.755v-17.542a2546.796 2546.796 0 0 1-11.685 8.788z"/>
</symbol><symbol id="icon-eye" viewBox="-4263 2632.983 56.808 36.425">
    
    <path class="a" d="M-4262.736 2652.4a2.877 2.877 0 0 1 0-2.409 31.276 31.276 0 0 1 28.147-17.008 31.056 31.056 0 0 1 28.032 17.008 2.534 2.534 0 0 1 .119 2.409c-2.188 4.135-10.232 17.008-28.152 17.008a31.318 31.318 0 0 1-28.146-17.008zm15.28-1.262a12.867 12.867 0 1 0 12.867-12.868 12.847 12.847 0 0 0-12.867 12.868zm6.435 0a6.433 6.433 0 1 1 6.432 6.434 6.431 6.431 0 0 1-6.432-6.434z"/>
</symbol><symbol id="icon-fb" viewBox="-6293.932 4063.967 8.243 17.01">
    
    <path id="Path_9564" data-name="Path 9564" class="cls-1" d="M14.743 3.14h-1.962c-.393 0-.785.131-.785.916v1.832h2.748l-.262 3.14H12v7.982H8.2V9.028H6.5V5.757h1.832V3.795A3.408 3.408 0 0 1 12 0h2.748v3.14z" transform="translate(-6300.432 4063.967)"/>
</symbol><symbol id="icon-googleplus" viewBox="-6301.647 4112.734 26.174 16.631">
    
    <path class="a" d="M-6293.623 4129.352a6.582 6.582 0 0 1-2.393-.418 8.524 8.524 0 0 1-5.487-6.617c0-.423-.144-.845-.144-1.266a8.237 8.237 0 0 1 7.883-8.302 8.06 8.06 0 0 1 5.909 2.11c-.7.7-1.406 1.548-2.109 2.111a4.248 4.248 0 0 0-1.126-.564 4.486 4.486 0 0 0-3.8-.281 5.215 5.215 0 0 0-3.517 6.051c0 .281.141.422.141.562.14.281.281.7.421.985a1.94 1.94 0 0 0 .422.562c0 .141.14.141.14.281.14.142.281.142.423.283l.422.422a5.027 5.027 0 0 0 5.066.562 4.844 4.844 0 0 0 2.673-3.099h-4.784v-2.809h7.88v.141a7.639 7.639 0 0 1-1.407 6.468 7.769 7.769 0 0 1-6.137 2.831q-.238 0-.476-.013zm13.367-4.785v-2.391h-2.391v-2.392h2.393v-2.392h2.391v2.392h2.392v2.392h-2.394v2.391z"/>
</symbol><symbol id="icon-graphic" viewBox="-4560.572 2821 49.901 53.782">
    
    <path class="a" d="M-4556.321 2860.45a2.666 2.666 0 0 1-2.389.885v13.447h8.582v-20.171l-.354.354c-1.947 1.858-3.805 3.716-5.839 5.485z"/>
    <path class="a" d="M-4545.616 2850.007v24.687h8.582v-28.044c-4.159-.974-4.782-.531-8.582 3.357z"/>
    <path class="a" d="M-4526.595 2849.299a18.619 18.619 0 0 0-2.123-.531c-1.416-.354-2.654-.619-3.716-.973v26.81h8.582v-25.037a4.959 4.959 0 0 1-2.743-.269z"/>
    <path class="a" d="M-4510.848 2838.686c0 2.477-.442 4.335-3.539 2.566-1.858-1.062-3.008-.177-3.981 1.416a15.389 15.389 0 0 0-.973 1.592v30.432h8.582s-.089-37.51-.089-36.006z"/>
    <path class="a" d="M-4510.848 2828.955v4.423c0 2.477-.442 4.335-3.539 2.566-1.858-1.062-3.008-.177-3.981 1.416-.885 1.5-1.946 2.919-2.743 4.512-1.239 2.389-3.008 3.008-5.485 2.212a18.619 18.619 0 0 0-2.123-.531c-15.482-3.628-10.262-5.043-21.848 6.104-1.946 1.858-3.8 3.716-5.751 5.485a2.437 2.437 0 0 1-3.539.177c-1.416-1.327-.442-2.389.531-3.362 4.859-4.865 9.817-9.731 14.683-14.686 1.5-1.5 3.273-1.681 5.308-1.15 3.539.973 7.166 1.592 10.7 2.654 3.716 1.15 4.866-1.5 6.37-3.893 1.592-2.389.619-3.716-1.5-4.866-1.327-.708-1.592-1.858-.088-2.654a420.424 420.424 0 0 1 10.794-6.015c1.416-.8 2.3-.177 2.389 1.416-.088 2.123-.088 4.158-.177 6.193z"/>
</symbol><symbol id="icon-hand" viewBox="-6935.031 -4449.709 53.595 64.136">
    
    <path class="a" d="M-6907.949-4386.318a16.292 16.292 0 0 1-8.471-4.706c-5.491-5.492-11.139-10.985-16.63-16.473a6.41 6.41 0 0 1 .157-9.412 6.6 6.6 0 0 1 9.1.314c.941 1.1 2.04 2.2 3.137 3.294.157 0 .157-.157.314-.157v-23.533a6 6 0 0 1 8.158-5.648 5.19 5.19 0 0 1 3.765 4.706c.157 2.354 0 4.706 0 7.217 4.079-1.412 6.9-.314 8.785 3.451a6.108 6.108 0 0 1 5.177-.628 5.832 5.832 0 0 1 3.609 3.295 18.136 18.136 0 0 1 5.02-.157 5.339 5.339 0 0 1 4.235 4.546c0 .628.157 1.255.157 1.725 0 5.648 0 11.3-.157 16.943a24.893 24.893 0 0 1-.941 5.8 12.631 12.631 0 0 1-10.2 9.256 32.342 32.342 0 0 1-7.668.9 40.877 40.877 0 0 1-7.547-.733zm-22.748-27.455c-1.411 1.412-1.255 3.138.314 4.706l15.845 15.846a15.77 15.77 0 0 0 7.06 3.923 30.851 30.851 0 0 0 13.648.157c5.02-1.1 8.315-4.236 8.629-9.413.47-6.745.47-13.492.314-20.238a2.594 2.594 0 0 0-2.824-2.667 2.949 2.949 0 0 0-2.82 2.98v6.118c0 1.1-.314 2.04-1.569 2.2-1.1.157-1.726-.628-1.726-2.2 0-2.98.157-5.962 0-8.942a3.068 3.068 0 0 0-1.1-2.354 4.832 4.832 0 0 0-2.981-.471c-1.255.314-1.726 1.569-1.726 2.824v7.373a1.525 1.525 0 0 1-1.568 1.726 1.5 1.5 0 0 1-1.73-1.725v-10.824a2.683 2.683 0 0 0-2.667-2.824 2.722 2.722 0 0 0-2.981 2.98v7.844c0 1.1-.314 2.04-1.569 2.04-1.255.157-1.568-.785-1.568-1.883v-18.512a8.947 8.947 0 0 0-.157-2.04 2.6 2.6 0 0 0-3.758-1.725 3.169 3.169 0 0 0-1.726 3.138v30.278a.548.548 0 0 1-.314.157c-1.412-1.412-2.667-2.824-4.079-4.236-1.259-1.412-2.671-2.667-4.081-4.079a3.669 3.669 0 0 0-2.575-1.14 3.2 3.2 0 0 0-2.291.983zm5.02-28.236a12.484 12.484 0 0 1 15.532-7.062c6.275 1.883 9.727 8.315 8.158 14.9-.941-.314-1.883-.784-2.667-1.1a30.469 30.469 0 0 0-.314-3.766 9.334 9.334 0 0 0-11.452-7.21 9.507 9.507 0 0 0-7.06 8.158 12.352 12.352 0 0 0 .785 5.334v4.546c-4.079-2.977-5.336-8.782-2.982-13.8z"/>
</symbol><symbol id="icon-handshaking" viewBox="-4268.779 2828 68.693 40.885">
    
    <path class="a" d="M-4249.987 2833.549a20.049 20.049 0 0 0 5.658-1.088 38.985 38.985 0 0 1 4.9-.979 4.3 4.3 0 0 1 2.285.435c.435.218.544.435.109.762-1.632 1.632-3.264 3.155-4.9 4.787l-1.958 1.958a4.768 4.768 0 0 0 .218 6.637 12.165 12.165 0 0 0 3.155 2.067 3.3 3.3 0 0 0 2.285 0 15.4 15.4 0 0 0 6.093-3.482c1.741-1.523 2.176-1.523 3.917 0 4.135 3.591 8.16 7.181 12.295 10.663a3.817 3.817 0 0 0 .87.544c.544.109.544.435.326.87a3.524 3.524 0 0 1-4.352 1.85c-.544-.109-.762-.218-.762.435a3.775 3.775 0 0 1-4.9 3.155c-.544-.218-.762-.109-.87.435a3.784 3.784 0 0 1-4.57 2.829c-.762-.109-.762-.109-.979.653a3.222 3.222 0 0 1-5.114 2.176c-.326-.218-.435-.435-.109-.762 1.088-.979 2.176-1.958 3.155-2.938 1.414-1.306 1.632-2.611.762-4.461a3.591 3.591 0 0 0-3.917-2.176c-.544.109-.762-.109-.87-.653a3.8 3.8 0 0 0-4.352-2.938c-1.2.109-1.088 0-1.414-.87a3.343 3.343 0 0 0-3.591-2.5h-.762c-.326 0-.435-.109-.544-.435a3.609 3.609 0 0 0-2.611-3.155 3.369 3.369 0 0 0-3.808.87l-3.591 3.264c-.218.218-.435.435-.762.109s-.976-.432-.762-1.089a3.865 3.865 0 0 1 .435-.979c2.176-5.005 4.352-10.119 6.637-15.124 1.092-1.088.983-.87 2.398-.87z"/>
    <path class="a" d="M-4229.205 2831.373a11.641 11.641 0 0 1 4.679.979 10.149 10.149 0 0 0 5.331.979c1.088-.109 1.632.544 2.067 1.414 1.088 2.5 2.176 5.114 3.155 7.616 1.2 2.938 2.394 5.767 3.7 8.7a.645.645 0 0 1-.326.979 30.711 30.711 0 0 0-3.155 1.958c-.435.326-.762.218-1.2-.109-4.026-3.591-8.16-7.181-12.186-10.772a3.635 3.635 0 0 0-4.57-.435c-1.741 1.088-3.373 2.067-5.005 3.155a4.577 4.577 0 0 1-6.637-1.85 2.83 2.83 0 0 1 .435-3.155 26.309 26.309 0 0 1 5.549-5.44c.979-.762 1.958-1.523 2.829-2.285a8.935 8.935 0 0 1 5.334-1.734z"/>
    <path class="a" d="M-4209.948 2828.435a2.611 2.611 0 0 1 2.285 1.414l1.306 2.938a764.79 764.79 0 0 0 5.984 13.927 2.677 2.677 0 0 1-.762 3.373 9.163 9.163 0 0 1-2.285 1.2c-.762.218-1.523.544-2.394.762a1.405 1.405 0 0 1-1.741-.544 15.155 15.155 0 0 1-2.176-3.917c-2.067-4.57-4.026-9.14-6.093-13.709-.109-.326-.326-.762-.435-1.2a2.008 2.008 0 0 1 1.196-2.394c1.416-.65 2.83-1.197 4.245-1.85z"/>
    <path class="a" d="M-4262.717 2851.828a14.765 14.765 0 0 1-2.72-.762 23.023 23.023 0 0 1-2.285-1.2 1.943 1.943 0 0 1-.979-2.394 45.609 45.609 0 0 1 2.176-5.331c1.74-4.022 3.481-7.941 5.217-11.965a6.218 6.218 0 0 1 1.2-1.741 1.347 1.347 0 0 1 1.525-.326c1.632.653 3.264 1.414 4.9 2.176a2.151 2.151 0 0 1 1.084 2.615 18.414 18.414 0 0 1-1.414 3.373c-2.067 4.679-4.135 9.248-6.2 13.818a2.581 2.581 0 0 1-2.504 1.737z"/>
    <path class="a" d="M-4255.428 2857.704c-1.414-.109-2.394-.435-2.938-1.632a1.578 1.578 0 0 1 .435-2.176c1.741-1.523 3.482-3.155 5.223-4.679.109-.109.218-.109.326-.218.87-.435 2.285.218 2.938 1.2a1.879 1.879 0 0 1-.218 2.611c-1.523 1.414-3.155 2.829-4.679 4.243-.434.542-.76.651-1.087.651z"/>
    <path class="a" d="M-4238.345 2858.571a1.976 1.976 0 0 1-.653 1.523c-1.523 1.414-3.047 2.829-4.57 4.135a2.458 2.458 0 0 1-2.829.218 2.486 2.486 0 0 1-1.523-2.176 1.5 1.5 0 0 1 .653-1.2c1.741-1.523 3.482-3.155 5.223-4.679a1.156 1.156 0 0 1 1.523-.109 6.218 6.218 0 0 1 1.741 1.2 1.662 1.662 0 0 1 .435 1.088z"/>
    <path class="a" d="M-4239.76 2868.475a2.549 2.549 0 0 1-2.831-2.503 1.248 1.248 0 0 1 .544-1.306c1.741-1.523 3.373-3.047 5.114-4.57a1.478 1.478 0 0 1 1.741-.218 9.076 9.076 0 0 1 1.306.87 1.839 1.839 0 0 1 .109 2.938c-1.523 1.414-3.047 2.829-4.679 4.243a2.007 2.007 0 0 1-1.304.546z"/>
    <path class="a" d="M-4253.469 2858.9a1.723 1.723 0 0 1 .544-1.306c1.741-1.523 3.373-3.047 5.114-4.57a1.478 1.478 0 0 1 1.741-.218c.544.326 1.088.653 1.523.979a1.781 1.781 0 0 1 .109 2.611c-1.632 1.523-3.264 3.047-4.9 4.461a2.457 2.457 0 0 1-2.72.218 2.576 2.576 0 0 1-1.411-2.175z"/>
</symbol><symbol id="icon-hash" viewBox="-4884.835 2631.372 81.332 24.403">
    
    <path class="a" d="M-4861.835 2641.857h-9.421v-9.485h-4.094v9.485h-9.485v4.094h9.485v9.421h4.094v-9.421h9.421z"/>
    <path class="a" d="M-4831.345 2640.402v-1.393h-7.1v-7.1h-1.4v7.1h-6.335v-7.1h-1.393v7.1h-7.1v1.4h7.1v6.235h-7.1v1.4h7.1v7.1h1.4v-7.1h6.235v7.1h1.4v-7.1h7.1v-1.4h-7.1v-6.242zm-8.6 6.343h-6.235v-6.343h6.235z"/>
    <path class="a" d="M-4837.903 2655.772h-2.473v-7.1h-5.267v7.1h-2.468v-7.1h-7.1v-2.465h7.1v-5.267h-7.1v-2.468h7.1v-7.1h2.468v7.1h5.16v-7.1h2.472v7.1h7.1v2.468h-7.1v5.16h7.1v2.472h-7.1v7.2zm-1.508-1.072h.323v-7.1h7.1v-.318h-7.1v-7.417h7.1v-.323h-7.1v-7.1h-.323v7.1h-7.307v-7.1h-.323v7.1h-7.1v.323h7.1v7.307h-7.1v.323h7.1v7.1h.323v-7.1h7.307zm0-7.418h-7.307v-7.417h7.307zm-6.232-1.075h5.16v-5.267h-5.16z"/>
    <path class="a" d="M-4803.933 2640.832a8.539 8.539 0 0 0-2.688-6.343 8.777 8.777 0 0 0-6.342-2.687h-5.375a8.538 8.538 0 0 0-6.343 2.688 8.777 8.777 0 0 0-2.687 6.342v5.375a8.538 8.538 0 0 0 2.688 6.343 8.777 8.777 0 0 0 6.343 2.688h13.869v-1.72h-13.762a6.831 6.831 0 0 1-5.268-2.258 6.894 6.894 0 0 1-2.043-5.053v-5.267a6.993 6.993 0 0 1 2.258-5.268 6.893 6.893 0 0 1 5.053-2.043h5.375a7.24 7.24 0 0 1 5.16 2.15 7 7 0 0 1 2.15 5.053v5.375a1.884 1.884 0 0 1-1.823 1.828h-2.692a1.884 1.884 0 0 1-1.828-1.828v-4.515a4.427 4.427 0 0 0-4.408-4.408h-.43a4.541 4.541 0 0 0-3.44 1.4 4.816 4.816 0 0 0-1.502 3.438v2.688a4.493 4.493 0 0 0 1.5 3.547 4.133 4.133 0 0 0 3.01 1.4 3.192 3.192 0 0 0 1.935-.538 2.573 2.573 0 0 0 .755-1.717v-.43a3.094 3.094 0 0 1-2.258.968h-.108a2.706 2.706 0 0 1-2.15-.968 3.094 3.094 0 0 1-.968-2.258v-2.692a3.094 3.094 0 0 1 .968-2.258 3.094 3.094 0 0 1 2.259-.962h.215a2.89 2.89 0 0 1 2.9 2.9v2.9a3.181 3.181 0 0 1-.215 1.075l.215 1.613c.215 2.043 1.4 2.258 2.258 2.258h5.375a1.952 1.952 0 0 0 1.509-.646 2.286 2.286 0 0 0 .753-1.613v-6.557z"/>
    <path class="a" d="M-4803.825 2655.772h-14.513a9.181 9.181 0 0 1-6.665-2.8 9.181 9.181 0 0 1-2.8-6.665v-5.367a9.181 9.181 0 0 1 2.805-6.668 8.88 8.88 0 0 1 6.66-2.9h5.375a9.181 9.181 0 0 1 6.665 2.8 9.181 9.181 0 0 1 2.8 6.66v6.773a2.937 2.937 0 0 1-.86 2.043 2.591 2.591 0 0 1-1.935.753h-5.38a2.516 2.516 0 0 1-2.688-2.365 2.958 2.958 0 0 1-.86 1.613 3.548 3.548 0 0 1-2.258.753 4.67 4.67 0 0 1-3.333-1.613 5.278 5.278 0 0 1-1.613-3.87v-2.689a5.278 5.278 0 0 1 1.613-3.87 5.278 5.278 0 0 1 3.87-1.613h.43a4.932 4.932 0 0 1 4.945 4.945v4.623a1.242 1.242 0 0 0 1.29 1.29h2.689a1.242 1.242 0 0 0 1.29-1.29v-5.375a6.67 6.67 0 0 0-1.935-4.73 6.1 6.1 0 0 0-4.73-1.938h-5.375a6.426 6.426 0 0 0-4.623 1.935 6.839 6.839 0 0 0-2.037 4.84v5.375a6.426 6.426 0 0 0 1.935 4.623 6.839 6.839 0 0 0 4.838 2.043h14.3v2.684zm-14.513-23.325a8.209 8.209 0 0 0-5.913 2.473 8.21 8.21 0 0 0-2.472 5.912v5.375a8.442 8.442 0 0 0 8.385 8.385h13.33v-.645h-13.222a8.054 8.054 0 0 1-5.7-2.365 7.294 7.294 0 0 1-2.15-5.375v-5.267a8.055 8.055 0 0 1 2.365-5.7 7.294 7.294 0 0 1 5.377-2.148h5.375a7.17 7.17 0 0 1 5.483 2.365 7.107 7.107 0 0 1 2.365 5.375v5.375a2.386 2.386 0 0 1-2.365 2.365h-2.688a2.386 2.386 0 0 1-2.365-2.365v-4.515a3.854 3.854 0 0 0-3.865-3.87h-.43a4.305 4.305 0 0 0-3.118 1.29 4.135 4.135 0 0 0-1.29 3.118v2.688a4.305 4.305 0 0 0 1.29 3.118 3.717 3.717 0 0 0 2.58 1.29 2.231 2.231 0 0 0 1.613-.43.914.914 0 0 0 .322-.538 3.31 3.31 0 0 1-1.4.323 4.02 4.02 0 0 1-2.688-1.075 3.566 3.566 0 0 1-1.079-2.689v-2.687a3.674 3.674 0 0 1 3.765-3.758h.215a3.464 3.464 0 0 1 3.44 3.44v2.9a4.572 4.572 0 0 1-.215 1.183l.215 1.4c.215 1.613.968 1.828 1.72 1.828h5.375a2.254 2.254 0 0 0 1.183-.43 1.726 1.726 0 0 0 .538-1.183v-6.778a8.21 8.21 0 0 0-2.473-5.913 8.209 8.209 0 0 0-5.913-2.472h-5.59zm1.4 7.1a2.3 2.3 0 0 0-1.828.86 3.05 3.05 0 0 0-.753 1.828v2.688a2.215 2.215 0 0 0 .753 1.828 2.358 2.358 0 0 0 1.828.753 2.591 2.591 0 0 0 1.935-.753l.645-.645v-.323a2.367 2.367 0 0 0 .107-.86v-2.9a2.386 2.386 0 0 0-2.367-2.373h-.322z"/>
</symbol><symbol id="icon-ihg" viewBox="-6782 4060.341 61.171 24.256">
    
    <path class="a" d="M-6776.929 4060.858H-6782v23.254h5.071zm4 23.287h5.071v-9.27h10.049v9.266h5.071v-23.283h-5.071v9.269h-10.045v-9.269h-5.07zm40.76-16.569l3.52-3.294a11.069 11.069 0 0 0-3.908-2.907 12.865 12.865 0 0 0-5.1-1.034 12.556 12.556 0 0 0-6.1 1.486 10.9 10.9 0 0 0-4.328 4.231 12.564 12.564 0 0 0-1.583 6.427 12.581 12.581 0 0 0 1.486 6.2 10.98 10.98 0 0 0 4.263 4.328 13.169 13.169 0 0 0 12.273.129 11.143 11.143 0 0 0 4.263-4.134 11.929 11.929 0 0 0 1.583-6.232 15.929 15.929 0 0 0-.258-2.648h-12.179v4.713h6.782a4.733 4.733 0 0 1-1.938 3.553 6.688 6.688 0 0 1-4.328 1.389 6.869 6.869 0 0 1-3.456-.872 6.1 6.1 0 0 1-2.39-2.552 8.17 8.17 0 0 1-.872-3.876 8.336 8.336 0 0 1 .807-3.779 6.087 6.087 0 0 1 2.358-2.584 6.492 6.492 0 0 1 3.553-.937 7.936 7.936 0 0 1 5.556 2.393zm11.336-3.876a2.358 2.358 0 0 1-4.715 0 2.358 2.358 0 1 1 4.715 0zm-.42 0a1.938 1.938 0 1 0-1.933 1.941 1.874 1.874 0 0 0 1.938-1.941zm-.9 1.13h-.517l-.549-.9h-.258v.9h-.517v-2.325h.807c.549 0 .9.226.9.711a.575.575 0 0 1-.484.614zm-.614-1.615c0-.258-.161-.323-.388-.323h-.291v.678h.291a.348.348 0 0 0 .388-.355z"/>
</symbol><symbol id="icon-instagram" viewBox="-6249.087 4063.967 17.253 17.253">
    
    <path id="Union_527" data-name="Union 527" class="cls-1" d="M4.363 17.253A4.344 4.344 0 0 1 0 12.891v-8.53A4.344 4.344 0 0 1 4.363 0h8.529a4.344 4.344 0 0 1 4.361 4.361v8.53a4.344 4.344 0 0 1-4.361 4.361zM1.842 4.361v8.53a2.5 2.5 0 0 0 2.521 2.52h8.529a2.5 2.5 0 0 0 2.52-2.52v-8.53a2.5 2.5 0 0 0-2.52-2.52H4.363a2.5 2.5 0 0 0-2.521 2.52zm2.327 4.265a4.51 4.51 0 0 1 4.458-4.459 4.51 4.51 0 0 1 4.458 4.458 4.509 4.509 0 0 1-4.458 4.458 4.509 4.509 0 0 1-4.458-4.457zm1.842 0a2.617 2.617 0 1 0 2.616-2.617 2.606 2.606 0 0 0-2.616 2.617zm6.106-4.458a1.066 1.066 0 1 1 1.066 1.066 1.076 1.076 0 0 1-1.067-1.067z" transform="translate(-6249.087 4063.967)"/>
</symbol><symbol id="icon-italk" viewBox="-6200.243 4161.235 20.472 16.631">
    
    <path class="a" d="M-6183.321 4176.909a.76.76 0 0 0-.718 0 6.963 6.963 0 0 1-6.464-1.074 4.769 4.769 0 0 1-.24-7.665 7.4 7.4 0 0 1 9.338.239 4.684 4.684 0 0 1-.239 7.3c-.241.239-.359.359-.241.719a12.1 12.1 0 0 1 .359 1.436c-.598-.357-1.196-.596-1.795-.955zm-1.676-6.824a1.077 1.077 0 1 0 1.078-1.078 1.073 1.073 0 0 0-1.078 1.078zm-4.189 0a1.077 1.077 0 1 0 1.077-1.078 1.072 1.072 0 0 0-1.077 1.078zm-8.142 2.633c.12-.358 0-.6-.359-.838a5.689 5.689 0 0 1-2.395-3.351 5 5 0 0 1 1.677-5.148 8.1 8.1 0 0 1 7.062-2.036 6.8 6.8 0 0 1 4.908 2.873 3.119 3.119 0 0 1 .718 1.556 17.564 17.564 0 0 0-2.632.359 6.914 6.914 0 0 0-4.794 3.952 5.057 5.057 0 0 0-.238 2.992c.119.12.119.241.119.48-.6-.12-1.077-.12-1.557-.239a.532.532 0 0 0-.6 0c-.6.239-1.317.6-1.916.838a.442.442 0 0 0-.359.119 38.02 38.02 0 0 1 .366-1.557zm5.865-8.02a1.105 1.105 0 0 0 1.078 1.2 1.074 1.074 0 0 0 1.078-1.078 1.044 1.044 0 0 0-1.078-1.2 1.074 1.074 0 0 0-1.078 1.078zm-5.029 0a1.2 1.2 0 0 0 1.2 1.2.99.99 0 0 0 1.076-1.2 1.182 1.182 0 0 0-1.2-1.078 1.074 1.074 0 0 0-1.075 1.078z"/>
</symbol><symbol id="icon-khiri" viewBox="-6659.233 4143.293 57.759 34.784">
    
    <path class="a" d="M-6614.933 4178.077c.01-1.7.029-3.4.039-5.1v-.914h.835v5.294h3c.021.276.039.5.059.718zm-6.374 0c.01-1.572.02-5.972.029-6.07 0-.01.009-.01.029-.01h4.336v.756h-3.52v1.846h3.231v.7h-3.218v2.043h3.575c.021.285.04.51.06.736zm-4.725 0c-.717-1.975-1.443-4.1-2.161-6.07h.874a2.064 2.064 0 0 1 .2.471c.491 1.473.982 3.094 1.522 4.685.314-.933.589-1.739.854-2.544.216-.638.422-1.267.639-1.906a4.329 4.329 0 0 1 .225-.707h.865c-.718 1.984-1.424 4.1-2.132 6.07zm-3.643 0c-.167-.491-.325-.992-.521-1.474l-.03-.058-.088-.236h-2.313c-.226.579-.441 1.149-.668 1.719a.09.09 0 0 0-.01.049h-.884c.717-1.876 1.434-3.742 2.131-5.628a.573.573 0 0 1 .639-.432.55.55 0 0 1 .628.442c.658 1.876 1.336 3.742 2 5.618zm-2.74-2.495h1.866l-.914-2.642a198.4 198.4 0 0 1-.947 2.643zm-12.67 2.495c.02-.845.04-1.7.049-2.544.009-.9 0-1.8 0-2.76h-1.989v-.717h4.852v.687h-2.024v5.333zm8.544-.01c-.059-.579-.128-1.159-.177-1.739-.04-.422-.216-.766-.648-.8-.747-.04-1.493-.01-2.318-.01v2.544h-.786v-6.006h3.615a1.339 1.339 0 0 1 1.051 1.247 1.636 1.636 0 0 1-.776 1.788c.717.344.658.982.728 1.581a13.344 13.344 0 0 0 .293 1.395zm-3.1-5.274v1.934c.815 0 1.562.049 2.308-.01.491-.039.708-.412.717-.9.011-.462-.1-.933-.6-1a9.621 9.621 0 0 0-.962-.041c-.483-.004-.972.017-1.461.017zm28.285-7.435c-1.443-1.621-2.858-3.28-4.272-4.931a.853.853 0 0 0-.746-.343c-.865.029-1.729.01-2.662.01v6.199h-2.13v-16.127c.02-.02.049-.049.068-.049.59 0 1.182-.005 1.772-.013 1.375-.018 2.75-.036 4.111.081 4.36.383 4.989 4.44 3.751 7.013a4.984 4.984 0 0 1-2.385 2.367c1.178 1.365 2.288 2.691 3.446 3.977a3.636 3.636 0 0 0 2.789 1.228c0 .57.02 1.12-.019 1.67-.01.088-.246.225-.383.245s-.258.016-.384.016a3.819 3.819 0 0 1-2.954-1.342zm-7.709-13.307v5.952a32.785 32.785 0 0 0 3.546-.03 2.53 2.53 0 0 0 2.5-2.268 4.705 4.705 0 0 0-.059-1.7 2.225 2.225 0 0 0-2.013-1.925 16.091 16.091 0 0 0-1.555-.066c-.795.001-1.604.037-2.419.037zm-30.444 14.342c-.128 0-.266-.167-.374-.285q-3.387-3.625-6.756-7.258a4.662 4.662 0 0 1-.314-.423.986.986 0 0 1-.138.079v7.876h-2.142q.015-8.149.01-16.295h2.131v7.3c.049.02.1.049.138.069a4.187 4.187 0 0 1 .245-.344c2.014-2.24 4.017-4.488 6.04-6.718a1.071 1.071 0 0 1 .659-.301c.7-.04 1.4-.01 2.229-.01-2.337 2.622-4.6 5.156-6.894 7.729 2.652 2.839 5.274 5.667 7.995 8.584h-1.458c-.468.006-.92.004-1.371-.003zm44.824-.01v-16.296h2.081v16.293zm-39.757-.01v-16.217h2.121v7.021h8.407v-7.021h2.141v16.2h-2.111v-7h-8.417v7.013zm17.069-.02v-16.266h2.1v16.263zm23.267-18.682a2.207 2.207 0 1 1 2.445-3.055c.069.147.128.295.187.452v.894c-.059.147-.127.295-.187.442a2.2 2.2 0 0 1-1.99 1.318 2.042 2.042 0 0 1-.455-.051zm-10.94.048a2.2 2.2 0 0 1-2.181-2.2 2.2 2.2 0 1 1 2.2 2.2zm-8.044-2.2a2.205 2.205 0 1 1 4.41.02 2.218 2.218 0 0 1-2.2 2.18h-.019a2.192 2.192 0 0 1-2.192-2.2zm-3.477 2.2a2.21 2.21 0 1 1 2.22-2.2 2.193 2.193 0 0 1-2.2 2.2zm14.978-2.17a2.21 2.21 0 1 1 4.42-.048 2.21 2.21 0 0 1-4.42.048z"/>
</symbol><symbol id="icon-label" viewBox="-5016.689 -5371.63 132.438 132.438">
    
    <g class="b">
        <path class="a" d="M-4958.155-5370.628h-55.535l126.438 126.438v-63.219l-63.218-63.219z"/>
    </g>
</symbol><symbol id="icon-landscape" viewBox="-6548.468 -4429.618 52.989 36.71">
    
    <path class="a" d="M-6497.952-4392.908h-44.24a2.558 2.558 0 0 1-1.883-4.236l12.08-12.551a2.509 2.509 0 0 1 3.608 0l2.2 2.2a2.46 2.46 0 0 0 3.765-.314c2.51-3.608 5.02-7.217 7.687-10.825a2.493 2.493 0 0 1 4.079 0c4.863 7.373 9.883 14.59 14.747 21.963a2.4 2.4 0 0 1-2.043 3.763z"/>
    <path class="a" d="M-6541.252-4429.618a7.061 7.061 0 1 1-7.217 7.06 7.268 7.268 0 0 1 7.217-7.06z"/>
</symbol><symbol id="icon-mekong-logo" viewBox="-7259.039 4026.547 90.161 90.024">
    
    <path class="a" d="M-7249.711 4077.115q2.76 8.28 4.83 15.18c.46-1.61 1.15-3.91 2.07-6.67 1.15-3.45 1.84-5.98 2.53-7.82 0-.23.46-.46.92-.46h.69c.23 0 .23-.23.46-.46.46-.23.92-.23.92 0v16.1a1.265 1.265 0 0 1-.69 1.15c-.46.23-.69.23-.92 0v-14.95q-.69 2.415-2.07 6.21c-1.15 3.45-1.84 5.98-2.53 7.82 0 .23-.46.46-.92.46a.845.845 0 0 1-.69-.23.225.225 0 0 1-.23.23c-.23.46-.46.46-.69.23v-.23c-1.38-4.6-2.99-9.66-4.6-14.72v13.802a1.265 1.265 0 0 1-.69 1.15c-.46.23-.69.23-.92 0v-16.1a1.265 1.265 0 0 1 .69-1.15c.46-.23.92-.23.92 0v.23"/>
    <path class="a" d="M-7232.461 4086.467h6.21a.8.8 0 0 0 .46-.23 5.663 5.663 0 0 0-.23-2.76 3.349 3.349 0 0 0-1.38-2.07c-.69-.46-1.38-.92-2.07-.69a2.915 2.915 0 0 0-2.07.92 6.981 6.981 0 0 0-1.38 3.91 12.421 12.421 0 0 0 0 4.14 5.683 5.683 0 0 0 .92 2.07c.46.69.69 1.15 1.38 1.38a2.444 2.444 0 0 0 1.84.23 2.328 2.328 0 0 0 1.61-.92 5.431 5.431 0 0 1 2.07-1.38c.46 0 .69 0 .46.23 0 .23-.23.46-.23.69a5.422 5.422 0 0 1-3.68 2.07 4.751 4.751 0 0 1-3.68-1.15 9.082 9.082 0 0 1-2.3-8.28 6.778 6.778 0 0 1 1.15-2.99 4.252 4.252 0 0 1 2.07-1.61 8.624 8.624 0 0 1 2.53-.23 6.888 6.888 0 0 1 2.3.92 2.356 2.356 0 0 1 1.15 1.38 2.612 2.612 0 0 1 .69 1.84 5.064 5.064 0 0 1 .23 1.84 1.391 1.391 0 0 1-.69 1.38c-.23.23-.46.23-1.15.23a5.716 5.716 0 0 1-1.84-.23c-.69 0-1.38-.23-1.84-.23a4.685 4.685 0 0 1-2.53-.46c-.23-.23 0-.23.23-.23-.69.46-.46.23-.23.23z"/>
    <path class="a" d="M-7213.831 4082.175a38.35 38.35 0 0 1-3.22 3.45c-.23.23-.23.46-.46.46 1.38 2.53 2.76 4.83 4.14 7.13a1.739 1.739 0 0 1-.23.92c-.23.46-.46.46-.69.23-.92-1.61-2.3-3.91-3.91-6.9v-.46a13.635 13.635 0 0 1-1.84 1.84c-.23.23-.23.23-.46 0v3.912a1.265 1.265 0 0 1-.69 1.15c-.46.23-.69.23-.92 0v-16.1a1.265 1.265 0 0 1 .69-1.15c.46-.23.92-.23.92 0v10.81c3.45-3.68 5.29-5.52 5.75-5.98.23-.23.46-.23.92 0a.431.431 0 0 1 0 .688z"/>
    <path class="a" d="M-7203.71 4082.04c-1.38-.69-2.53-.92-3.45-.23a6.318 6.318 0 0 0-2.07 3.45 12.735 12.735 0 0 0-.46 4.14 6.064 6.064 0 0 0 1.61 3.68 2.328 2.328 0 0 0 1.61.92 1.965 1.965 0 0 0 1.61 0 5.764 5.764 0 0 0 1.61-.92 2.328 2.328 0 0 0 .92-1.61 9.164 9.164 0 0 0 .69-3.91 8.427 8.427 0 0 0-.46-3.68 6.473 6.473 0 0 1-.23-1.84c0-.23.23-.23.46 0a7.2 7.2 0 0 1 1.15 2.3q.345 1.38.69 3.45a11.394 11.394 0 0 1-.46 3.91 4.126 4.126 0 0 1-1.15 1.61 4.623 4.623 0 0 1-1.84.92 5.866 5.866 0 0 1-3.45 0 8.069 8.069 0 0 1-1.84-1.15 5.535 5.535 0 0 1-1.38-1.84 8.239 8.239 0 0 1-.92-2.53 5.606 5.606 0 0 1 0-2.76l.69-2.76a8.027 8.027 0 0 1 1.38-2.07 6.03 6.03 0 0 1 2.07-1.15 3.191 3.191 0 0 1 2.07 0 3.629 3.629 0 0 1 1.84 1.15c.23.23.23.46 0 .46-.23.692-.46.46-.69.46z"/>
    <path class="a" d="M-7196.12 4084.076v8.51a1.232 1.232 0 0 1-.69.92c-.46.23-.92.23-.92 0v-11.27a1.232 1.232 0 0 1 .69-.92c.46-.23.92-.23.92 0v1.15a1.8 1.8 0 0 1 .92-.92c.69-.46 1.15-.92 1.84-.92h1.61a2.917 2.917 0 0 1 1.38.23 3.175 3.175 0 0 1 .92.69 14.876 14.876 0 0 1 .92 2.99 14.147 14.147 0 0 1 .23 2.99v5.75a2.847 2.847 0 0 1 .46.69c.23.23.23.23 0 .23h-.23c-.23-.23-.46-.23-.92-.46a1.744 1.744 0 0 1-.46-.92c-.23-.46-.23-.92-.46-1.38 0-.46-.23-.92-.23-1.61v-6.9c0-.23 0-.46-.23-.46a1.265 1.265 0 0 0-1.15-.69 1.965 1.965 0 0 0-1.61 0 5.028 5.028 0 0 0-1.15.69 1.639 1.639 0 0 0-.69 1.38c0 .23-.23.46-.92.69 0-.46 0-.46-.23-.46z"/>
    <path class="a" d="M-7175.42 4081.806v9.2a15.231 15.231 0 0 1-.23 3.45 7.487 7.487 0 0 1-.92 3.22 5.034 5.034 0 0 1-2.3 2.07 4.7 4.7 0 0 1-2.53 0 4.772 4.772 0 0 1-2.3-1.38 1.083 1.083 0 0 1-.23-1.38c.23-.46.46-.46.46-.46a.225.225 0 0 1 .23.23 3.577 3.577 0 0 0 1.38 1.84 2.116 2.116 0 0 0 2.3.23c1.15-.46 1.84-1.84 2.3-4.14v-1.15c-.46.23-.69.46-1.15.69a4.485 4.485 0 0 1-3.45 0 8.068 8.068 0 0 1-1.84-1.15 12.757 12.757 0 0 1-1.38-1.84 8.313 8.313 0 0 1-.92-4.83 6.124 6.124 0 0 1 .69-2.76 4.447 4.447 0 0 1 1.15-2.07 3.1 3.1 0 0 1 2.07-1.148 3.191 3.191 0 0 1 2.07 0 3.629 3.629 0 0 1 1.84 1.15c.23.23.23.46 0 .46s-.23-.23-.46-.23c-1.38-.69-2.53-.92-3.45 0-.92.69-1.38 1.84-1.84 3.68a12.564 12.564 0 0 0-.23 4.14 6.064 6.064 0 0 0 1.61 3.68 4.812 4.812 0 0 0 1.38.92 3.914 3.914 0 0 0 1.61-.23 2.772 2.772 0 0 0 1.15-1.15 3.707 3.707 0 0 0 .92-1.61 2.917 2.917 0 0 0 .23-1.38v-5.75a5.716 5.716 0 0 1-.23-1.84c0-.23.23-.23.46 0l.46-.46c.46-.23.69-.23.92 0 .23-.232.23-.232.23-.002z"/>
    <path class="a" d="M-7256.509 4099.49a974.04 974.04 0 0 1 4.83 14.95c.46-1.61 1.15-3.68 2.07-6.67 1.15-3.45 1.84-5.98 2.53-7.82 0-.23.46-.46.92-.46h.69c.23-.23.23-.46.46-.46.46-.23.92-.23.92 0v16.103a1.265 1.265 0 0 1-.69 1.15c-.46.23-.69.23-.92 0v-14.722q-.69 2.415-2.07 6.21c-1.15 3.45-1.84 5.98-2.53 7.82 0 .23-.46.46-.92.46a.845.845 0 0 1-.69-.23.225.225 0 0 1-.23.23c-.23.46-.46.46-.69.23v-.23c-1.38-4.6-2.99-9.66-4.6-14.72v13.802a1.265 1.265 0 0 1-.69 1.15c-.46.23-.69.23-.92 0v-16.1a1.265 1.265 0 0 1 .69-1.15c.46-.23.92-.23.92 0v.23"/>
    <path class="a" d="M-7234.428 4103.725c-1.38-.69-2.53-.92-3.45-.23a6.318 6.318 0 0 0-2.07 3.452 12.736 12.736 0 0 0-.46 4.14 6.064 6.064 0 0 0 1.61 3.68 2.328 2.328 0 0 0 1.61.92 1.965 1.965 0 0 0 1.61 0 5.765 5.765 0 0 0 1.61-.92 2.328 2.328 0 0 0 .92-1.61 9.165 9.165 0 0 0 .69-3.91 8.427 8.427 0 0 0-.46-3.68 6.473 6.473 0 0 1-.23-1.84c0-.23.23-.23.46 0a7.2 7.2 0 0 1 1.15 2.3q.345 1.38.69 3.45a11.394 11.394 0 0 1-.46 3.91 4.126 4.126 0 0 1-1.15 1.61 4.623 4.623 0 0 1-1.84.92 5.866 5.866 0 0 1-3.45 0 8.068 8.068 0 0 1-1.838-1.152 5.536 5.536 0 0 1-1.38-1.84 8.239 8.239 0 0 1-.92-2.53 5.606 5.606 0 0 1 0-2.76l.69-2.76c.23-.23.69-.92 1.15-1.38a6.03 6.03 0 0 1 2.07-1.15 3.191 3.191 0 0 1 2.07 0 3.629 3.629 0 0 1 1.84 1.15c.23.23.23.46 0 .46-.002.23-.232-.001-.462-.23z"/>
    <path class="a" d="M-7226.609 4103.323l.23-.23a6.887 6.887 0 0 1 1.84-.92h1.61a2.917 2.917 0 0 1 1.38.23 3.175 3.175 0 0 1 .92.69c.23.46.23.69.46 1.15a5.017 5.017 0 0 1 .92-1.15c.69-.46 1.15-.92 1.84-.92h1.61a2.917 2.917 0 0 1 1.38.23 3.175 3.175 0 0 1 .92.69 14.877 14.877 0 0 1 .92 2.99 14.147 14.147 0 0 1 .23 2.99v5.98a2.846 2.846 0 0 1 .46.69c.23.23.23.23 0 .23h-.23c-.23-.23-.46-.23-.92-.46a1.2 1.2 0 0 1-.46-.92c-.23-.46-.23-.92-.46-1.38 0-.46-.23-.92-.23-1.61v-7.13c0-.23 0-.46-.23-.46a2.3 2.3 0 0 0-1.15-.92 1.965 1.965 0 0 0-1.61 0 1.956 1.956 0 0 0-1.15.69 2.1 2.1 0 0 0-.69 1.15 1.027 1.027 0 0 1-.92.69h-.23v.46a14.147 14.147 0 0 1 .23 2.99v5.98a2.847 2.847 0 0 1 .46.69c.23.23.23.23 0 .23h-.23c-.23-.23-.69-.23-.92-.46a1.2 1.2 0 0 1-.46-.92c-.23-.46-.23-.92-.46-1.38 0-.46-.23-.92-.23-1.61v-7.13c0-.23 0-.46-.23-.46a2.3 2.3 0 0 0-1.15-.92 1.965 1.965 0 0 0-1.61 0 1.956 1.956 0 0 0-1.15.69 1.639 1.639 0 0 0-.69 1.38q0 .345-.69.69v8.74a1.233 1.233 0 0 1-.69.92c-.46.23-.92.23-.92 0v-11.27a1.233 1.233 0 0 1 .69-.92c.46-.23.92-.23.92 0 .69-.23.69-.23.69 0z"/>
    <path class="a" d="M-7207.288 4108.842h6.21a.8.8 0 0 0 .46-.23 5.663 5.663 0 0 0-.23-2.76 3.349 3.349 0 0 0-1.38-2.07c-.69-.46-1.38-.92-2.07-.69a2.915 2.915 0 0 0-2.07.92 6.981 6.981 0 0 0-1.38 3.91 12.421 12.421 0 0 0 0 4.14 5.683 5.683 0 0 0 .92 2.07c.46.69.69 1.15 1.38 1.38a2.444 2.444 0 0 0 1.84.23 2.328 2.328 0 0 0 1.61-.92 5.431 5.431 0 0 1 2.07-1.38c.46 0 .69 0 .46.23 0 .23-.23.46-.23.69a5.422 5.422 0 0 1-3.68 2.07 4.751 4.751 0 0 1-3.68-1.15 9.082 9.082 0 0 1-2.3-8.28 6.778 6.778 0 0 1 1.15-2.99 4.252 4.252 0 0 1 2.07-1.61 8.624 8.624 0 0 1 2.53-.23 6.888 6.888 0 0 1 2.3.92 2.356 2.356 0 0 1 1.15 1.38 2.612 2.612 0 0 1 .69 1.84 5.064 5.064 0 0 1 .23 1.84 1.391 1.391 0 0 1-.69 1.38c-.23.23-.46.23-1.15.23a5.716 5.716 0 0 1-1.84-.23c-.69 0-1.38-.23-1.84-.23a4.685 4.685 0 0 1-2.53-.46c-.23-.23 0-.23.23-.23-.46.23-.23.23-.23.23z"/>
    <path class="a" d="M-7195.328 4106.451v8.51a1.232 1.232 0 0 1-.69.92c-.46.23-.92.23-.92 0v-11.27a1.233 1.233 0 0 1 .69-.92c.46-.23.92-.23.92 0v1.15a1.8 1.8 0 0 1 .92-.92c.69-.46 1.15-.92 1.84-.92h1.61a2.917 2.917 0 0 1 1.38.23 3.175 3.175 0 0 1 .92.69 14.877 14.877 0 0 1 .92 2.99 14.147 14.147 0 0 1 .23 2.99v5.75a2.846 2.846 0 0 1 .46.69c.23.23.23.23 0 .23h-.23c-.23-.23-.46-.23-.92-.46a1.744 1.744 0 0 1-.46-.92c-.23-.46-.23-.92-.46-1.38 0-.46-.23-.92-.23-1.61v-6.9c0-.23 0-.46-.23-.46a1.265 1.265 0 0 0-1.15-.69 1.965 1.965 0 0 0-1.61 0 5.027 5.027 0 0 0-1.15.69 1.639 1.639 0 0 0-.69 1.38c0 .23-.23.46-.92.69 0-.46-.23-.46-.23-.46z"/>
    <path class="a" d="M-7181.988 4099.318v3.45h1.38c.23 0 .23.23.46.46s0 .46-.23.46h-1.61v5.98c0 1.15.23 2.3.23 3.22.23.92.46 1.84.69 2.53a2.847 2.847 0 0 0 .69.46c.23.23.23.23 0 .23h-1.15a.845.845 0 0 1-.69-.23c-.23 0-.46-.23-.69-.46s-.46-.46-.46-.69a.845.845 0 0 1-.23-.69v-10.58h-.46c-.23 0-.23-.23-.46-.46s0-.46.23-.46h.69v-2.99q0-.345.69-.69c.46 0 .92 0 .92.46z"/>
    <path class="a" d="M-7170.488 4104.789c-.23-.46-.69-.92-.92-1.38a1.988 1.988 0 0 0-1.38-.69 3.411 3.411 0 0 0-1.61.23 2.772 2.772 0 0 0-1.15 1.15 3.324 3.324 0 0 0-.46 1.61 3.411 3.411 0 0 0 .23 1.61c0 .23.23.23.46.46s.46.23.69.46a.712.712 0 0 0 .46.23c.23 0 .46.23.69.23a1.78 1.78 0 0 0 .69.23 1.78 1.78 0 0 1 .69.23 1.007 1.007 0 0 1 .69.23c.23 0 .23.23.69.23.23 0 .46.23.69.46s.46.23.46.46a3.434 3.434 0 0 1 .69 2.3 3.053 3.053 0 0 1-.69 2.3 5.5 5.5 0 0 1-3.22 1.15 4.986 4.986 0 0 1-3.22-1.15 1.422 1.422 0 0 1-.46-1.61c.23-.46.23-.69.46-.69s.23 0 .23.23a2.575 2.575 0 0 0 1.61 1.84 3.331 3.331 0 0 0 2.53.23 3.175 3.175 0 0 0 .92-.69c.23-.46.23-.92.46-1.38v-2.07a.225.225 0 0 0-.23-.23l-1.84-.92-2.07-.69a6.886 6.886 0 0 1-1.84-.92 3.092 3.092 0 0 1-1.38-1.61 1.466 1.466 0 0 1 0-1.38l.69-1.38c.23-.46.69-.69 1.15-1.15a3.886 3.886 0 0 1 1.15-.46 6.141 6.141 0 0 1 4.14.69l.69.69a.712.712 0 0 1 .23.46c0 .23 0 .23-.23.46-.46 0-.46.23-.69.23z"/>
    <g>
        <path class="a" d="M-7233.189 4046.146h1.704v5.113h-1.704z"/>
        <path class="a" d="M-7224.668 4038.69h5.965v1.704h-5.965z"/>
        <path class="a" d="M-7210.821 4044.442h1.704v3.195h-1.704z"/>
        <path class="a" d="M-7210.824 4059.354v1.491h-11.5v1.7h12.995v-3.191z"/>
        <path class="a" d="M-7223.816 4046.785h-12.995v-13.208h13.208v13.208zm-11.5-1.7h9.8v-9.808h-9.8z"/>
        <path class="a" d="M-7205.068 4043.803h-13.209v-15.556h15.765v7.673h1.7v-9.373h-18.956v18.96h14.7z"/>
        <path class="a" d="M-7221.259 4069.367h-18.747v-18.747h18.747zm-17.047-1.704h15.343v-15.343h-15.343z"/>
        <path class="a" d="M-7202.934 4056.158v1.7h4.261v5.965h-5.97v-4.683h-1.491v6.178h9.16v-9.16z"/>
        <path class="a" d="M-7203.577 4049.985v8.521h-10.017v-10.021h8.734v-1.7h-10.434v13.208h13.421v-10.008z"/>
        <path class="a" d="M-7189.521 4051.255h-16.4v-16.4h16.4zm-14.7-1.7h13v-13h-13z"/>
    </g>
</symbol><symbol id="icon-mekong-tourism" viewBox="-7030.999 4061.875 71.898 116.729">
    
    <path class="a" d="M-7030.9 4062.058h32.173l.912 1.988c.082 1.922-.713 3.811-.25 5.583a10.417 10.417 0 0 0 2.187 3.561c.365.465.83.994 1.326 1.541.547.6 1.341 1.243 1.225 2.186a2.274 2.274 0 0 1-1.241 1.658c-.713.447-1.691.547-2.087 1.16a1.848 1.848 0 0 0-.134 1.558c.134.564.663 1.027.515 1.64-.216.845-1.541.712-2.584.63 0 0-.267.183.05.331.927.413 2.154.729 1.954 1.773-.065.381-.413.364-.794.6a1.97 1.97 0 0 0-.746.927c-.448 1.11.316 2.27.033 3.612a3.628 3.628 0 0 1-1.295 2.069 5.4 5.4 0 0 1-2.1.579c-.43-1.358.25-2.832-.165-4.241-4.957-16.619-28.944-22.103-28.944-22.103l-.018 34.807-.017.017zm71.768 23.408v-20.161c-23.923 2.77-28.794 11.281-29.721 15.39a3.068 3.068 0 0 1-1.209-.5 2.4 2.4 0 0 1-.713-1.64c.017-.581.314-1.144.364-1.822a1.36 1.36 0 0 0-.5-1.127c-.167-.116-.4-.149-.465-.265-.166-.3.1-.712.282-.861a1.528 1.528 0 0 1 .413-.215s.447-.316-.032-.465l-.1-.067c-.431-.116-.829-.166-.929-.5-.131-.48.58-.927.63-1.64.082-.962-.729-.962-1.407-1.425a1.909 1.909 0 0 1-.764-.962c-.247-.861.548-1.341 1.11-1.838.416-.348.812-.729 1.16-1.078a4.955 4.955 0 0 0 1.74-2.75 9.34 9.34 0 0 0-.027-1.665h30.183v23.591z"/>
    <path class="b" d="M-7020.082 4151.485c-3.811-.448-7.869-1.277-10.918.248l.1-45.607.049-18.986c28.064 9.659 25.514 23.823 25.514 23.823a11.011 11.011 0 0 0-.05 4.7 15.961 15.961 0 0 0 2.435 4.39c.382.547.779 1.077 1.143 1.541.547.713 1.375 1.641 2.2 2.585.795.911 1.739 1.789 1.739 2.9.017 1.391-.994 2.12-1.938 2.717-1.06.68-2.75.861-3.363 1.823-.514.828-.016 2.087.2 2.932.232.911.878 1.541.812 2.369a1.9 1.9 0 0 1-1.972 1.839 2.3 2.3 0 0 1 .928 2.8c-.347.845-.745.63-1.391 1.077-.381.265-1.425 1.06-1.59 1.607a7.687 7.687 0 0 0 .1 3.3s.382 1.756-2.369 3.214a12.532 12.532 0 0 1-5.873 1.163 50.716 50.716 0 0 1-5.756-.435zm38.8-.464c-2.7-1.094-2.319-2.4-2.319-2.4.149-.861.7-1.756.1-2.469a11.741 11.741 0 0 0-2.038-.994 1.163 1.163 0 0 1-.746-.663c-.265-.895 1.028-1.49.861-2.5-.148-1.011-2.617-1.375-2.783-2.071 0 0-.265-.348.481-.995 0 0 1.309-1.043 1.309-2.12 0-.331-.033-.629-.033-.629-.149-.481-.795-1.276-3.33-2.055-.347-.116-.712-.2-1.076-.3 0 0-3.876-1.077-.928-5.55 0 0 2.6-4.456 3.893-7.206 0 0 1.226-1.408-.116-3.76a5.751 5.751 0 0 0-.282-.829 4.67 4.67 0 0 1-.348-1.093 7.368 7.368 0 0 1 .348-3.595 35.938 35.938 0 0 1 4.507-11.048c4.258-6.836 11.657-13.848 24.599-13.936l.033 41.3.016 23.641c-2.982-1.127-6.974-.514-10.719-.183-1.834.155-3.787.313-5.657.313a15.819 15.819 0 0 1-5.773-.858z"/>
    <path class="b" d="M-6983.966 4178.14l-.663-1.872a6.556 6.556 0 0 0 3.579 1.059c.777 0 2.086-.264 2.086-1.242 0-1.922-5.167-1.309-5.167-4.208 0-2.021 2.086-2.55 3.727-2.55a7.592 7.592 0 0 1 2.121.248v1.657a4.856 4.856 0 0 0-2.335-.614c-.631 0-1.774.149-1.774.911 0 1.69 5.17 1.078 5.17 4.11 0 1.772-1.806 2.965-4.258 2.965a6.681 6.681 0 0 1-2.486-.464zm-35.988-4.108a4.756 4.756 0 0 1 5.053-4.7 4.6 4.6 0 0 1 3.181 1.126 4.655 4.655 0 0 1 1.566 3.405 4.807 4.807 0 0 1-4.969 4.721 4.615 4.615 0 0 1-4.831-4.552zm1.938-.348c0 1.755 1.044 3.644 2.983 3.644a2.943 2.943 0 0 0 2.969-3.065c0-1.855-.994-3.678-3.032-3.678a2.913 2.913 0 0 0-2.916 3.099zm10.57.927v-2.932c0-.878.116-1.574-.728-2.054v-.05h1.242a1.856 1.856 0 0 0 1.159-.248h.067v4.97c0 1.739.5 2.832 2.154 2.832a2.27 2.27 0 0 0 2.17-2.5v-2.933c0-.9.116-1.574-.729-2.072v-.061h.96c.5 0 1.078.083 1.426-.249h.065v6.921c0 .878-.116 1.59.729 2.021v.065h-2.452v-1.241a2.88 2.88 0 0 1-2.75 1.491c-2.248 0-3.309-1.276-3.309-3.96zm44.134 3.728v-.067c.844-.464.729-1.176.729-2.054v-2.455c0-1.938-.613-3.18-2.138-3.18-1.706 0-2.186 1.093-2.186 2.883v2.752c0 .878-.116 1.574.728 2.054v.067h-3.18v-.067c.845-.464.729-1.176.729-2.054v-2.617c0-2-.994-3.015-2.17-3.015-1.458 0-2.153.894-2.153 2.716v2.916c0 .878-.116 1.558.7 2.054v.067h-3.164v-.067c.845-.464.729-1.176.729-2.054v-4.555c0-.879.116-1.558-.729-2.038v-.05h1.226a1.972 1.972 0 0 0 1.177-.248h.05v1.507a2.863 2.863 0 0 1 2.683-1.507 3.2 3.2 0 0 1 2.965 1.657 3.871 3.871 0 0 1 1.692-1.415c-2.655-.092-4.905-1.143-4.905-2.694 0-1.059.846-1.539 1.823-1.539a2.462 2.462 0 0 1 1.093.248.8.8 0 0 0-.729.862c0 1.606 1.9 1.889 3.147 1.889 1.259 0 3.38-.348 3.38-1.955 0-1.673-2.733-1.773-3.894-1.773l-1.309.033a1.361 1.361 0 0 1-1.391-1.358c0-.564 1.109-.828 1.507-1.011a3.106 3.106 0 0 1-2.519-2.932c0-2.2 2.137-3.231 4.092-3.231v-.017h5.716l-.431 1c-.149.347-.2.463-.614.463a12.8 12.8 0 0 1-1.954-.248 2.724 2.724 0 0 1 1.358 2.3c0 2.154-2.32 2.817-4.059 2.965-.264.017-.778.183-.778.514 0 .415.894.365 1.142.365 3.3 0 5.053.894 5.053 2.783 0 1.658-1.436 2.758-3.464 3.167 1.956.324 2.5 1.77 2.5 3.89v2.928c0 .812-.116 1.757.846 2.054v.067zm-4.191-19.3a2.4 2.4 0 0 0 2.336 2.3 1.847 1.847 0 0 0 1.989-1.855 2.206 2.206 0 0 0-2.386-2.12 1.72 1.72 0 0 0-1.936 1.675zm-22.265 19.3v-.067c.844-.464.728-1.176.728-2.054v-4.555c0-.879.116-1.558-.728-2.038v-.05h1.159a1.869 1.869 0 0 0 1.243-.3h.049v6.943c0 .878-.116 1.574.728 2.054v.067zm-7.008 0v-.067c.845-.464.729-1.176.729-2.054v-4.555c0-.879.1-1.558-.712-2.038v-.05h1.226a1.832 1.832 0 0 0 1.159-.248h.05v1.436a2.6 2.6 0 0 1 2.252-1.441l.68.065v1.745a1.263 1.263 0 0 0-.879-.3c-1.441 0-2.053.762-2.053 2.717v2.669c0 .878-.117 1.574.729 2.054v.067zm-30.333 0v-.067c.96-.347.845-1.739.845-2.6v-8.499h-1.673a3.336 3.336 0 0 0-2.269.763h-.048l.663-2.27h.033a2.733 2.733 0 0 0 .729.132h7.6a2.082 2.082 0 0 0 .878-.132h.049l-.612 2.27h-.049c-.25-.663-1.011-.763-1.641-.763h-1.724v8.681c0 1.094-.016 1.822 1 2.418v.067zm37.623-11.15a1.2 1.2 0 0 1 1.246-1.126 1.164 1.164 0 0 1 1.143 1.176 1.2 1.2 0 0 1-1.143 1.209 1.235 1.235 0 0 1-1.243-1.259zm-2.32-6.394a4.746 4.746 0 0 1 5.053-4.706 4.631 4.631 0 0 1 3.181 1.127 4.654 4.654 0 0 1 1.557 3.412 4.807 4.807 0 0 1-4.97 4.722 4.6 4.6 0 0 1-4.818-4.555zm1.922-.332c0 1.739 1.061 3.628 3 3.628a2.923 2.923 0 0 0 2.949-3.065c0-1.854-.994-3.678-3.032-3.678a2.928 2.928 0 0 0-2.914 3.115zm-21.686.2a4.469 4.469 0 0 1 4.754-4.573 4.087 4.087 0 0 1 4.291 4.324h-6.975a3.564 3.564 0 0 0 3.811 3.678 5.087 5.087 0 0 0 3.131-1.011h.049l-.96 1.79a6.813 6.813 0 0 1-2.635.48c-3.227 0-5.462-2.038-5.462-4.688zm2.137-1.342h4.9a2.184 2.184 0 0 0-2.452-1.972 2.366 2.366 0 0 0-2.444 1.971zm-12.906 3.728l-3.611-8.582-1.094 8.184c-.149 1.16-.281 2 .612 2.4v.051h-3.1v-.051a3.966 3.966 0 0 0 1.06-2.667l1.093-7.985c.066-.531.283-1.293-.6-1.773v-.049h3.347v.016a2.188 2.188 0 0 0 .265.862l3.578 8.4 3.166-8.1a3.408 3.408 0 0 0 .281-1.175v-.017h3.3v.049c-.464.133-.6.7-.6 1.127l1.259 9.36a2.259 2.259 0 0 0 .978 1.938v.049h-3.678v-.049c.662-.2.778-.779.778-1.425l-1.094-9.179-4.274 10.918a4.736 4.736 0 0 1-1.662-2.303zm28.694 2.054a2.152 2.152 0 0 1-1.938-1.06l-2.833-3.844 1.59-1.739c.3-.331.978-1.043.978-1.523a.626.626 0 0 0-.364-.547v-.049h2.9l-3.18 3.678 2.319 2.948a7.991 7.991 0 0 0 2.019 2.136zm19.018-.017v-.049c.846-.48.729-1.176.729-2.038v-2.569c0-2.037-.563-3.081-2.3-3.081s-2.021 1.16-2.021 2.286v3.363c0 .879-.117 1.558.729 2.038v.049h-3.182v-.049c.846-.48.73-1.176.73-2.054v-4.54c0-.878.116-1.574-.73-2.054v-.049h1.11a2.482 2.482 0 0 0 1.276-.249h.05v1.458a3.086 3.086 0 0 1 2.684-1.458 3.542 3.542 0 0 1 2.9 1.31 5.017 5.017 0 0 1 .48 2.832v2.767c0 .879-.116 1.558.729 2.038v.049zm-26.589 0v-.049c.828-.48.712-1.176.712-2.054v-8.3c0-.878.1-1.574-.712-2.054v-.066h1.259a1.491 1.491 0 0 0 1.127-.3h.049v10.719c0 .878-.116 1.574.746 2.054v.049z"/>
    <path class="c" d="M-6959.117 4128.127l-.032-41.3c-24.42.164-29.109 24.978-29.109 24.978a7.364 7.364 0 0 0-.342 3.6 6.362 6.362 0 0 1-3-1.109 4.16 4.16 0 0 1-1.011-2.552c-.065-1.575.912-2.816.63-4.159a2.237 2.237 0 0 0-.63-1.143c-.364-.314-.745-.331-.745-.8a1.088 1.088 0 0 1 .712-1.059l1.359-.663c.464-.232-.033-.465-.033-.465-1.026-.033-2.12-.149-2.2-1.044-.067-.729.579-1.177.812-1.822a2.286 2.286 0 0 0 .115-1.805c-.314-.762-1.325-.994-2.02-1.607a2.589 2.589 0 0 1-1.028-2.07c.034-1.078.979-1.74 1.641-2.354a30.274 30.274 0 0 0 1.639-1.606 12.391 12.391 0 0 0 2.883-3.8 12.72 12.72 0 0 0 .463-4.373 6.768 6.768 0 0 1 .182-2.27c.922-4.099 5.793-12.632 29.731-15.399v62.838zm-46.283-12.475a11.253 11.253 0 0 1 .067-4.688s2.547-14.165-25.517-23.824l-.05 18.986v-4.275l.035-34.739s23.987 5.483 28.957 22.066c.414 1.409-.265 2.883.165 4.241a.147.147 0 0 0 .017.084 11.824 11.824 0 0 0 2.9 3.876 40.443 40.443 0 0 0 1.691 1.674c.7.663 1.689 1.342 1.622 2.386a2.388 2.388 0 0 1-1.276 1.889c-.811.53-1.938.678-2.336 1.375a2 2 0 0 0 0 1.739c.217.63.88 1.127.763 1.805-.165.9-1.554.852-2.74.805a8.052 8.052 0 0 0-1.236.006c.962.482 3.727.647 3.561 2.27-.032.43-.448.43-.861.7a2.177 2.177 0 0 0-.779 1.059c-.414 1.243.579 2.519.4 4.01a3.677 3.677 0 0 1-1.292 2.352 5.927 5.927 0 0 1-1.657.6 16.964 16.964 0 0 1-2.434-4.397z"/>
</symbol><symbol id="icon-money" viewBox="-7360.536 -4443.11 58.517 58.517">
    
    <path class="a" d="M-7323.669-4443.11h.628c.314.157.784.471 1.1.628 6.118 3.451 12.394 6.9 18.512 10.511.471.157.784.628 1.1.941v.628l-.941.941c-.628.314-1.1.628-1.726.941a14.58 14.58 0 0 1-1.569.784c1.1.628 2.2 1.255 3.138 1.883a6.825 6.825 0 0 0 1.1.941v.784c-.314.314-.784.628-1.1.941-.784.471-1.412.784-2.2 1.255a9 9 0 0 0-1.1.628c1.255.628 2.353 1.255 3.451 1.883a6.826 6.826 0 0 0 1.1.941v.784c-.314.314-.784.628-1.1.941-.628.314-1.255.784-1.883 1.1-.471.314-.941.471-1.412.784 1.255.628 2.353 1.255 3.451 1.883a6.824 6.824 0 0 0 1.1.941v.784a6.825 6.825 0 0 1-1.1.941 11.7 11.7 0 0 0-1.883 1.1 14.576 14.576 0 0 1-1.569.784c1.255.628 2.353 1.255 3.451 1.883.314.157.628.628 1.1.941v.784a6.824 6.824 0 0 1-1.1.941c-5.491 2.981-10.982 5.962-16.473 9.1-6.275 3.451-12.394 6.746-18.669 10.2h-.623c-.314-.157-.471-.314-.784-.471-6.589-4.079-13.335-8.315-19.924-12.394-.314-.157-.628-.628-.941-.941v-.628a6.823 6.823 0 0 1 1.1-.941c1.1-.628 2.2-1.1 3.295-1.726-.157-.157-.314-.314-.471-.314-.941-.628-2.039-1.255-2.981-1.883-.314-.157-.628-.628-.941-.941v-.628a6.825 6.825 0 0 1 1.1-.941c1.1-.628 2.2-1.1 3.295-1.726-.157-.157-.314-.314-.471-.314-.941-.628-2.039-1.255-2.981-1.883-.314-.157-.628-.628-.941-.941v-.628a6.826 6.826 0 0 1 1.1-.941c.628-.471 1.412-.628 2.039-1.1.471-.157.784-.471 1.255-.628-1.255-.784-2.353-1.412-3.451-2.2l-.941-.941v-.628a6.825 6.825 0 0 1 1.1-.941 29.257 29.257 0 0 1 3.138-1.569 37.541 37.541 0 0 0-3.295-2.039l-.95-.934v-.784c.471-.314.784-.628 1.255-.941 8.001-3.926 15.845-7.848 23.845-11.775 3.923-1.878 7.845-3.761 11.767-5.8zm-21.806 13.492a1.189 1.189 0 0 0 .628.314c5.648 3.608 11.139 7.217 16.786 10.825a1.725 1.725 0 0 1 .941 1.569v23.062c.157-.157.471-.157.628-.314 3.608-2.039 7.373-4.079 10.982-6.118.471-.157.471-.471.471-.941v-22.9a.949.949 0 0 0-.471-.941c-5.648-3.608-11.139-7.217-16.629-10.825-.314-.157-.628-.314-.941 0-3.922 1.883-7.844 3.765-11.609 5.8-.473.312-.63.312-.786.469zm-11.3 5.491c.157.157.314.157.471.314l17.418 10.824a1 1 0 0 0 .941 0l5.177-2.824c.784-.471 1.569-.784 2.353-1.255-.157-.157-.314-.157-.314-.314-5.491-3.608-11.139-7.217-16.629-10.825a.712.712 0 0 0-.784 0 182.585 182.585 0 0 0-7.844 3.922 3.191 3.191 0 0 0-.785.158zm50.829-6.589a.154.154 0 0 1-.157-.157c-5.648-3.138-11.3-6.275-16.943-9.57-.157-.157-.471 0-.784 0-1.569.784-3.295 1.569-4.863 2.353a14.575 14.575 0 0 1-1.569.784c.157.157.314.157.314.314 5.334 3.451 10.511 6.746 15.845 10.2a.712.712 0 0 0 .784 0c2.353-1.255 4.55-2.51 6.9-3.765.164.154.321-.003.478-.159zm-50.986 32c6.118 3.765 11.923 7.53 17.884 11.139a.477.477 0 0 0 .628 0c2.824-1.412 5.491-2.981 8.315-4.55.157-.157.314-.314.314-.471v-3.451c-.314.157-.471.157-.628.314-2.51 1.412-4.863 2.667-7.373 4.079a1.653 1.653 0 0 1-1.883 0c-4.55-2.824-8.942-5.648-13.492-8.472-.157-.157-.471-.314-.628-.157a29.248 29.248 0 0 1-3.133 1.575zm27.14-3.451c-.314.157-.471.157-.628.314-2.51 1.412-5.02 2.667-7.53 4.079a1.7 1.7 0 0 1-1.726 0c-4.236-2.667-8.628-5.334-12.864-8.158a1.917 1.917 0 0 0-2.51-.157 21.013 21.013 0 0 1-1.883.941c6.124 3.768 12.085 7.538 18.047 11.138.157.157.471 0 .628 0 2.824-1.569 5.491-2.981 8.315-4.55.157-.157.314-.314.314-.471a20 20 0 0 1-.158-3.133zm0-6.432c-.314.157-.471.157-.628.314-2.51 1.412-4.863 2.667-7.373 4.079a2 2 0 0 1-1.883 0l-13.649-8.472c-.157-.157-.471-.314-.628-.157-.941.471-1.883.941-2.981 1.412l.157.157c5.961 3.608 11.766 7.373 17.728 10.982a.477.477 0 0 0 .628 0 212.139 212.139 0 0 0 8.158-4.55c.157-.157.314-.314.314-.471a21.058 21.058 0 0 0 .162-3.291zm-26.984-9.256c.157.157.314.157.314.314 5.8 3.608 11.609 7.217 17.414 10.982a.712.712 0 0 0 .784 0c2.353-1.412 4.863-2.667 7.373-3.922a1.651 1.651 0 0 0 1.1-2.039 8.838 8.838 0 0 1 0-2.039c-.314.157-.471.314-.628.314-2.51 1.412-4.863 2.667-7.373 4.079a1.693 1.693 0 0 1-1.726 0l-2.353-1.412c-3.765-2.353-7.687-4.863-11.452-7.217-.157-.157-.471-.314-.628-.157a8.826 8.826 0 0 0-2.82 1.1zm50.835-.155a31.111 31.111 0 0 0-3.138-1.726h-.471c-.941.471-2.039 1.1-2.981 1.569a.337.337 0 0 0-.314.314v3.451c2.509-1.254 4.709-2.352 6.904-3.608zm0 6.275a31.121 31.121 0 0 0-3.138-1.726h-.471c-.941.471-2.039 1.1-2.981 1.569-.157 0-.314.314-.314.314v3.451a71.124 71.124 0 0 0 6.904-3.607zm-6.746 10.2c2.353-1.255 4.55-2.51 6.746-3.765-1.1-.628-2.039-1.1-2.981-1.726h-.471c-.941.471-1.883 1.1-2.824 1.569-.157.157-.314.314-.314.471a24.291 24.291 0 0 0-.156 3.449zm0-19.3c2.353-1.255 4.55-2.51 6.746-3.765-1.1-.628-1.883-1.1-2.824-1.569h-.471c-1.1.628-2.2 1.1-3.138 1.726-.157 0-.314.314-.314.314z"/>
</symbol><symbol id="icon-myodyssey" viewBox="-6929.428 4151.285 107.695 18.438">
    
    <path class="a" d="M-6921.986 4168.24a9.438 9.438 0 0 1-3.772-5.624c-.1-.377-.138-.754-.207-1.131.1.034.137 0 .137 0 .309.857.618 1.68.961 2.538a13.592 13.592 0 0 1 .039-5.522h.172v2.3c.067 0 .1.034.171.034a7.029 7.029 0 0 1 1.676-4.25 4.089 4.089 0 0 1-4.012.96c.412-.137.789-.239 1.131-.343a5.7 5.7 0 0 1-3.738-.828c.583.069 1.167.172 1.784.206a4.255 4.255 0 0 0 3.737-1.852 8.35 8.35 0 0 1 6.551-3.429 9.033 9.033 0 0 1 6.1 1.714 10.813 10.813 0 0 1 3.189 4.047c.036.069 0 .172 0 .205l-3.288-2.571c-.034.034-.069.1-.1.137.136.172.308.343.548.617a8.683 8.683 0 0 0-7 .343 5.145 5.145 0 0 1 4.252-1.851 9.375 9.375 0 0 0-7.644 1.165c-.892.584-1 1.44-1.338 2.263 1.609-2.263 1.749-2.366 2.469-2.571a14.859 14.859 0 0 0-1.577 1.851 4.231 4.231 0 0 0 .479 5.076 5.24 5.24 0 0 0 4.115 2.195 4.617 4.617 0 0 0 4.287-2.983 3.9 3.9 0 0 1 3.463-2.675c.515-.1 1.063-.1 1.578-.172 0 .1.034.172 0 .172-1.44.48-1.714 1.749-1.817 2.984a5.239 5.239 0 0 1-1.577 3.773c1.371-.206 1.885-1.407 1.988-4.321a6.914 6.914 0 0 1 .412 1.372 5.574 5.574 0 0 1-1.2 4.7 8.774 8.774 0 0 1-6.448 2.949c-.151.005-.3.008-.452.008a8.463 8.463 0 0 1-5.069-1.486zm27.435-1.3c.411-.789.856-1.543 1.372-2.4a4.874 4.874 0 0 0-.515-.754 4.5 4.5 0 0 1-.96-3.258.774.774 0 0 1 .446-.617c.343-.137.481.1.617.446a4.777 4.777 0 0 0 1.509 2.4c.343-.652.651-1.338 1.029-1.955a8.319 8.319 0 0 1 .857-1.063c.308-.411.651-.137.96 0 .413.172.172.515.069.755a29.268 29.268 0 0 1-2.812 5.791 6.2 6.2 0 0 0-.449 1.2 1.446 1.446 0 0 0 .172.239 10.815 10.815 0 0 1-1.509.412 1.3 1.3 0 0 1-.221.02c-.632.001-.905-.539-.565-1.219zm19.444.96c-.171-.137-.069-.72.069-1.062a11.31 11.31 0 0 1 1.063-1.75.782.782 0 0 0 0-1.028 6.263 6.263 0 0 1-.96-1.681 8.243 8.243 0 0 1-.274-2.057.821.821 0 0 1 .481-.587c.31-.137.446.069.549.412a4.727 4.727 0 0 0 1.577 2.469c.31-.583.618-1.131.927-1.68a7.9 7.9 0 0 1 .788-1.269.746.746 0 0 1 1.167-.138.512.512 0 0 1 .171.515 108.15 108.15 0 0 1-1.954 4.561c-.276.617-.755 1.131-1.063 1.715a8.694 8.694 0 0 0-.446 1.338.289.289 0 0 1 .205.068 4.822 4.822 0 0 1-1.131.377 2.686 2.686 0 0 1-.26.012 1.612 1.612 0 0 1-.908-.218zm21.948-1.44a11.187 11.187 0 0 1 1.269-2.023.588.588 0 0 0 .069-.789c-.377-.549-.789-1.1-1.2-1.646a3.188 3.188 0 0 1-.1.549 2.62 2.62 0 0 1-2.707 2.088c-.549.035-1.133.035-1.681.035-.891 0-1.166-.686-1.543-1.3-.274 1.235-1.337 1.407-2.332 1.543a6.5 6.5 0 0 1-2.161-.137c-.545-.2-1.021-.544-.962-1.119a3.151 3.151 0 0 1-3.256 1.086 4.284 4.284 0 0 0-1.132-.172c-.515 0-.72-.343-.857-.72a.587.587 0 0 1 .17-.584 1.235 1.235 0 0 1 1.338-.239c-.24.137-.377.274-.549.377.034.069.034.137.069.205.857-.274 1.749-.549 2.607-.823v-.206c-.687-.138-1.373-.309-2.058-.446a1.28 1.28 0 0 1-1.2-1.372 1.786 1.786 0 0 1 .616-1.2 3.148 3.148 0 0 1 3.4-.378c.343.138.583.549.857.927a3.482 3.482 0 0 0-3.4.926 5.544 5.544 0 0 0 .72.172c.48.1.994.137 1.474.274 1.1.342 1.372.891 1.235 2.126l-.017.022c.406-.27.812-.541 1.251-.811l.171.172c-.1.172-.205.309-.308.481a4.193 4.193 0 0 0 2.641-.927c-.72-.1-1.269-.239-1.852-.274-.891-.034-1.3-.308-1.542-1.028a1.531 1.531 0 0 1 1.062-2.023 3.8 3.8 0 0 1 2.739-.141 1.045 1.045 0 0 1 .822 1.029 3.411 3.411 0 0 0-3.422 1.027c1.27.274 2.572.034 3.5.892a14.2 14.2 0 0 1 .754-1.407 9.11 9.11 0 0 1 1.3-1.508 2.336 2.336 0 0 1 2.572.034 4.968 4.968 0 0 1 .96 1.269c.206.411-.172.789-.652.857a4.407 4.407 0 0 0-.823.378l-2.469.719c.069.824.274 1.029.995.755 1.235-.481 2.47-1.063 3.5-1.509 0-.789.034-1.372 0-1.92-.035-.446.274-.583.583-.583.172 0 .377.239.48.446.343.651.652 1.337 1.03 1.988.1.206.342.343.616.549.343-.685.618-1.3.961-1.92.24-.411.548-.72.823-1.131.343-.549.789-.309 1.132-.069.137.1.137.584.034.823-.48 1.3-.961 2.607-1.543 3.841-.412.823-.995 1.543-1.475 2.332-.138.205-.069.549-.172.789-.069.205-.171.48-.343.549a5.658 5.658 0 0 1-1.269.274h-.074c-.704.001-.981-.469-.65-1.133zm-11.325-2.841l.006-.006zm.007-.007zm0 0zm6.689-2.573c.754-.24 1.441-.481 2.127-.686a4.5 4.5 0 0 0-1.406-.362c-.522 0-.699.327-.721 1.048zm25.86 4.183c-.274-.412-.1-1.132-.171-1.75-.515.412-1 .858-1.509 1.2a1 1 0 0 1-1.647-.343 4.855 4.855 0 0 1-.413-1.744c-.1-1.029-.1-2.058-.172-3.121.893-.205 1.441.206 1.441 1.166 0 .72.068 1.474.137 2.4a9.423 9.423 0 0 0 2.401-2.745c.239-.583.411-.549 1.131-.239.549.239.377.446.274.892a9.209 9.209 0 0 0-.137 2.572 18.2 18.2 0 0 0 .377 2.263c-.686-.207-1.406-.207-1.712-.551zm2.092-1.1a9.677 9.677 0 0 0-.139-3.837 3.585 3.585 0 0 1 0-.616c.891.034 1.475.342 1.508 1.406.206-.343.274-.515.377-.685a1.01 1.01 0 0 1 1.3-.584.721.721 0 0 1 .377.515 10.756 10.756 0 0 1-.343 1.406c-.412-.205-.72-.514-.995-.48-.48.069-.583.515-.548.995.068.926.1 1.818.1 2.743a.458.458 0 0 1-.274.343.97.97 0 0 1-.266.037 1.118 1.118 0 0 1-1.099-1.24zm3.7.823a1.043 1.043 0 0 1-.584-.72c-.034-.172.343-.446.584-.617a2.351 2.351 0 0 1 .685-.24.586.586 0 0 0 .138.172c-.138.138-.309.274-.446.412 0 .069.034.1.034.172.822-.24 1.611-.515 2.435-.755a1.538 1.538 0 0 0-.035-.172l-1.749-.411a1.365 1.365 0 0 1-1.269-1.269 1.39 1.39 0 0 1 .823-1.372 3.36 3.36 0 0 1 3.019-.172.716.716 0 0 1 .548.995c-1.166-.515-2.058.034-3.155.651a4.009 4.009 0 0 0 .651.24c.583.137 1.132.239 1.715.377a1.166 1.166 0 0 1 .994 1.063 1.346 1.346 0 0 1-.789 1.577 3.626 3.626 0 0 1-1.652.37 7.913 7.913 0 0 1-1.945-.298zm-15.392-2.055a3.064 3.064 0 0 1 3.327-3.326c-.515.342-.926.616-1.338.926a2.337 2.337 0 0 0-.206 3.018.881.881 0 0 0 1.337-.069 6.252 6.252 0 0 0 .892-1.715c.138-.377-.171-.583-.548-.514a8.944 8.944 0 0 0-.891.308c-.446.138-.686-.069-.583-.515a1.756 1.756 0 0 1 1.509-1.131c.857-.1 1.406.1 1.646.72.926 2.3-.138 4.218-2.64 4.561a1.863 1.863 0 0 1-.211.012 2.478 2.478 0 0 1-2.294-2.275zm-64.169.895a7.689 7.689 0 0 1-.926-1.166.876.876 0 0 1-.138-.583 22.125 22.125 0 0 1 2.607-5.624 4.682 4.682 0 0 1 .651-.754c.72-.686 1.2-.652 1.852.137a4.148 4.148 0 0 0 .823.72.959.959 0 0 1 .481 1.166 3.644 3.644 0 0 0 .034.617 1.338 1.338 0 0 1 .377 0 18.4 18.4 0 0 1 .892-1.613 4.311 4.311 0 0 1 1.235-1.132.808.808 0 0 1 1.234.309 3.206 3.206 0 0 0 .687.651c.411 1.886.892 3.909 1.338 5.933a1.14 1.14 0 0 1 0 .755 2.684 2.684 0 0 1-.549.685c-.24-.205-.583-.343-.651-.583-.412-1.235-.755-2.5-1.1-3.773a1.8 1.8 0 0 1-.1-.343c0-.651-.308-.995-1.028-1.028-.549 1.509-1.51 2.915-1.27 4.835a77.04 77.04 0 0 1-1.92-1.131 13.378 13.378 0 0 1-.138-1.749c.035-.617-.172-.961-.721-1.1a1.814 1.814 0 0 1-.446-.206c-.651 1.955-1.234 3.909-1.92 6.1-.514-.441-.927-.749-1.304-1.123zm62.861 1.06a1.024 1.024 0 0 1-.481-.686c-.171-1.44-.274-2.881-.411-4.287a20.358 20.358 0 0 0-.24-1.235c-1 .138-1.989.274-3.052.412.274-.892-.48-1.1-.892-1.474a.974.974 0 0 1-.343-.995c.034-.412.377-.343.687-.377.891-.1 1.783-.24 2.674-.378a.9.9 0 0 0 .48-.308 1.1 1.1 0 0 1 1.371-.343 3.079 3.079 0 0 0 1.235.274c1.372-.034 2.777-.1 4.15-.172.171.823-.207 1.2-1.235 1.475-.72.205-1.405.48-2.092.616a.729.729 0 0 0-.652.823c0 .652.1 1.269.1 1.921a11.938 11.938 0 0 1-.24 1.474c-.1.857-.206 1.715-.274 2.572-.027.446-.214.734-.541.734a.74.74 0 0 1-.244-.046zm-41.942-.1c-1.508-.377-3.018-.96-3.6-2.572a7.684 7.684 0 0 1-.275-2.812 6.557 6.557 0 0 1 .891-3.052 6 6 0 0 1 2.434-2.197c.652-.343 1.3.068 1.921.342a3.34 3.34 0 0 0 2.057.412 2.266 2.266 0 0 1 2.022.789 1.917 1.917 0 0 1 .446 2.16c-.24.651-.48 1.338-.754 2.092 1.063-.549 2.023-1.543 2.984-.172.343-1.337.685-2.572 1.028-3.841.171.069.24.069.31.1.994.481 1.1.755.685 1.784a4.159 4.159 0 0 1-.926 1.646 2.46 2.46 0 0 0-.343 1.543 7.449 7.449 0 0 0 .343 1.509c.137.651.308 1.269.446 1.92a.931.931 0 0 1-1.474-.617 10.845 10.845 0 0 1-.171-1.955c-.24.24-.446.481-.686.686a12.27 12.27 0 0 1-1.578 1.406c-.686.446-1.612-.171-1.68-1.131a4.608 4.608 0 0 1 .446-2.3c-.446.549-.926 1.1-1.338 1.68-.377.515-.616 1.1-.994 1.578a2.447 2.447 0 0 1-1.773 1.049 1.676 1.676 0 0 1-.421-.05zm2.264-7.269a3.149 3.149 0 0 1-.583.583 4.7 4.7 0 0 0-2.091 2.877 11.178 11.178 0 0 1-.858 1.885 2.156 2.156 0 0 0 3.5-.514c.377-.584.754-1.166 1.131-1.715a9.338 9.338 0 0 0 .651-.961 17.7 17.7 0 0 0 .618-1.92 1.292 1.292 0 0 0-1.234-1.818c.206.205.445.446.651.686-.035.068-.068.1-.1.172a1.6 1.6 0 0 0-.355-.042 1.761 1.761 0 0 0-1.33.763zm3.327 4.9c.822-.685 2.023-.651 2.571-1.714a.614.614 0 0 0-.323-.08 2.973 2.973 0 0 0-2.248 1.793zm-7.751-6.1c-.617.617-.651 1.166-.17 2.195.754-.96 1.439-1.818 2.16-2.708a1.924 1.924 0 0 0-.737-.172 1.734 1.734 0 0 0-1.253.68zm-26.508.72a1.082 1.082 0 0 1 .687-.651c.411-.1.582.24.582.549q0 .72-.617.72c-.378-.005-.721-.245-.653-.622z"/>
</symbol><symbol id="icon-number-1" viewBox="-7456.792 1707.895 15.061 32.922">
    
    <path class="a" d="M-7447.462 1714.295l-6.13 5.729-3.2-3.865 10-8.264h5.065v32.922h-5.6v-26.522z"/>
</symbol><symbol id="icon-number-2" viewBox="-7101.192 1708.028 21.592 32.922">
    
    <path class="a" d="M-7101.192 1734.952l12.529-12.129 1.2-1.2a5.218 5.218 0 0 0 1.066-1.333c.267-.533.533-.933.8-1.466a3.381 3.381 0 0 0 .267-1.6 3.69 3.69 0 0 0-.4-1.733 5.22 5.22 0 0 0-1.066-1.333 3.177 3.177 0 0 0-1.466-.8 7.866 7.866 0 0 0-1.866-.267 4.788 4.788 0 0 0-4.932 4.4l-5.731-.4a12.619 12.619 0 0 1 1.066-4 6.8 6.8 0 0 1 2.266-2.8 8.81 8.81 0 0 1 3.332-1.733 13.178 13.178 0 0 1 4-.533 14.062 14.062 0 0 1 4.132.533 9.93 9.93 0 0 1 3.332 1.733 9.123 9.123 0 0 1 2.266 2.8 9.306 9.306 0 0 1 .8 4 10.229 10.229 0 0 1-1.333 5.331 21.108 21.108 0 0 1-3.6 4.265l-10 9.33h14.928v4.932h-21.59z"/>
</symbol><symbol id="icon-number-3" viewBox="-6755.927 1708 21.726 32.788">
    
    <path class="a" d="M-6748.062 1721.329h1.336a12.2 12.2 0 0 0 2.266-.133 11.1 11.1 0 0 0 2-.533 3.453 3.453 0 0 0 1.466-1.333 3.814 3.814 0 0 0 .533-2.266 4.222 4.222 0 0 0-1.2-3.066 4.435 4.435 0 0 0-3.332-1.2 4.8 4.8 0 0 0-2.932.933 6 6 0 0 0-1.866 2.532l-5.735-1.463a16.378 16.378 0 0 1 1.466-3.066 7.3 7.3 0 0 1 2.4-2.133 11.313 11.313 0 0 1 2.934-1.201 14.234 14.234 0 0 1 3.332-.4 12.324 12.324 0 0 1 3.865.533 11.98 11.98 0 0 1 3.2 1.6 7.343 7.343 0 0 1 2.263 2.667 5.732 5.732 0 0 1 1.066 3.6 7.669 7.669 0 0 1-1.466 4.532 6.536 6.536 0 0 1-4 2.666v.133a6.673 6.673 0 0 1 4.665 2.666 8.482 8.482 0 0 1 1.6 5.065 7.721 7.721 0 0 1-.933 4 7.311 7.311 0 0 1-2.4 2.932 9.417 9.417 0 0 1-3.465 1.733 13.96 13.96 0 0 1-4 .666 16.861 16.861 0 0 1-3.732-.4 8.573 8.573 0 0 1-3.2-1.333 7.748 7.748 0 0 1-2.4-2.266 12.861 12.861 0 0 1-1.6-3.332l5.731-1.466a5.345 5.345 0 0 0 1.733 3.066 5.785 5.785 0 0 0 5.465.666 4.7 4.7 0 0 0 1.733-1.066 4.6 4.6 0 0 0 1.2-1.6 5.349 5.349 0 0 0 .4-2 4.741 4.741 0 0 0-.666-2.532 3.392 3.392 0 0 0-1.6-1.466 6.392 6.392 0 0 0-2.266-.666 15.306 15.306 0 0 0-2.532-.133h-1.333v-4.936z"/>
</symbol><symbol id="icon-number-4" viewBox="-6414.915 1708 23.991 32.522">
    
    <path class="a" d="M-6401.187 1733.857h-13.728v-5.465l13.062-20.392h6.264v20.926h4.665v4.932h-4.665v6.664h-5.465v-6.664zm0-18.127l-8.264 13.062h8.264z"/>
</symbol><symbol id="icon-number-5" viewBox="-6074.833 1708 22.392 33.188">
    
    <path class="a" d="M-6053.507 1712.932h-13.2l-.133 6.531a14.528 14.528 0 0 1 3.465-.4c6.4 0 10.929 4.265 10.929 10.8 0 7.064-5.065 11.329-11.862 11.329-5.2 0-9.063-2.4-10.53-7.464l5.865-1.6a5.117 5.117 0 0 0 5.34 3.729 5.5 5.5 0 0 0 5.731-5.6c0-4.532-3.6-6.264-7.6-6.264a14.218 14.218 0 0 0-6.8 1.6l.269-17.593h18.527z"/>
</symbol><symbol id="icon-person" viewBox="-6383.929 -3135 22.621 33.235">
    
    <g transform="translate(-7577.659 -5921.473)">
        <ellipse class="a" cx="6.218" cy="7.076" rx="6.218" ry="7.076" transform="translate(1198.769 2786.795)"/>
        <path class="a" d="M1213.135 2792.477h-16.082a.692.692 0 0 1-.643-.643v-.107a.692.692 0 0 1 .643-.643h16.081a.692.692 0 0 1 .643.643v.107a.692.692 0 0 1-.642.643z"/>
        <path class="a" d="M1209.704 2786.473h-9.435a1.466 1.466 0 0 0-1.5 1.5v3a1.466 1.466 0 0 0 1.5 1.5h9.434a1.466 1.466 0 0 0 1.5-1.5v-3a1.466 1.466 0 0 0-1.499-1.5z"/>
        <path class="a" d="M1201.234 2814.99v4.717h7.612v-4.717zm3.752 3.967a1.608 1.608 0 1 1 1.608-1.608 1.467 1.467 0 0 1-1.608 1.608z"/>
        <path class="a" d="M1208.203 2814.025h8.148a11.288 11.288 0 0 0-8.148-10.828z"/>
        <path class="a" d="M1202.628 2814.025h4.717v-11.043a8.8 8.8 0 0 0-2.359-.214 17.533 17.533 0 0 0-2.359.214v11.042z"/>
        <path class="a" d="M1201.878 2803.197a11.288 11.288 0 0 0-8.148 10.828h8.148z"/>
    </g>
</symbol><symbol id="icon-phone" viewBox="-677 -5406 33.778 45.569">
    
    <path class="a" d="M-652.793-5360.431h-2.563a10.535 10.535 0 0 1-1.425-.285 11.055 11.055 0 0 1-3.019-1.309 20.474 20.474 0 0 1-3.189-2.279 31.277 31.277 0 0 1-3.361-3.361c-1.139-1.253-2.165-2.621-3.19-3.987-.854-1.2-1.709-2.393-2.506-3.646-.284-.456-.569-.912-.854-1.424a30.275 30.275 0 0 1-1.595-3.7 41.587 41.587 0 0 1-1.367-5.24l-.342-1.88c-.058-.513-.171-.969-.229-1.48-.057-.456-.114-.969-.171-1.424a11.212 11.212 0 0 1-.114-1.311c-.057-.512-.057-.968-.113-1.48-.058-.626-.058-1.311-.114-1.937a7.7 7.7 0 0 0-.057-1.139v-1.025a.344.344 0 0 1 .057-.228 6.928 6.928 0 0 1 .114-1.139 7.482 7.482 0 0 1 2.278-4.329 10.138 10.138 0 0 1 2.05-1.424 12.6 12.6 0 0 1 2.906-1.026 11.213 11.213 0 0 1 1.994-.341h.512c.114 4.386.285 8.771.4 13.158a.2.2 0 0 0-.114.057 4.917 4.917 0 0 0-1.31.912 3.682 3.682 0 0 0-.969 1.937 4.739 4.739 0 0 0 .114 1.993 3.652 3.652 0 0 0 .341 1.026c1.482 2.962 3.02 5.866 4.558 8.772a80.878 80.878 0 0 0 2.107 3.816 19.769 19.769 0 0 0 1.139 1.823 3.968 3.968 0 0 0 1.14 1.026 4.147 4.147 0 0 0 1.367.4 4.923 4.923 0 0 0 1.822-.341c.228-.114.456-.228.741-.342l10.424 8.2c-.057 0-.057.057-.114.057a17.712 17.712 0 0 1-2.734 1.424 26.656 26.656 0 0 1-4.558 1.481zm-2.107-12.361l.057-.057c.911-.456 1.823-.968 2.734-1.425.058 0 .114-.057.172-.057a3.331 3.331 0 0 1 1.082.228 3.718 3.718 0 0 1 .8.455c.854.626 1.709 1.311 2.563 1.937 1.2.912 2.335 1.823 3.532 2.791a2.053 2.053 0 0 1 .683 1.026c0 .057.058.171.058.228v.4c-.058.17-.058.285-.114.456-.285.854-.512 1.709-.8 2.506v.056zm-10.482-20.165c-.227-.057-.285-.114-.285-.284 0-.229-.057-.4-.057-.626-.057-1.083-.114-2.108-.114-3.19-.057-1.253-.057-2.45-.057-3.7-.058-1.651-.058-3.36-.058-5.012-.057-.114-.057-.114-.057-.171.114 0 .171 0 .229-.057a3.212 3.212 0 0 1 1.025.171 6.114 6.114 0 0 1 1.709.912 5.144 5.144 0 0 1 .512.568.613.613 0 0 1 .114.456c0 1.367.058 2.677.058 4.044 0 1.595.057 3.132.057 4.728 0 .114 0 .171-.057.228a9.935 9.935 0 0 1-.741.855 2.829 2.829 0 0 1-.8.626 4.908 4.908 0 0 1-.969.4.717.717 0 0 1-.342.057z"/>
</symbol><symbol id="icon-pinterest" viewBox="-6246.848 4112.74 12.799 16.446">
    
    <path class="a" d="M-6239.39 4124.646c-1.009-.126-1.387-.63-2.144-1.009-.378 2.27-1.009 4.413-2.522 5.548-.5-3.4.757-5.927 1.261-8.7-.883-1.639.126-4.792 2.144-4.035 2.4 1.009-2.144 5.927.883 6.557 3.152.63 4.54-5.548 2.522-7.566-2.9-2.9-8.323-.126-7.692 4.035.126 1.009 1.261 1.261.378 2.774-1.891-.378-2.4-1.891-2.27-3.783a6.2 6.2 0 0 1 5.548-5.674c3.4-.378 6.683 1.261 7.188 4.54.378 3.656-1.64 7.692-5.296 7.313z"/>
</symbol><symbol id="icon-place" viewBox="-6237.611 -3133 46.386 29.172">
    
    <g transform="translate(-7625.467 -5924.325)">
        <ellipse class="a" cx="1.446" cy=".482" rx="1.446" ry=".482" transform="translate(1404.082 2814.593)"/>
        <ellipse class="a" cx="1.446" cy=".482" rx="1.446" ry=".482" transform="translate(1400.466 2815.677)"/>
        <ellipse class="a" cx="1.446" cy=".482" rx="1.446" ry=".482" transform="translate(1407.456 2813.387)"/>
        <ellipse class="a" cx="1.205" cy=".362" rx="1.205" ry=".362" transform="translate(1409.385 2811.821)"/>
        <ellipse class="a" cx="1.326" cy=".482" rx="1.326" ry=".482" transform="translate(1409.023 2809.892)"/>
        <ellipse class="a" cx="1.205" cy=".362" rx="1.205" ry=".362" transform="translate(1410.71 2808.446)"/>
        <ellipse class="a" cx="1.205" cy=".362" rx="1.205" ry=".362" transform="translate(1412.398 2807)"/>
        <ellipse class="a" cx="1.205" cy=".362" rx="1.205" ry=".362" transform="translate(1415.411 2806.277)"/>
        <ellipse class="a" cx="1.326" cy=".482" rx="1.326" ry=".482" transform="translate(1418.665 2805.795)"/>
        <path class="a" d="M1434.211 2819.413l-11.092-16.992a.663.663 0 0 0-.6-.362h-16.148a7.466 7.466 0 0 1-1.687 1.687h17.355l9.882 15.065h-41.702l9.641-14.7a4.976 4.976 0 0 1-1.326-.844l-10.606 16.27a.659.659 0 0 0 .6.964h45.073a.916.916 0 0 0 .61-1.088z"/>
        <path class="a" d="M1409.385 2797.117a7.711 7.711 0 0 0-8.918-5.664 7.812 7.812 0 0 0-5.664 11.088c1.808 3.616 3.616 7.111 5.423 10.726l1.446 2.892a.118.118 0 0 1 .121-.121c2.29-4.459 4.58-9.039 6.869-13.5a6.593 6.593 0 0 0 .723-5.421zm-7.593 7.352a5.3 5.3 0 1 1 5.3-5.3 5.2 5.2 0 0 1-5.3 5.3z"/>
        <path class="a" d="M1405.407 2797.479l-4.218 4.218a.626.626 0 0 1-.482.241.914.914 0 0 1-.482-.241l-1.928-1.928a.682.682 0 0 1 .964-.964l1.446 1.446 3.736-3.736a.682.682 0 1 1 .964.964z"/>
        <path class="a" d="M1424.329 2795.31a4.43 4.43 0 0 0-5.062-3.254 4.5 4.5 0 0 0-3.254 6.387c1.085 2.049 2.049 4.1 3.133 6.146.241.6.6 1.085.844 1.687v-.121c1.326-2.531 2.651-5.182 3.977-7.713a4.667 4.667 0 0 0 .362-3.132zm-4.339 4.218a3.013 3.013 0 1 1 3.013-3.013 2.984 2.984 0 0 1-3.013 3.013z"/>
        <path class="a" d="M1422.038 2795.553l-2.41 2.41c-.121.121-.121.121-.241.121s-.241 0-.241-.121l-1.085-1.085a.341.341 0 1 1 .482-.482l.844.844 2.169-2.169a.367.367 0 0 1 .482 0c.121-.003.121.238 0 .482z"/>
    </g>
</symbol><symbol id="icon-plus" viewBox="-6460.767 -3127.75 18 18">
    
    <path class="a" d="M-6442.767-3117.723a.571.571 0 0 1-.6.6h-6.165a.571.571 0 0 0-.6.6v6.173a.571.571 0 0 1-.6.6h-2.062a.571.571 0 0 1-.6-.6v-6.161a.571.571 0 0 0-.6-.6h-6.173a.571.571 0 0 1-.6-.6v-2.054a.571.571 0 0 1 .6-.6h6.161a.571.571 0 0 0 .6-.6v-6.185a.571.571 0 0 1 .6-.6h2.054a.571.571 0 0 1 .6.6v6.161a.571.571 0 0 0 .6.6h6.185a.571.571 0 0 1 .6.6v2.054z"/>
</symbol><symbol id="icon-progress-part" viewBox="-7528.863 -2875.36 48.098 38.019">
    
    <path class="a" d="M-7499.5-2837.342l18.737-14.133a60.5 60.5 0 0 0-48.1-23.885v23.447a37.214 37.214 0 0 1 29.363 14.571z"/>
</symbol><symbol id="icon-progress" viewBox="-7589.123 -2875.36 120.52 120.52">
    <path class="a" d="M-7480.874-2851.475l-18.626 14.133a36.832 36.832 0 1 1-29.363-14.571v-23.447a60.367 60.367 0 1 0 47.989 23.885z"/>
    <path class="b" d="M-7499.5-2837.342l18.737-14.133a60.5 60.5 0 0 0-48.1-23.885v23.447a37.214 37.214 0 0 1 29.363 14.571z"/>
</symbol><symbol id="icon-question" viewBox="-6010.632 -5415.781 38.036 58.936">
    
    <path class="a" d="M-5997.532-5379.695a11.074 11.074 0 0 1 .7-4.041 6.712 6.712 0 0 1 2.229-3.065q2.3-2.09 4.18-3.762a34.7 34.7 0 0 0 3.2-3.065 10.756 10.756 0 0 0 2.09-2.647 4.456 4.456 0 0 0 .7-2.647 5.257 5.257 0 0 0-1.672-4.18 6.167 6.167 0 0 0-4.18-1.533c-2.508 0-4.458.7-5.712 2.09a8.3 8.3 0 0 0-2.229 5.016l-12.4-.836q.836-8.569 6.27-12.957a21.286 21.286 0 0 1 13.787-4.459 22.768 22.768 0 0 1 6.966.975 16.126 16.126 0 0 1 5.712 3.065 13.947 13.947 0 0 1 3.9 5.016 14.947 14.947 0 0 1 1.393 6.827 19.3 19.3 0 0 1-.418 4.18 11.169 11.169 0 0 1-1.672 3.762 24.244 24.244 0 0 1-3.065 3.762 52.474 52.474 0 0 1-4.737 4.18 8.817 8.817 0 0 0-2.508 2.787 6.853 6.853 0 0 0-.7 2.787v2.369h-11.976v-3.624zm-1.254 15.465a7.276 7.276 0 0 1 .557-2.926 6.954 6.954 0 0 1 1.533-2.369 5.376 5.376 0 0 1 2.364-1.532 6.852 6.852 0 0 1 2.926-.557 7.276 7.276 0 0 1 2.926.557 6.954 6.954 0 0 1 2.369 1.533 5.376 5.376 0 0 1 1.533 2.369 6.852 6.852 0 0 1 .557 2.926 7.276 7.276 0 0 1-.557 2.926 6.954 6.954 0 0 1-1.533 2.369 5.376 5.376 0 0 1-2.369 1.533 6.852 6.852 0 0 1-2.926.557 7.276 7.276 0 0 1-2.926-.559 6.954 6.954 0 0 1-2.369-1.533 5.376 5.376 0 0 1-1.533-2.369 7.276 7.276 0 0 1-.555-2.925z"/>
</symbol><symbol id="icon-quote" viewBox="-6542.931 -3134 33.224 30.64">
    
    <path class="a" d="M-6526.319-3134c-9.106 0-16.612 6.153-16.612 13.782a11.693 11.693 0 0 0 2.707 7.506s0 5.537-2.707 9.352a29.872 29.872 0 0 0 11.321-3.692 18.331 18.331 0 0 0 5.291.738c9.106 0 16.612-6.153 16.612-13.782s-7.383-13.904-16.612-13.904zm0 26.456a21.564 21.564 0 0 1-4.922-.615l-.615-.123-.492.246a25.78 25.78 0 0 1-8.121 3.076 19.116 19.116 0 0 0 1.477-7.629v-.492l-.246-.369a10.655 10.655 0 0 1-2.461-6.768c0-6.891 6.891-12.551 15.259-12.551s15.259 5.66 15.259 12.551c.121 7.018-6.65 12.674-15.138 12.674z"/>
    <path class="a" d="M-6532.717-3123.663v4.676a.265.265 0 0 0 .246.246h1.6c.246 0 .369.123.246.369a3.471 3.471 0 0 1-1.969 2.584c-.123.123-.246.246-.123.369l.369.738a.236.236 0 0 0 .369.123 5.075 5.075 0 0 0 4.43-4.307v-4.922a.265.265 0 0 0-.246-.246h-4.676c0 .124-.246.247-.246.37z"/>
    <path class="a" d="M-6525.211-3123.663v4.676a.265.265 0 0 0 .246.246h1.6c.246 0 .369.123.246.369a3.471 3.471 0 0 1-1.969 2.584c-.123.123-.246.246-.123.369l.369.738a.236.236 0 0 0 .369.123 5.075 5.075 0 0 0 4.43-4.307v-4.922a.265.265 0 0 0-.246-.246h-4.676c-.123.124-.246.247-.246.37z"/>
</symbol><symbol id="icon-quote2" viewBox="-7153.302 -107 22.67 16.294">
    
    <path class="a" d="M-7147.635-107h4.533l-4.534 16.294h-5.666zm12.468 0h4.534l-4.534 16.294h-5.667z"/>
</symbol><symbol id="icon-reporting" viewBox="-4869.383 2833 54.253 29.592">
    
    <path class="a" d="M-4815.129 2837.932a4.947 4.947 0 0 1-4.932 4.932 4.191 4.191 0 0 1-1.258-.173l-8.779 8.754a4.356 4.356 0 0 1 .173 1.282 4.932 4.932 0 0 1-9.864 0 4.356 4.356 0 0 1 .173-1.282l-6.288-6.288a4.85 4.85 0 0 1-2.565 0l-11.222 11.243a4.191 4.191 0 0 1 .173 1.258 4.932 4.932 0 1 1-4.932-4.932 4.191 4.191 0 0 1 1.257.174l11.245-11.22a4.356 4.356 0 0 1-.173-1.282 4.932 4.932 0 0 1 9.864 0 4.356 4.356 0 0 1-.173 1.282l6.288 6.288a4.849 4.849 0 0 1 2.565 0l8.755-8.779a4.192 4.192 0 0 1-.173-1.258 4.932 4.932 0 0 1 9.864 0z"/>
</symbol><symbol id="icon-sign-in" viewBox="-5978 -5628.667 18.667 15.821">
    
    <path class="a" d="M-5978-5612.846v-6.921h2.553v-1.415h-1.419v-4.859h4.859v1.894h1.474v-4.52h7.018v3.093h4.182v6.048h-4.594v1.812h1.876v3.441h-3.44v-1.977h-1.135v.924h-4.447v2.48zm.613-.6h5.7v-5.7h-5.7zm12.508-1.441h2.215v-2.214h-1.263v.851h-.952zm-2.361-1.052v-.311h-1.6v-4.923h1.6v-.476h-3.293v-1.885h-1.474v2.352h-2.827v1.415h3.761v3.825zm-.988-.928h3.688v-2.659h-.842v-1.034h-2.846zm3.45-3.276h4.822v-4.818h-4.822zm-.6-1.034v-.472h-1.248v.476zm-10.874-.618h3.633v-3.633h-3.633zm6.332-.467h4.539v-3.312h1.254v-2.48h-5.794z"/>
</symbol><symbol id="icon-sindication" viewBox="-5177.174 2810 59.949 66.236">
    
    <path class="a" d="M-5119.12 2831.361h-9.561l-.086.086-4.824 4.824a.521.521 0 0 0-.258.517v14.04a1.766 1.766 0 0 0 1.809 1.809h13.006a1.766 1.766 0 0 0 1.809-1.809v-17.658a1.955 1.955 0 0 0-1.895-1.809zm-8.958 1.55v3.962a.275.275 0 0 1-.258.258h-3.963zm7.58 15.25h-10.336v-1.468h10.25v1.468zm0-3.1h-10.336v-1.469h10.25v1.469zm0-3.015h-10.336v-1.469h10.25v1.464z"/>
    <path class="a" d="M-5140.74 2810h-9.561l-.086.086-4.824 4.824a.521.521 0 0 0-.258.517v14.04a1.766 1.766 0 0 0 1.809 1.809h13.006a1.766 1.766 0 0 0 1.809-1.809v-17.658a1.955 1.955 0 0 0-1.895-1.809zm-9.044 1.55v3.962a.275.275 0 0 1-.258.258h-3.877zm7.666 15.25h-10.336v-1.468h10.25v1.468zm0-3.1h-10.336v-1.469h10.25v1.469zm0-3.015h-10.336v-1.469h10.25v1.464z"/>
    <path class="a" d="M-5140.74 2854.961h-9.561l-.086.086-4.824 4.824a.521.521 0 0 0-.258.517v14.04a1.766 1.766 0 0 0 1.809 1.809h13.006a1.766 1.766 0 0 0 1.809-1.809v-17.658a2.027 2.027 0 0 0-1.895-1.809zm-9.044 1.637v3.963a.275.275 0 0 1-.258.258h-3.877zm7.666 15.163h-10.336v-1.468h10.25v1.468zm0-3.015h-10.336v-1.468h10.25v1.464zm0-3.1h-10.336v-1.469h10.25v1.464z"/>
    <path class="a" d="M-5162.359 2831.361h-9.561a.267.267 0 0 0-.086.172l-4.823 4.828a.623.623 0 0 0-.345.512v14.04a1.766 1.766 0 0 0 1.809 1.809h13.006a1.766 1.766 0 0 0 1.809-1.809v-17.743a1.819 1.819 0 0 0-1.809-1.809zm-9.044 1.55v3.962a.275.275 0 0 1-.258.258h-3.876zm7.666 15.25h-10.337v-1.468h10.25v1.468zm0-3.1h-10.337v-1.469h10.25v1.469zm0-3.015h-10.337v-1.469h10.25v1.464z"/>
    <path class="a" d="M-5148.405 2833.773h2.239v2.239h-2.239z"/>
    <path class="a" d="M-5148.405 2837.907h2.239v2.239h-2.239z"/>
    <path class="a" d="M-5148.405 2842.042h2.239v2.239h-2.239z"/>
    <path class="a" d="M-5148.405 2846.176h2.239v2.239h-2.239z"/>
    <path class="a" d="M-5148.405 2850.31h2.239v2.239h-2.239z"/>
    <path class="a" d="M-5156.626 2844.273v-2.239h2.239v2.239z"/>
    <path class="a" d="M-5152.506 2844.345v-2.239h2.239v2.239z"/>
    <path class="a" d="M-5144.266 2844.317v-2.239h2.239v2.239z"/>
    <path class="a" d="M-5140.146 2844.302v-2.239h2.239v2.239z"/>
</symbol><symbol id="icon-storytelling" viewBox="-6328.64 -3289.097 68.562 58.967">
    
    <path class="a" d="M-6292.978-3289.097c-7.415 0-13.535 5.061-13.535 11.3a9.789 9.789 0 0 0 2.236 6.12 15.153 15.153 0 0 1-2.236 7.65 26.506 26.506 0 0 0 9.3-3.06 16.736 16.736 0 0 0 4.237.588c7.415 0 13.535-5.061 13.535-11.3s-6.004-11.298-13.537-11.298zm0 21.539a14.948 14.948 0 0 1-4-.588l-.471-.118-.353.235a22.974 22.974 0 0 1-6.711 2.589 16.807 16.807 0 0 0 1.295-6.238v-.353l-.235-.235a8.873 8.873 0 0 1-2-5.532c0-5.65 5.532-10.24 12.476-10.24 6.826 0 12.476 4.59 12.476 10.24s-5.533 10.24-12.477 10.24z"/>
    <path class="a" d="M-6298.156-3280.74v3.884a.253.253 0 0 0 .235.235h1.295a.253.253 0 0 1 .235.235 2.85 2.85 0 0 1-1.53 2.119.432.432 0 0 0-.118.353l.353.588c0 .118.118.118.235.118a4.151 4.151 0 0 0 3.649-3.531v-4.119a.253.253 0 0 0-.235-.235h-3.884c-.117.118-.235.235-.235.353z"/>
    <path class="a" d="M-6292.036-3280.74v3.884a.253.253 0 0 0 .235.235h1.295a.253.253 0 0 1 .235.235 2.85 2.85 0 0 1-1.53 2.119.432.432 0 0 0-.118.353l.353.588c0 .118.118.118.235.118a4.151 4.151 0 0 0 3.649-3.531v-4.119a.253.253 0 0 0-.235-.235h-3.884c-.117.118-.235.235-.235.353z"/>
    <path class="a" d="M-6320.401-3230.13h8.357v-5.179h-8.357zm4.119-4.473a1.765 1.765 0 1 1-1.765 1.765 1.81 1.81 0 0 1 1.765-1.765z"/>
    <path class="a" d="M-6312.868-3248.373v11.888h8.945a12.392 12.392 0 0 0-8.945-11.888z"/>
    <path class="a" d="M-6318.871-3248.491v12.123h5.179v-12.123a9.656 9.656 0 0 0-2.589-.235 6.473 6.473 0 0 0-2.59.235z"/>
    <path class="a" d="M-6319.695-3248.373a12.392 12.392 0 0 0-8.945 11.888h8.945z"/>
    <path class="a" d="M-6269.022-3248.373l-.824-.235a9.656 9.656 0 0 0-2.59-.236 17.629 17.629 0 0 0-2.589.235l-.824.235a12.393 12.393 0 0 0-8.945 11.888h24.717a12.393 12.393 0 0 0-8.945-11.887z"/>
    <path class="a" d="M-6263.491-3261.555h-2.236v-3.884a1.179 1.179 0 0 0-1.177-1.177h-11.064a1.179 1.179 0 0 0-1.177 1.177v3.884h-2a.556.556 0 0 0-.588.588v.235a.556.556 0 0 0 .588.588h2.236a6.217 6.217 0 0 0-.118 1.53c0 4.237 3.06 7.768 6.827 7.768s6.826-3.531 6.826-7.768a6.711 6.711 0 0 0-.118-1.53h2.358a.556.556 0 0 0 .588-.588v-.235a1.2 1.2 0 0 0-.945-.588zm-8.121 8.827h-.235c-.235 0-.471.118-.706.118a1.493 1.493 0 0 1-.706-.118h-.235a3.184 3.184 0 0 1-2.354-3.178h6.591a3.318 3.318 0 0 1-2.355 3.178z"/>
    <path class="a" d="M-6307.337-3261.555h-2.236v-3.884a1.179 1.179 0 0 0-1.177-1.177h-11.064a1.179 1.179 0 0 0-1.177 1.177v3.884h-2a.556.556 0 0 0-.588.588v.235a.556.556 0 0 0 .588.588h2.236a6.218 6.218 0 0 0-.118 1.53c0 4.237 3.06 7.768 6.826 7.768s6.827-3.531 6.827-7.768a6.711 6.711 0 0 0-.118-1.53h2.358a.556.556 0 0 0 .589-.588v-.235a1.2 1.2 0 0 0-.946-.588zm-8.121 8.827h-.235c-.235 0-.471.118-.706.118a1.493 1.493 0 0 1-.706-.118h-.235a3.184 3.184 0 0 1-2.354-3.178h6.591a3.183 3.183 0 0 1-2.355 3.178z"/>
</symbol><symbol id="icon-support" viewBox="1769.322 418.743 71.469 66.516">
    
    <path class="a" d="M1801.301 482.743a32.136 32.136 0 0 1-26.271-20.425c-2.45-.724-5.708-3.047-5.708-10.287 0-6.389 2.54-8.948 4.815-9.962a32.12 32.12 0 0 1 30.892-23.326 32.123 32.123 0 0 1 30.887 23.3c2.293.989 4.881 3.542 4.875 9.986 0 7.3-3.324 9.605-5.774 10.306a7.108 7.108 0 0 1-2.576.278s-.38-.109-.815-.241a28.936 28.936 0 0 0 2.377-11.513 29.137 29.137 0 0 0-.308-4.253 28.98 28.98 0 0 0-28.666-24.726 29 29 0 0 0-27.417 19.566 28.92 28.92 0 0 0-1.563 9.413 28.925 28.925 0 0 0 2.383 11.531 29 29 0 0 0 23.1 17.238 3.812 3.812 0 0 1 3.36-2 3.82 3.82 0 0 1 3.82 3.819 3.82 3.82 0 0 1-3.82 3.819 3.824 3.824 0 0 1-3.591-2.523zm3.729-7.192s-9.859.181-7.808-7.241c0 0 2.522 2.112 7.808 2.112s7.808-2.112 7.808-2.112c1.956 7.076-6.916 7.241-7.746 7.241zm4.755-20.394a5.37 5.37 0 0 1 5.37-5.37 5.37 5.37 0 0 1 5.37 5.37 5.37 5.37 0 0 1-5.37 5.37 5.37 5.37 0 0 1-5.371-5.37zm-20.708 0a5.37 5.37 0 0 1 5.37-5.37 5.37 5.37 0 0 1 5.37 5.37 5.37 5.37 0 0 1-5.37 5.37 5.37 5.37 0 0 1-5.371-5.37zm-10.957-4.3a26.912 26.912 0 0 1 26.911-26.91 26.9 26.9 0 0 1 26.8 24.5c-14.879-3.06-14.819-14.1-14.819-14.1-4.646 5.974-16.653 14.481-28.177 14.481-7.276 0-9.739 2.764-10.571 4.8a26.192 26.192 0 0 1-.142-2.774z"/>
</symbol><symbol id="icon-swisscontact" viewBox="-6920.819 4060.105 93.838 23.994">
    
    <path class="a" d="M-6839.054 4080.533c0-1.936 1.02-3.719 3.312-3.719a2.987 2.987 0 0 1 3.158 2.291l-1.273.1a1.793 1.793 0 0 0-1.834-1.579c-1.987 0-2.088 2.14-2.088 2.751a3.259 3.259 0 0 0 .458 1.834 1.916 1.916 0 0 0 1.681.917 1.844 1.844 0 0 0 1.936-1.885l1.273.153a3.161 3.161 0 0 1-.407 1.172 2.89 2.89 0 0 1-2.8 1.528 3.284 3.284 0 0 1-3.416-3.563zm-8.711 1.579a1.842 1.842 0 0 1 .306-1.019c.356-.611 1.121-1.07 3.158-1.223l1.07-.1v-.154c0-.713 0-1.885-1.527-1.885-1.478 0-1.478 1.07-1.478 1.426l-1.224-.052a2.277 2.277 0 0 1 .255-1.019 2.519 2.519 0 0 1 2.395-1.223 3.575 3.575 0 0 1 1.987.56 2.522 2.522 0 0 1 .764 2.292v2.244c.051.611.051.968.51.968.1 0 .254-.051.356-.051v1.019a2.113 2.113 0 0 1-.714.1 1.035 1.035 0 0 1-1.171-1.019 3.061 3.061 0 0 1-2.344 1.121 2.092 2.092 0 0 1-2.343-1.985zm2.751-1.274c-1.273.255-1.478.764-1.478 1.223 0 .56.408 1.019 1.274 1.019a1.891 1.891 0 0 0 1.833-1.019 3.431 3.431 0 0 0 .153-1.528c-.407.051-1.018.153-1.786.306zm-34.794-.306c0-1.936 1.019-3.719 3.312-3.719a2.988 2.988 0 0 1 3.157 2.292l-1.273.1a1.793 1.793 0 0 0-1.834-1.579c-1.987 0-2.089 2.14-2.089 2.751a3.259 3.259 0 0 0 .458 1.834 1.915 1.915 0 0 0 1.681.917 1.844 1.844 0 0 0 1.936-1.885l1.273.153a3.17 3.17 0 0 1-.407 1.172 2.89 2.89 0 0 1-2.8 1.528 3.284 3.284 0 0 1-3.415-3.563zm-39.991 3.006a2.737 2.737 0 0 1-1.019-1.884l1.325-.153a1.634 1.634 0 0 0 .509 1.325 1.993 1.993 0 0 0 1.375.407c1.019 0 1.631-.407 1.631-1.121 0-.764-.612-.917-1.427-1.07l-.662-.2c-1.12-.255-2.445-.56-2.445-1.987 0-1.274 1.07-2.038 2.648-2.038a2.722 2.722 0 0 1 2.956 2.242l-1.325.153a1.227 1.227 0 0 0-.509-1.121 2.1 2.1 0 0 0-1.325-.408c-.917 0-1.375.56-1.375 1.019 0 .662.764.866 1.63 1.07l.712.2c.816.2 2.293.56 2.293 1.987 0 1.121-.968 2.14-2.853 2.14a3.737 3.737 0 0 1-2.139-.56zm48.8-3.056c0-1.528.765-3.668 3.413-3.668 2.293 0 3.312 1.733 3.312 3.617-.051 2.038-1.273 3.617-3.362 3.617a3.28 3.28 0 0 1-3.36-3.566zm1.274 0c0 1.477.611 2.649 2.088 2.649 1.936 0 2.089-1.987 2.089-2.7a4.943 4.943 0 0 0-.051-.968 1.917 1.917 0 0 0-1.936-1.732c-1.576 0-2.183 1.174-2.183 2.751zm-17.525 3.006a2.743 2.743 0 0 1-1.019-1.885l1.324-.2a1.631 1.631 0 0 0 .51 1.324 1.989 1.989 0 0 0 1.375.408c1.02 0 1.631-.408 1.631-1.121 0-.764-.611-.917-1.427-1.07l-.662-.1c-1.121-.255-2.445-.56-2.445-1.987 0-1.274 1.07-2.038 2.649-2.038a2.721 2.721 0 0 1 2.955 2.242l-1.273.153a1.227 1.227 0 0 0-.509-1.121 2.094 2.094 0 0 0-1.325-.408c-.917 0-1.375.56-1.375 1.019 0 .662.764.866 1.63 1.07l.662.153c.815.2 2.292.56 2.292 1.987 0 1.121-.968 2.14-2.853 2.14a3.739 3.739 0 0 1-2.137-.566zm-8.558 0a2.737 2.737 0 0 1-1.02-1.885l1.324-.2a1.631 1.631 0 0 0 .51 1.324 1.989 1.989 0 0 0 1.375.408c1.02 0 1.631-.408 1.631-1.121 0-.764-.611-.917-1.426-1.07l-.663-.1c-1.12-.255-2.445-.56-2.445-1.987 0-1.274 1.07-2.038 2.649-2.038a2.72 2.72 0 0 1 2.954 2.242l-1.273.153a1.226 1.226 0 0 0-.51-1.121 2.093 2.093 0 0 0-1.324-.408c-.917 0-1.375.56-1.375 1.019 0 .662.764.866 1.63 1.07l.662.153c.815.2 2.292.56 2.292 1.987 0 1.121-.968 2.14-2.853 2.14a3.734 3.734 0 0 1-2.134-.566zm66.379-1.07v-4.432h-1.07v-.968h1.07v-2.14h1.172v2.14h1.273v.968h-1.273v3.919c0 .815 0 1.172.51 1.172a5.071 5.071 0 0 0 .764-.153v.971a5.575 5.575 0 0 1-1.121.1c-1.321.002-1.321-.66-1.321-1.577zm-22.976 0v-4.432h-1.069v-.968h1.069v-2.14h1.172v2.14h1.273v.968h-1.273v3.919c0 .815 0 1.172.509 1.172a5.064 5.064 0 0 0 .764-.153v.971a5.575 5.575 0 0 1-1.121.1c-1.32.002-1.32-.66-1.32-1.577zm-4.636 1.477v-3.922a5 5 0 0 0-.051-1.121 1.483 1.483 0 0 0-1.477-.968 1.8 1.8 0 0 0-1.324.509 1.871 1.871 0 0 0-.51 1.528v3.923h-1.172v-6.826h1.223v1.019a2.434 2.434 0 0 1 2.14-1.223 2.249 2.249 0 0 1 2.241 1.58 5.793 5.793 0 0 1 .1 1.426v4.075zm-49.416 0l-1.63-5.145-1.681 5.145h-1.07l-2.394-6.877h1.273l1.731 5.094 1.682-5.094h.968l1.63 5.094 1.834-5.094h1.172l-2.5 6.877zm5.808-.051v-6.826h1.121v6.826zm0-8.915v-1.324h1.121v1.324zm22.466-4.534v-.56c2.292.153 3.719.2 5.858.2 5.706 0 11.615-1.223 11.615-3.158s-5.808-2.751-11.921-2.751c-1.63 0-4.024.051-5.553.153v-1.172c4.483-.357 6.266-.357 8.1-.357 7.387 0 11.615 1.579 11.615 3.973 0 2.547-4.839 4.075-12.99 4.075-1.829.007-3.459-.093-6.719-.403zm-10.035-6.215c0-2.547 4.84-4.076 12.991-4.076 1.834 0 3.464.1 6.725.408v.561a77.58 77.58 0 0 0-5.859-.2c-5.706 0-11.615 1.223-11.615 3.159s5.807 2.751 11.921 2.751c1.63 0 4.024-.051 5.553-.153v1.121c-4.531.354-6.316.354-8.148.354-7.387 0-11.568-1.581-11.568-3.925z"/>
</symbol><symbol id="icon-t" viewBox="-6195.911 4113.468 9.817 15.923">
    
    <path class="a" d="M-6186.094 4128.433a7.654 7.654 0 0 1-1.916.718 9.244 9.244 0 0 1-1.8.239 9.307 9.307 0 0 1-1.916-.239 4.139 4.139 0 0 1-1.437-.838 3.3 3.3 0 0 1-.838-1.077 5.55 5.55 0 0 1-.239-1.676v-5.627h-1.671v-2.275a4.778 4.778 0 0 0 1.556-.838 3.742 3.742 0 0 0 1.077-1.317 6.9 6.9 0 0 0 .6-2.035h2.275v4.07h3.831v2.514h-3.832v4.071a5.93 5.93 0 0 0 .12 1.8.984.984 0 0 0 .6.6 2.023 2.023 0 0 0 1.2.359 3.89 3.89 0 0 0 2.394-.838z"/>
</symbol><symbol id="icon-twitter" viewBox="-6106.942 -4429.834 28.239 23.159">
    
    <path class="a" d="M-6078.703-4426.951a3.282 3.282 0 0 0-.628.941 7.68 7.68 0 0 1-2.039 1.883c-.157.157-.157.157-.157.471a16.333 16.333 0 0 1-3.294 10.354 15.552 15.552 0 0 1-13.806 6.589 17.4 17.4 0 0 1-6.275-1.412 12.968 12.968 0 0 1-2.039-1.1 11.145 11.145 0 0 0 8.472-2.51 6.05 6.05 0 0 1-5.491-4.079 5.152 5.152 0 0 0 2.667-.157 5.2 5.2 0 0 1-3.294-2.039 6.383 6.383 0 0 1-1.255-3.765 4.6 4.6 0 0 0 2.51.628 6.284 6.284 0 0 1-2.51-4.079 5.831 5.831 0 0 1 .784-3.608 16.238 16.238 0 0 0 11.923 6.118 1.991 1.991 0 0 0-.157-.941 5.054 5.054 0 0 1 .941-3.608 5.662 5.662 0 0 1 5.491-2.51 5.422 5.422 0 0 1 3.294 1.569.576.576 0 0 0 .471.157 10.953 10.953 0 0 0 3.138-1.255.486.486 0 0 0 .314-.157 3.739 3.739 0 0 1-.941 1.726 10.146 10.146 0 0 1-1.412 1.255c.471-.157 1.1-.157 1.569-.314a1.718 1.718 0 0 0 1.724-.157z"/>
</symbol><symbol id="icon-twodots" viewBox="-6248.997 4165.577 17.6 7.662">
    
    <path class="a" d="M-6239.06 4169.408a3.831 3.831 0 1 1 3.831 3.831 3.832 3.832 0 0 1-3.831-3.831zm-9.937 0a3.858 3.858 0 0 1 3.831-3.831 3.78 3.78 0 0 1 3.831 3.831 3.857 3.857 0 0 1-3.831 3.831 3.858 3.858 0 0 1-3.831-3.831zm1.2 0a2.657 2.657 0 0 0 2.631 2.634 2.658 2.658 0 0 0 2.635-2.634 2.657 2.657 0 0 0-2.635-2.631 2.656 2.656 0 0 0-2.631 2.631z"/>
</symbol><symbol id="icon-user" viewBox="-6016.465 -5633 19.369 25">
    
    <path class="a" d="M-5999.294-5608v-5.357a3.637 3.637 0 0 0-3.571-3.572h-7.831a3.637 3.637 0 0 0-3.569 3.572v5.357h-2.2v-5.357a5.8 5.8 0 0 1 5.769-5.769h7.831a5.8 5.8 0 0 1 5.77 5.769v5.357zm-13.6-18.956a6.1 6.1 0 0 1 6.045-6.044 6.1 6.1 0 0 1 6.044 6.044 6.009 6.009 0 0 1-6.043 6.043 6.1 6.1 0 0 1-6.046-6.043zm2.2 0a3.846 3.846 0 0 0 7.692 0 3.756 3.756 0 0 0-3.847-3.844 3.84 3.84 0 0 0-3.847 3.844z"/>
</symbol><symbol id="icon-users" viewBox="-4570.158 2621.217 68.333 48.397">
    
    <path class="a" d="M-4549.931 2645.199h-8.283v-8.343h-3.6v8.343h-8.344v3.6h8.343v8.283h3.6v-8.282h8.283z"/>
    <path class="a" d="M-4527.151 2669.613v-7.034a4.775 4.775 0 0 0-4.689-4.692h-10.282a4.775 4.775 0 0 0-4.689 4.689v7.034h-2.886v-7.031a7.621 7.621 0 0 1 7.575-7.575h10.282a7.621 7.621 0 0 1 7.575 7.575v7.034zm-17.857-24.889a8.007 8.007 0 0 1 7.937-7.937 8.006 8.006 0 0 1 7.935 7.937 7.889 7.889 0 0 1-7.935 7.935 8.006 8.006 0 0 1-7.937-7.935zm2.886 0a5.05 5.05 0 0 0 10.1 0 4.932 4.932 0 0 0-5.049-5.051 5.042 5.042 0 0 0-5.051 5.051z"/>
    <path class="a" d="M-4504.71 2654.042v-7.034a4.775 4.775 0 0 0-4.689-4.692h-10.282a4.775 4.775 0 0 0-4.689 4.689v7.034h-2.886v-7.031a7.621 7.621 0 0 1 7.575-7.575h10.282a7.621 7.621 0 0 1 7.575 7.575v7.034zm-17.857-24.889a8.007 8.007 0 0 1 7.937-7.937 8.006 8.006 0 0 1 7.935 7.937 7.889 7.889 0 0 1-7.935 7.935 8.006 8.006 0 0 1-7.937-7.935zm2.886 0a5.05 5.05 0 0 0 10.1 0 4.932 4.932 0 0 0-5.049-5.051 5.042 5.042 0 0 0-5.051 5.051z"/>
</symbol><symbol id="icon-vimeo" viewBox="-6150.293 4112.734 18.096 15.922">
    
    <path class="a" d="M-6135.945 4123.834c-2.411 3.256-4.582 4.823-6.27 4.823-1.085 0-1.929-.965-2.653-2.894l-1.446-5.423c-.6-1.929-1.085-2.894-1.688-2.894a4.994 4.994 0 0 0-1.447.844l-.844-1.088c.844-.844 1.809-1.568 2.653-2.412a6.425 6.425 0 0 1 2.653-1.688c1.447-.121 2.291.844 2.653 2.894.362 2.17.6 3.617.723 4.1.362 1.809.844 2.773 1.326 2.773.362 0 .965-.6 1.688-1.809a6.978 6.978 0 0 0 1.206-2.773c.121-1.085-.241-1.567-1.206-1.567a5.13 5.13 0 0 0-1.326.241c.844-2.894 2.653-4.341 5.064-4.22 1.809 0 2.773 1.206 2.653 3.617-.121 2.05-1.327 4.462-3.739 7.476z"/>
</symbol><symbol id="icon-visual" viewBox="-6074.034 -3132 26.769 26.769">
    
    <path class="a" d="M-6052.545-3109.406a4.809 4.809 0 0 1-3.189 1.106 5.4 5.4 0 1 1 5.4-5.4 4.809 4.809 0 0 1-1.105 3.193l4.175 4.175-1.1 1.1zm-7-4.3a3.879 3.879 0 0 0 3.929 3.929 4.04 4.04 0 0 0 3.93-3.923 3.93 3.93 0 1 0-7.859 0zm-14.489 7.984v-13.139h10.069v13.139zm16.946-15.35V-3132h9.454v10.928zm-16.946 0V-3132h14.613v10.928z"/>
</symbol><symbol id="icon-vk" viewBox="-6301.647 4164.408 21.83 12.494">
    
    <path class="a" d="M-6282.145 4173.161a8.393 8.393 0 0 1 2.149 2.488c.679 1.244-.792 1.244-.792 1.244h-2.94a2.131 2.131 0 0 1-1.47-.452c-1.131-.792-2.149-2.714-2.94-2.488s-.792 2.036-.792 2.036a.773.773 0 0 1-.792.792h-1.244a7.313 7.313 0 0 1-5.429-2.488c-2.714-2.827-5.2-8.6-5.2-8.6a.883.883 0 0 1 0-.565 1.117 1.117 0 0 1 .679-.226h3.164s.339 0 .452.226a.4.4 0 0 1 .226.339 15.719 15.719 0 0 0 1.132 2.381c1.357 2.262 1.923 2.714 2.375 2.488.679-.339.452-3.167.452-3.167a3.146 3.146 0 0 0-.339-1.47 1.381 1.381 0 0 0-1.018-.452c-.226 0 .113-.452.452-.565a6.358 6.358 0 0 1 2.714-.226c.9 0 1.131.113 1.583.113 1.018.226.679 1.244.679 3.619 0 .792-.113 1.81.452 2.262.226.113.792 0 2.262-2.488a19.736 19.736 0 0 0 1.244-2.6.845.845 0 0 1 .339-.339 1.127 1.127 0 0 1 .452-.113h3.28s1.018-.113 1.131.339-.339 1.583-1.7 3.393c-2.144 3.049-2.37 2.823-.561 4.519z"/>
</symbol><symbol id="icon-window" viewBox="-7517.17 1704.829 46.517 38.786">
    
    <path class="a" d="M-7514.104 1743.615a3.1 3.1 0 0 1-3.066-3.065v-32.655a3.1 3.1 0 0 1 3.066-3.066h40.385a3.077 3.077 0 0 1 3.066 2.932v32.655a3.1 3.1 0 0 1-3.066 3.066h-40.385zm-.8-28.523v25.458a.63.63 0 0 0 .666.666h40.386a.63.63 0 0 0 .666-.666v-25.458a.63.63 0 0 0-.666-.663h-40.252a.746.746 0 0 0-.8.666zm13.328-4.932a1.822 1.822 0 0 0 1.866 1.869 1.822 1.822 0 0 0 1.866-1.866 1.822 1.822 0 0 0-1.866-1.869 1.906 1.906 0 0 0-1.866 1.866zm-6.131 0a1.822 1.822 0 0 0 1.866 1.869 1.822 1.822 0 0 0 1.871-1.869 1.822 1.822 0 0 0-1.866-1.866 1.822 1.822 0 0 0-1.866 1.866zm-6.264 0a1.822 1.822 0 0 0 1.866 1.869 1.822 1.822 0 0 0 1.866-1.869 1.648 1.648 0 0 0-1.731-1.866 1.937 1.937 0 0 0-2 1.866zm29.456 28.524v-5.6h8.13v5.6zm-9.33 0v-5.6h8.13v5.6zm-9.2 0v-5.6h8.13v5.6zm-9.2 0v-5.6h8.13v5.6z"/>
</symbol><symbol id="icon-word-logo" viewBox="-4547 3671 73.995 30.623">
    
    <path class="a" d="M-4510.275 3686.039c0-9.917 2.07-14.93 8.718-14.93 5.667 0 8.064 3.378 8.064 9.372h-5.23v-.109c0-2.179-.872-4.9-2.942-4.9-2.506 0-3.487 2.942-3.487 10.353 0 7.083.545 11.551 3.6 11.551 1.2 0 3.269-1.526 3.269-4.686v-3.16h-3.383v-4.363h8.391v15.911h-3.814v-2.725h-.111a5.7 5.7 0 0 1-5.449 3.27c-6.427 0-7.626-5.449-7.626-15.584zm19.616.218c0-8.936.981-15.257 8.827-15.257s8.832 6.321 8.832 15.257-.981 15.257-8.827 15.257-8.832-6.321-8.832-15.257zm5.231.109c0 7.846.545 10.9 3.6 10.9s3.6-3.051 3.6-10.9-.545-10.9-3.6-10.9-3.6 3.053-3.6 10.9zm-45.443-.109c0-8.936 1.089-15.257 8.827-15.257 7.846 0 8.827 6.321 8.827 15.257s-.983 15.256-8.827 15.256-8.827-6.32-8.827-15.256zm5.231.109c0 7.846.545 10.9 3.6 10.9s3.6-3.051 3.6-10.9-.545-10.9-3.6-10.9-3.601 3.053-3.601 10.9zm-21.36 14.82v-29.532h5.231v24.629h9.263v4.9z"/>
</symbol><symbol id="icon-youtube" viewBox="-6152.892 4064.696 22.882 15.923">
    
    <path class="a" d="M-6130.423 4067.261a2.849 2.849 0 0 0-2.477-2.241 75.369 75.369 0 0 0-8.551-.324 75.111 75.111 0 0 0-8.551.324 2.849 2.849 0 0 0-2.477 2.241 23.667 23.667 0 0 0-.413 5.396 23.539 23.539 0 0 0 .413 5.4 2.849 2.849 0 0 0 2.477 2.239 75.111 75.111 0 0 0 8.551.324 75.111 75.111 0 0 0 8.551-.324 2.918 2.918 0 0 0 2.477-2.241 23.667 23.667 0 0 0 .413-5.4 27.563 27.563 0 0 0-.413-5.4zm-14.006 8.935v-7.549c2.418 1.268 4.836 2.506 7.254 3.8-2.417 1.242-4.807 2.51-7.254 3.749zm0 0"/>
</symbol></svg>